{"glyphs":{"0":{"ha":1038,"x_min":0,"x_max":0,"o":"m 150 146 b 62 310 111 193 82 248 b 32 507 42 372 32 438 b 65 720 32 585 43 656 b 160 886 88 784 119 840 b 305 994 200 932 249 968 b 492 1032 361 1019 423 1032 b 676 992 558 1032 620 1019 b 821 883 732 966 780 929 b 917 717 862 836 894 781 b 951 507 940 653 951 583 b 920 310 951 438 941 372 b 831 146 899 248 869 193 b 679 23 788 92 738 51 b 492 -19 621 -5 558 -19 b 300 24 422 -19 358 -5 b 150 146 242 52 192 93 m 310 507 b 321 415 310 476 313 446 b 354 331 328 384 339 356 b 410 269 369 306 388 285 b 492 246 433 254 460 246 b 557 263 514 246 536 251 b 615 313 578 274 597 290 b 656 394 632 335 646 362 b 672 507 667 427 672 464 b 658 619 672 545 668 582 b 618 707 649 655 636 685 b 492 768 583 748 541 768 b 427 753 470 768 449 763 b 369 706 405 743 386 727 b 326 624 352 684 338 657 b 310 507 315 591 310 552 "},"1":{"ha":617,"x_min":0,"x_max":0,"o":"m 518 33 b 508 10 518 24 515 16 b 485 0 502 3 494 0 l 276 0 b 253 10 267 0 259 3 b 243 33 246 16 243 24 l 243 515 b 236 533 243 525 241 530 b 219 526 231 535 226 533 b 199 508 212 520 205 514 l 182 490 b 159 481 175 484 168 481 b 136 492 150 481 143 484 l -8 644 b -18 668 -15 651 -18 659 b -7 692 -18 677 -14 685 l 314 996 b 340 1012 320 1002 329 1008 b 371 1018 351 1016 362 1018 l 485 1018 b 508 1008 494 1018 502 1015 b 518 985 515 1002 518 994 "},"2":{"ha":892,"x_min":0,"x_max":0,"o":"m 793 33 b 783 10 793 24 790 16 b 760 0 777 3 769 0 l 92 0 b 68 10 82 0 75 3 b 58 33 62 16 58 24 l 58 215 b 65 245 58 225 61 234 b 83 271 70 256 76 264 b 211 377 133 313 176 348 b 300 451 246 406 276 431 b 360 501 324 472 344 488 b 403 536 377 514 391 526 b 458 588 426 556 444 573 b 490 628 472 602 483 616 b 503 663 497 641 501 653 b 506 696 505 674 506 685 b 476 758 506 726 496 747 b 413 775 456 769 435 775 b 374 762 399 775 386 771 b 344 730 363 753 353 742 b 321 690 335 717 327 704 b 306 651 314 675 309 663 b 290 632 303 643 297 637 b 264 628 282 627 273 626 l 63 679 b 42 695 53 682 47 687 b 40 719 38 703 38 711 b 88 820 51 750 67 784 b 164 922 108 857 133 891 b 272 1001 194 954 230 980 b 413 1032 313 1022 360 1032 b 576 1002 475 1032 530 1022 b 692 924 623 982 661 956 b 760 816 722 892 745 856 b 782 696 775 776 782 736 b 767 587 782 656 777 620 b 725 494 758 554 744 523 b 658 410 706 465 684 437 b 569 331 631 384 602 357 b 549 313 560 322 553 316 b 537 303 544 309 540 306 b 525 293 534 300 530 297 l 504 276 b 495 262 497 271 494 266 b 511 256 497 258 502 256 l 760 256 b 783 246 769 256 777 252 b 793 222 790 239 793 231 "},"3":{"ha":833,"x_min":0,"x_max":0,"o":"m 693 110 b 624 47 673 84 650 63 b 546 8 599 30 573 18 b 465 -11 519 -1 492 -7 b 389 -17 437 -15 412 -17 b 243 13 333 -17 285 -7 b 137 88 201 33 166 58 b 65 186 108 118 84 151 b 21 283 47 221 32 254 b 23 308 18 293 19 301 b 43 322 27 316 34 320 l 221 363 b 245 358 230 364 238 363 b 260 338 252 353 257 346 b 272 305 263 327 267 316 b 296 273 278 293 286 283 b 334 248 306 263 319 255 b 389 238 349 241 368 238 b 460 262 420 238 444 246 b 483 311 475 278 483 294 b 462 379 483 341 476 363 b 410 413 447 395 430 406 b 344 424 389 420 368 424 b 285 421 321 424 301 423 b 262 428 275 420 268 422 b 253 450 256 433 253 441 l 253 567 b 262 590 253 576 256 584 b 286 599 268 596 276 599 b 359 601 306 598 330 599 b 442 625 388 604 416 612 b 478 658 456 632 468 644 b 490 710 488 673 492 690 b 389 783 486 759 452 783 b 335 774 368 783 350 780 b 297 750 320 767 307 759 b 273 719 287 741 279 731 b 260 689 267 708 263 698 b 221 663 253 669 240 660 l 44 701 b 24 716 35 703 28 708 b 22 740 20 724 19 732 b 67 838 33 771 48 803 b 139 935 85 873 109 905 b 244 1009 169 964 204 989 b 389 1039 285 1029 333 1039 b 561 1010 456 1039 514 1029 b 676 935 608 990 647 965 b 739 833 705 904 726 870 b 758 722 752 795 758 758 b 747 643 758 692 755 665 b 719 586 740 621 730 602 b 681 548 707 570 694 558 b 639 525 667 538 653 531 b 639 501 621 518 621 510 b 681 474 653 495 667 486 b 719 432 694 463 707 449 b 747 374 730 415 740 396 b 758 300 755 353 758 328 b 756 263 758 290 758 278 b 747 217 755 249 752 233 b 727 164 743 200 736 182 b 693 110 718 145 707 127 "},"4":{"ha":933,"x_min":0,"x_max":0,"o":"m 868 236 b 859 213 868 227 865 219 b 835 203 853 206 845 203 l 789 203 b 765 193 780 203 772 200 b 756 169 759 187 756 179 l 756 33 b 747 10 756 24 753 16 b 722 0 741 3 732 0 l 514 0 b 490 10 505 0 497 3 b 481 33 484 16 481 24 l 481 169 b 472 193 481 179 478 187 b 447 203 466 200 457 203 l 75 203 b 51 213 66 203 58 206 b 42 236 45 219 42 227 l 42 388 b 48 418 42 397 44 407 b 64 446 52 429 57 438 l 531 993 b 555 1011 536 1000 544 1006 b 585 1018 566 1016 575 1018 l 722 1018 b 747 1008 732 1018 741 1015 b 756 985 753 1002 756 994 l 756 492 b 765 468 756 482 759 475 b 789 458 772 462 780 458 l 835 458 b 859 449 845 458 853 455 b 868 425 865 442 868 434 m 386 490 b 382 467 380 481 378 473 b 403 458 386 461 393 458 l 443 458 b 469 470 453 458 462 462 b 481 497 477 478 481 487 l 481 585 b 474 603 481 595 478 601 b 458 592 470 605 465 601 "},"5":{"ha":856,"x_min":0,"x_max":0,"o":"m 665 76 b 544 7 630 47 590 24 b 403 -18 499 -10 452 -18 b 281 -2 358 -18 318 -13 b 178 40 244 9 209 22 b 94 98 147 57 119 76 b 22 164 68 120 44 142 b 12 188 16 170 12 178 b 21 213 11 197 14 205 l 135 333 b 156 342 141 340 148 343 b 179 332 164 342 172 338 b 210 304 188 324 198 314 b 256 275 223 294 238 284 b 314 252 273 266 293 258 b 385 243 335 246 359 243 b 488 278 429 243 463 255 b 524 365 512 301 524 330 b 517 407 524 379 521 393 b 495 446 512 421 505 434 b 456 477 485 458 472 468 b 396 493 439 486 419 491 b 311 483 361 496 332 492 b 254 447 290 473 271 461 b 227 435 247 441 238 437 b 199 438 216 433 207 434 l 74 486 b 52 503 64 489 57 495 b 47 531 47 512 45 521 l 132 986 b 146 1009 134 995 138 1003 b 171 1018 153 1015 162 1018 l 694 1018 b 718 1008 704 1018 712 1015 b 728 985 725 1002 728 994 l 728 794 b 718 771 728 785 725 777 b 694 761 712 764 704 761 l 397 761 b 373 753 388 761 380 758 b 360 733 366 747 362 741 b 365 715 358 726 359 720 b 386 711 370 711 377 709 b 404 713 393 712 399 713 l 419 713 b 689 615 535 713 625 680 b 785 342 753 550 785 459 b 754 197 785 291 775 242 b 665 76 734 151 704 111 "},"6":{"ha":901,"x_min":0,"x_max":0,"o":"m 535 718 b 740 598 622 703 690 663 b 817 354 790 533 816 451 b 808 264 817 321 814 291 b 785 192 803 237 795 213 b 753 135 776 170 765 152 b 718 94 741 119 729 106 b 642 36 694 70 669 51 b 561 2 615 21 588 10 b 484 -14 534 -6 509 -11 b 421 -18 459 -17 438 -18 b 306 -2 381 -18 343 -13 b 205 42 270 9 236 23 b 122 111 174 61 146 84 b 65 201 98 138 79 168 b 40 288 55 226 47 255 b 29 378 33 320 29 350 b 40 473 29 410 33 442 b 72 568 48 504 58 536 b 113 640 79 584 92 608 b 184 747 133 672 157 707 b 270 870 211 786 240 827 b 357 992 300 913 329 954 b 380 1010 362 999 369 1005 b 410 1018 391 1016 400 1018 l 683 1018 b 701 1010 693 1018 698 1016 b 697 992 703 1005 702 999 l 521 750 b 517 730 515 743 514 736 b 535 718 519 724 525 720 m 546 353 b 536 397 546 369 543 383 b 510 434 530 411 521 423 b 473 459 500 445 487 453 b 426 468 459 465 443 468 b 380 459 410 468 394 465 b 342 434 366 453 353 445 b 317 397 332 423 323 411 b 308 353 311 383 308 369 b 317 308 308 337 311 322 b 342 272 323 294 332 282 b 380 248 353 262 366 254 b 426 239 394 242 410 239 b 473 248 443 239 459 242 b 510 272 487 254 500 262 b 536 308 521 282 530 294 b 546 353 543 322 546 337 "},"7":{"ha":835,"x_min":0,"x_max":0,"o":"m 781 815 b 776 783 781 806 779 795 b 764 753 772 771 769 761 l 358 29 b 338 9 354 22 347 15 b 310 0 328 3 319 0 l 60 0 b 40 9 50 0 43 3 b 43 29 38 15 38 22 l 447 732 b 449 753 452 740 453 747 b 431 761 446 758 440 761 l 60 761 b 35 771 50 761 41 764 b 26 794 29 777 26 785 l 26 985 b 35 1008 26 994 29 1002 b 60 1018 41 1015 50 1018 l 747 1018 b 771 1008 756 1018 764 1015 b 781 985 777 1002 781 994 "},"8":{"ha":863,"x_min":0,"x_max":0,"o":"m 711 518 b 772 430 736 493 756 464 b 796 324 788 396 796 361 b 765 172 796 265 786 215 b 682 66 745 130 717 94 b 559 3 647 38 606 17 b 408 -18 512 -11 462 -18 b 258 3 356 -18 306 -11 b 135 66 211 17 170 38 b 51 172 100 94 72 130 b 21 324 31 215 21 265 b 45 433 21 363 29 399 b 108 521 61 466 82 496 b 120 544 116 527 120 535 b 114 568 121 553 119 561 b 73 641 98 589 84 614 b 56 722 61 668 56 695 b 83 845 56 767 65 808 b 159 943 102 883 127 915 b 271 1008 191 971 228 992 b 408 1031 313 1023 359 1031 b 545 1008 456 1031 502 1023 b 658 943 588 992 626 971 b 733 845 690 915 715 883 b 761 722 752 808 761 767 b 747 638 761 693 756 664 b 708 565 737 611 724 587 b 711 518 696 550 697 534 m 519 324 b 510 360 519 337 516 349 b 486 390 504 372 496 382 b 451 410 476 399 464 405 b 408 418 437 416 423 418 b 331 391 379 418 353 409 b 299 324 309 373 299 350 b 331 251 299 290 309 266 b 408 229 353 237 379 229 b 486 251 438 229 464 237 b 519 324 508 266 519 290 m 408 636 b 463 656 430 636 448 643 b 485 704 477 669 485 685 b 463 763 485 730 477 750 b 408 782 448 775 430 782 b 354 762 387 782 369 775 b 332 704 339 748 332 729 b 354 656 332 685 339 669 b 408 636 369 643 387 636 "},"9":{"ha":913,"x_min":0,"x_max":0,"o":"m 328 301 b 210 349 284 310 245 325 b 122 433 176 372 146 400 b 66 542 98 466 79 502 b 46 664 53 581 46 622 b 77 826 46 730 56 784 b 144 924 98 868 120 900 b 220 982 168 948 193 967 b 301 1016 247 997 275 1008 b 378 1032 328 1024 354 1029 b 440 1036 402 1035 423 1036 b 601 1005 500 1036 553 1026 b 725 919 650 984 691 956 b 805 793 759 883 786 841 b 833 640 824 745 833 694 b 802 477 833 584 823 529 b 723 324 781 425 755 374 b 617 176 691 274 656 224 b 506 28 579 127 542 78 b 482 8 500 20 492 14 b 453 0 472 3 462 0 l 179 0 b 161 8 170 0 164 3 b 165 28 158 14 160 20 l 342 269 b 346 290 347 277 349 284 b 328 301 343 296 337 300 m 318 665 b 327 620 318 650 321 634 b 352 583 333 606 341 594 b 390 559 363 573 375 565 b 436 550 404 553 419 550 b 483 559 453 550 468 553 b 520 583 497 565 509 573 b 546 620 531 594 539 606 b 556 665 552 634 556 650 b 520 754 556 706 544 736 b 436 782 497 773 469 782 b 353 753 404 782 376 772 b 318 665 330 734 318 705 "},"―":{"ha":694,"x_min":0,"x_max":0,"o":""},"‖":{"ha":694,"x_min":0,"x_max":0,"o":""},"‗":{"ha":694,"x_min":0,"x_max":0,"o":""},"‛":{"ha":694,"x_min":0,"x_max":0,"o":""},"‟":{"ha":694,"x_min":0,"x_max":0,"o":""},"‣":{"ha":694,"x_min":0,"x_max":0,"o":""},"․":{"ha":694,"x_min":0,"x_max":0,"o":""},"‥":{"ha":694,"x_min":0,"x_max":0,"o":""},"≡":{"ha":694,"x_min":0,"x_max":0,"o":""},"≢":{"ha":694,"x_min":0,"x_max":0,"o":""},"≣":{"ha":694,"x_min":0,"x_max":0,"o":""},"\u0000":{"ha":0,"x_min":0,"x_max":0,"o":""},"\r":{"ha":475,"x_min":0,"x_max":0,"o":""}," ":{"ha":475,"x_min":0,"x_max":0,"o":""},"!":{"ha":407,"x_min":0,"x_max":0,"o":"m 113 350 b 88 360 102 350 94 353 b 76 383 81 366 77 374 l 42 982 b 49 1006 41 992 43 1000 b 74 1015 55 1012 63 1015 l 306 1015 b 328 1006 315 1015 322 1012 b 336 982 334 1000 337 992 l 301 383 b 290 360 300 374 297 366 b 267 350 284 353 276 350 m 86 0 b 62 10 76 0 68 3 b 53 33 56 16 53 24 l 53 225 b 62 249 53 235 56 243 b 86 258 68 255 76 258 l 294 258 b 318 249 304 258 312 255 b 328 225 325 243 328 235 l 328 33 b 318 10 328 24 325 16 b 294 0 312 3 304 0 "},"\"":{"ha":661,"x_min":0,"x_max":0,"o":"m 79 656 b 55 665 70 656 62 659 b 43 689 48 672 44 680 l 19 996 b 27 1019 19 1005 21 1013 b 50 1029 33 1026 41 1029 l 260 1029 b 283 1019 269 1029 277 1026 b 290 996 289 1013 291 1005 l 268 689 b 256 665 267 680 263 672 b 232 656 249 659 241 656 m 399 656 b 374 665 389 656 381 659 b 363 689 367 672 363 680 l 342 996 b 349 1019 341 1005 343 1013 b 372 1029 355 1026 363 1029 l 581 1029 b 603 1019 590 1029 597 1026 b 611 996 609 1013 612 1005 l 588 689 b 576 665 587 680 583 672 b 551 656 569 659 561 656 "},"#":{"ha":1189,"x_min":0,"x_max":0,"o":"m 794 229 b 767 220 784 229 775 226 b 749 199 758 214 752 207 b 714 115 738 172 726 144 b 681 32 702 85 691 58 b 663 9 678 23 672 15 b 636 0 654 3 645 0 l 451 0 b 431 9 441 0 434 3 b 429 32 427 15 426 23 l 494 199 b 494 220 498 207 498 214 b 474 229 490 226 483 229 l 431 229 b 403 220 420 229 411 226 b 385 199 394 214 388 207 l 319 32 b 302 9 317 23 311 15 b 275 0 293 3 284 0 l 92 0 b 71 9 81 0 75 3 b 69 32 67 15 67 23 l 133 199 b 133 220 137 207 137 214 b 113 229 128 226 122 229 l 15 229 b -6 238 5 229 -2 232 b -7 261 -10 244 -11 252 l 61 446 b 79 467 65 454 71 461 b 107 476 88 473 97 476 l 207 476 b 233 485 216 476 225 479 b 251 508 242 491 248 499 l 260 532 b 259 553 263 540 263 547 b 239 563 255 559 248 563 l 142 563 b 121 572 131 563 125 566 b 121 593 117 578 117 585 l 190 765 b 208 787 194 774 200 781 b 236 796 217 793 226 796 l 333 796 b 360 805 343 796 352 799 b 378 828 369 811 375 819 b 410 909 388 854 399 881 b 442 988 421 937 431 963 b 460 1009 445 996 451 1003 b 488 1018 468 1015 477 1018 l 672 1018 b 692 1009 681 1018 688 1015 b 693 988 697 1003 697 996 l 631 828 b 632 805 628 819 628 811 b 653 796 636 799 643 796 l 693 796 b 720 805 702 796 711 799 b 739 826 729 811 735 818 b 771 908 749 853 760 881 b 803 988 782 936 793 963 b 821 1009 806 996 813 1003 b 849 1018 829 1015 838 1018 l 1035 1018 b 1055 1009 1044 1018 1051 1015 b 1056 988 1059 1003 1059 996 l 992 828 b 992 805 988 819 988 811 b 1013 796 995 799 1002 796 l 1115 796 b 1135 787 1125 796 1131 793 b 1136 765 1140 781 1140 774 l 1068 594 b 1049 572 1064 585 1058 578 b 1022 563 1041 566 1031 563 l 918 563 b 890 553 908 563 899 559 b 874 532 882 547 876 540 l 865 508 b 866 485 862 499 862 491 b 888 476 870 479 877 476 l 988 476 b 1008 467 997 476 1003 473 b 1008 446 1012 461 1012 454 l 939 261 b 922 238 936 252 930 244 b 894 229 913 232 904 229 m 557 572 b 524 561 546 572 535 569 b 501 535 514 554 506 545 l 490 506 b 492 478 487 494 487 485 b 518 467 497 470 506 467 l 569 467 b 602 478 581 467 591 470 b 624 506 613 485 620 494 l 635 535 b 632 561 638 545 638 554 b 607 572 626 569 618 572 "},"$":{"ha":944,"x_min":0,"x_max":0,"o":"m 536 1131 b 560 1121 545 1131 553 1127 b 569 1097 566 1114 569 1106 l 569 1060 b 579 1034 569 1050 573 1042 b 603 1019 586 1026 594 1021 b 829 903 682 999 758 960 b 842 881 837 897 841 890 b 835 856 843 871 840 863 l 726 701 b 704 688 721 694 713 689 b 679 693 695 686 687 688 b 547 756 632 723 588 744 b 435 775 506 769 469 775 b 399 774 425 775 413 775 b 361 769 386 774 373 772 b 331 753 349 766 339 760 b 319 722 323 745 319 735 b 349 688 319 709 329 698 b 415 661 368 677 390 669 b 488 644 440 654 464 648 b 532 636 511 640 525 637 b 642 608 565 630 602 620 b 753 552 681 595 719 577 b 841 456 788 528 817 496 b 876 308 865 417 876 368 b 802 97 876 218 852 147 b 603 0 753 47 686 15 b 579 -14 594 -2 586 -6 b 569 -39 573 -21 569 -30 l 569 -79 b 560 -103 569 -88 566 -96 b 536 -112 553 -109 545 -112 l 331 -112 b 307 -103 321 -112 313 -109 b 297 -79 300 -96 297 -88 l 297 -22 b 288 4 297 -13 294 -4 b 265 21 282 13 275 18 b 143 72 221 34 180 51 b 42 142 106 94 72 117 b 29 166 34 148 30 156 b 36 192 28 176 31 184 l 143 346 b 165 360 149 353 156 358 b 190 356 175 362 183 360 b 339 279 240 323 290 298 b 476 251 388 261 434 251 b 569 269 517 251 548 257 b 601 321 591 280 601 298 b 588 349 601 333 597 342 b 551 367 578 356 566 362 b 497 378 535 371 518 375 b 435 389 477 381 456 384 b 363 402 414 393 391 397 b 279 424 336 407 308 415 b 194 461 250 434 222 446 b 118 518 166 476 140 495 b 65 601 96 541 78 569 b 44 714 51 633 44 670 b 62 827 44 756 50 794 b 110 913 73 860 89 889 b 180 974 130 938 153 958 b 265 1013 206 989 235 1002 b 288 1028 275 1015 282 1021 b 297 1054 294 1036 297 1045 l 297 1097 b 307 1121 297 1106 300 1114 b 331 1131 313 1127 321 1131 "},"%":{"ha":1393,"x_min":0,"x_max":0,"o":"m 24 717 b 45 840 24 761 31 802 b 105 937 59 877 79 909 b 195 1001 130 964 160 985 b 308 1024 230 1016 268 1024 b 422 1001 349 1024 387 1016 b 511 937 456 985 486 964 b 570 840 536 909 556 877 b 592 717 584 802 592 761 b 570 595 592 673 584 633 b 510 498 556 558 536 525 b 420 434 485 471 455 449 b 308 411 385 419 348 411 b 195 434 268 411 230 419 b 105 498 160 449 130 471 b 45 594 79 525 59 557 b 24 717 31 631 24 672 m 272 717 b 273 697 272 714 272 707 b 278 667 273 687 275 677 b 289 639 281 656 284 647 b 308 626 294 631 300 626 b 325 635 315 626 320 629 b 336 658 330 641 333 649 b 342 687 339 666 341 676 b 344 717 344 697 344 707 b 342 744 344 725 344 734 b 336 774 341 755 339 764 b 325 797 333 783 330 791 b 308 806 320 803 315 806 b 289 794 300 806 294 802 b 278 767 284 786 281 777 b 273 738 275 758 273 748 b 272 717 272 727 272 720 m 868 990 b 890 1010 873 998 880 1004 b 918 1018 899 1015 909 1018 l 1082 1018 b 1101 1010 1091 1018 1097 1015 b 1099 990 1104 1004 1103 998 l 526 29 b 505 8 522 21 515 14 b 476 0 495 3 486 0 l 311 0 b 292 8 302 0 296 3 b 294 29 289 14 290 21 m 799 288 b 820 410 799 332 806 373 b 880 506 834 447 854 479 b 970 570 905 534 935 555 b 1083 593 1005 585 1043 593 b 1197 570 1124 593 1162 585 b 1286 506 1231 555 1261 534 b 1345 410 1311 479 1331 447 b 1367 288 1359 373 1367 332 b 1345 166 1367 244 1359 203 b 1285 69 1331 128 1311 96 b 1195 4 1260 41 1230 20 b 1083 -19 1160 -12 1123 -19 b 970 3 1043 -19 1005 -12 b 880 67 935 19 905 40 b 820 165 854 95 834 127 b 799 288 806 202 799 243 m 1047 288 b 1048 268 1047 285 1047 278 b 1053 238 1048 258 1050 248 b 1064 210 1056 227 1059 218 b 1083 197 1069 201 1075 197 b 1100 206 1090 197 1095 200 b 1111 228 1105 212 1108 220 b 1117 258 1114 237 1116 247 b 1119 288 1119 268 1119 278 b 1117 316 1119 296 1119 305 b 1111 345 1116 327 1114 336 b 1100 368 1108 354 1105 362 b 1083 378 1095 375 1090 378 b 1064 366 1075 378 1069 374 b 1053 339 1059 358 1056 349 b 1048 308 1050 329 1048 319 b 1047 288 1047 298 1047 291 "},"&":{"ha":951,"x_min":0,"x_max":0,"o":"m 631 71 b 606 82 623 78 615 82 b 582 72 597 82 589 79 b 516 26 560 53 538 38 b 453 0 494 15 473 6 b 395 -12 432 -6 413 -11 b 346 -15 377 -14 361 -15 b 122 56 254 -15 180 8 b 22 244 65 103 31 166 b 44 397 15 303 22 354 b 144 518 67 441 100 481 b 151 524 146 520 149 522 l 168 536 b 181 558 175 542 180 549 b 175 583 181 566 180 575 b 131 788 137 648 122 716 b 163 887 135 824 146 857 b 227 964 180 917 202 943 b 314 1014 253 985 281 1002 b 415 1032 346 1026 380 1032 b 567 992 469 1032 519 1019 b 671 878 614 966 649 928 b 694 778 686 844 694 811 b 681 682 695 744 691 713 b 638 596 672 651 657 623 b 569 525 618 569 595 545 b 557 505 562 519 558 513 b 565 482 556 497 559 489 l 588 461 b 609 452 594 454 601 451 b 628 465 617 453 623 458 b 653 510 637 481 646 496 b 672 546 661 524 668 536 b 692 563 677 554 683 560 b 718 563 700 566 709 566 l 869 496 b 887 478 878 492 884 486 b 885 453 890 469 889 461 b 847 387 875 436 863 414 b 790 299 830 359 812 330 b 783 272 785 291 782 282 b 793 247 783 262 787 254 b 840 198 809 231 824 214 b 883 150 855 182 869 166 b 892 126 890 143 893 134 b 881 104 892 117 888 110 l 754 -7 b 729 -16 747 -13 738 -16 b 706 -6 720 -16 712 -12 m 299 369 b 267 335 287 362 276 351 b 261 272 259 320 256 299 b 286 224 265 251 273 235 b 331 203 299 213 314 206 b 383 208 347 201 365 203 b 431 231 401 213 417 220 b 441 253 438 236 441 244 b 431 279 441 263 437 272 l 350 363 b 325 376 344 370 335 374 b 299 369 315 377 306 375 m 419 688 b 455 728 436 699 448 712 b 464 773 462 744 465 759 b 449 809 463 787 458 799 b 414 824 441 819 429 824 b 381 810 403 824 392 819 b 361 768 371 802 364 788 b 363 735 359 758 360 747 b 374 700 365 723 369 711 b 394 683 377 692 384 686 b 419 688 403 681 412 682 "},"'":{"ha":319,"x_min":0,"x_max":0,"o":"m 75 656 b 51 665 66 656 58 659 b 39 689 44 672 40 680 l 15 996 b 23 1019 14 1005 17 1013 b 46 1029 29 1026 37 1029 l 256 1029 b 278 1019 265 1029 272 1026 b 286 996 284 1013 287 1005 l 264 689 b 252 665 263 680 259 672 b 228 656 245 659 237 656 "},"(":{"ha":549,"x_min":0,"x_max":0,"o":"m 507 60 b 520 38 514 54 519 47 b 514 13 522 28 519 20 l 397 -143 b 375 -156 392 -150 384 -155 b 350 -150 366 -158 357 -156 b 211 -26 298 -111 252 -70 b 108 117 170 17 136 65 b 43 292 79 170 58 228 b 21 508 28 356 21 428 b 42 717 21 585 28 655 b 103 890 56 780 76 838 b 206 1038 131 943 165 992 b 350 1168 247 1083 295 1126 b 375 1174 357 1174 366 1176 b 397 1161 384 1173 392 1169 l 514 1008 b 520 983 519 1001 522 993 b 507 961 519 974 514 967 b 351 765 439 906 387 841 b 296 508 314 689 296 604 b 347 249 296 407 313 321 b 507 60 381 178 435 114 "},")":{"ha":549,"x_min":0,"x_max":0,"o":"m 203 1168 b 347 1038 257 1126 305 1083 b 450 890 388 992 422 943 b 513 717 478 838 499 780 b 533 508 526 655 533 585 b 511 292 533 428 526 356 b 447 117 496 228 475 170 b 342 -26 418 65 384 17 b 203 -150 301 -70 255 -111 b 178 -156 195 -156 187 -158 b 156 -143 169 -155 161 -150 l 39 13 b 33 38 33 20 31 28 b 46 60 34 47 38 54 b 206 249 118 114 172 178 b 258 508 241 321 258 407 b 203 765 258 604 240 689 b 46 961 166 841 113 906 b 33 983 38 967 34 974 b 39 1008 31 993 33 1001 l 156 1161 b 178 1174 161 1169 169 1173 b 203 1168 187 1176 195 1174 "},"*":{"ha":604,"x_min":0,"x_max":0,"o":"m 232 489 b 213 473 227 481 221 475 b 188 476 204 471 196 472 l 58 561 b 45 581 51 567 47 573 b 53 604 44 589 46 597 l 113 669 b 119 690 119 677 121 684 b 103 701 118 696 112 700 l 22 719 b 2 734 13 721 6 726 b 0 758 -2 742 -3 750 l 47 899 b 63 917 50 907 55 913 b 89 917 71 920 80 920 l 157 885 b 178 885 165 881 172 881 b 185 904 183 888 186 895 l 179 981 b 187 1005 178 991 181 999 b 211 1014 193 1011 201 1014 l 361 1014 b 384 1005 370 1014 378 1011 b 392 981 390 999 393 991 l 385 897 b 392 878 384 888 386 881 b 413 879 397 874 404 875 l 482 915 b 506 917 490 920 498 920 b 522 899 514 913 519 907 l 568 758 b 566 734 571 750 570 742 b 546 719 562 726 555 721 l 468 700 b 451 688 459 698 453 694 b 458 668 450 682 452 675 l 517 604 b 525 581 523 597 526 589 b 511 561 524 573 519 567 l 382 476 b 358 473 375 472 366 471 b 338 488 349 475 342 480 l 300 554 b 284 567 295 563 290 567 b 268 554 278 567 273 563 "},"+":{"ha":788,"x_min":0,"x_max":0,"o":"m 551 392 b 528 383 542 392 534 389 b 518 358 521 377 518 369 l 518 192 b 509 168 518 182 515 175 b 485 158 503 162 495 158 l 289 158 b 265 168 280 158 272 162 b 256 192 259 175 256 182 l 256 358 b 247 383 256 369 253 377 b 222 392 241 389 232 392 l 60 392 b 35 401 50 392 41 395 b 25 425 28 408 25 416 l 25 613 b 35 637 25 623 28 631 b 60 646 41 643 50 646 l 222 646 b 247 656 232 646 241 649 b 256 679 253 662 256 670 l 256 847 b 265 872 256 857 259 866 b 289 881 272 878 280 881 l 485 881 b 509 872 495 881 503 878 b 518 847 515 866 518 857 l 518 679 b 528 656 518 670 521 662 b 551 646 534 649 542 646 l 715 646 b 740 637 725 646 734 643 b 749 613 746 631 749 623 l 749 425 b 740 401 749 416 746 408 b 715 392 734 395 725 392 "},",":{"ha":331,"x_min":0,"x_max":0,"o":"m 100 -147 b 74 -146 92 -151 83 -150 b 56 -126 66 -141 59 -135 l 25 -54 b 24 -29 20 -46 20 -37 b 42 -11 27 -21 33 -15 b 51 -7 45 -9 49 -8 l 60 -4 b 63 26 76 3 77 13 b 18 125 36 50 21 82 b 26 181 17 144 20 163 b 55 228 33 199 42 215 b 99 260 67 242 82 253 b 154 274 116 268 135 273 b 248 244 190 275 222 266 b 300 160 274 223 292 195 b 306 133 303 151 305 142 b 307 103 306 123 307 113 b 293 27 307 78 302 53 b 253 -44 284 2 271 -22 b 189 -105 236 -67 215 -87 b 100 -147 163 -123 133 -137 "},"-":{"ha":568,"x_min":0,"x_max":0,"o":"m 63 394 b 39 404 53 394 45 398 b 29 428 32 411 29 419 l 29 615 b 39 640 29 625 32 634 b 63 649 45 646 53 649 l 506 649 b 529 640 515 649 523 646 b 539 615 536 634 539 625 l 539 428 b 529 404 539 419 536 411 b 506 394 523 398 515 394 "},".":{"ha":322,"x_min":0,"x_max":0,"o":"m 300 133 b 289 78 300 114 296 95 b 258 32 281 60 271 45 b 213 1 245 19 230 9 b 157 -10 195 -6 176 -10 b 102 1 138 -10 119 -6 b 57 32 85 9 70 19 b 26 78 44 45 34 60 b 15 133 19 95 15 114 b 26 188 15 153 19 171 b 57 232 34 204 44 219 b 102 263 70 245 85 255 b 157 274 119 270 138 274 b 213 263 176 274 195 270 b 258 232 230 255 245 245 b 289 188 271 219 281 204 b 300 133 296 171 300 153 "},"/":{"ha":788,"x_min":0,"x_max":0,"o":"m 540 1115 b 560 1136 545 1124 552 1131 b 588 1144 569 1142 578 1144 l 793 1144 b 813 1136 802 1144 809 1142 b 813 1115 817 1131 817 1124 l 236 -142 b 217 -163 232 -150 226 -157 b 189 -172 207 -169 198 -172 l -17 -172 b -36 -163 -26 -172 -32 -169 b -36 -142 -40 -157 -40 -150 "},":":{"ha":331,"x_min":0,"x_max":0,"o":"m 161 344 b 106 356 142 344 123 348 b 60 386 88 363 73 373 b 31 431 48 399 38 414 b 19 486 23 448 19 467 b 31 542 19 506 23 524 b 60 588 38 559 48 575 b 106 618 73 600 88 611 b 161 629 123 625 142 629 b 217 618 181 629 199 625 b 263 588 234 611 250 600 b 293 542 275 575 286 559 b 304 486 300 524 304 506 b 293 431 304 467 300 448 b 263 386 286 414 275 399 b 217 356 250 373 234 363 b 161 344 199 348 181 344 m 161 -10 b 106 1 142 -10 123 -6 b 60 32 88 9 73 19 b 31 78 48 45 38 60 b 19 133 23 95 19 114 b 31 188 19 153 23 171 b 60 232 38 204 48 219 b 106 263 73 245 88 255 b 161 274 123 270 142 274 b 217 263 181 274 199 270 b 263 232 234 255 250 245 b 293 188 275 219 286 204 b 304 133 300 171 304 153 b 293 78 304 114 300 95 b 263 32 286 60 275 45 b 217 1 250 19 234 9 b 161 -10 199 -6 181 -10 "},";":{"ha":343,"x_min":0,"x_max":0,"o":"m 108 -175 b 80 -176 99 -179 90 -179 b 57 -160 70 -172 63 -167 l 32 -124 b 26 -99 26 -116 24 -108 b 38 -75 27 -89 31 -81 b 65 -47 48 -66 57 -56 b 88 -19 74 -38 81 -29 b 91 3 93 -12 94 -5 b 75 22 88 10 82 17 b 39 65 59 32 47 47 b 24 125 31 84 25 104 b 61 226 22 165 34 198 b 160 269 88 253 121 268 b 224 258 183 270 204 266 b 273 222 243 249 259 237 b 304 168 286 206 297 188 b 315 103 312 148 315 126 b 264 -60 315 42 298 -13 b 108 -175 230 -108 178 -146 m 165 344 b 110 356 146 344 127 348 b 65 386 92 363 77 373 b 35 431 52 399 42 414 b 24 486 27 448 24 467 b 35 542 24 506 27 524 b 65 588 42 559 52 575 b 110 618 77 600 92 611 b 165 629 127 625 146 629 b 221 618 185 629 203 625 b 267 588 238 611 254 600 b 297 542 280 575 290 559 b 308 486 305 524 308 506 b 297 431 308 467 305 448 b 267 386 290 414 280 399 b 221 356 254 373 238 363 b 165 344 203 348 185 344 "},"<":{"ha":768,"x_min":0,"x_max":0,"o":"m 693 668 b 684 641 693 659 690 650 b 663 622 678 632 671 626 l 422 518 b 408 504 413 513 408 509 b 422 492 408 500 413 495 l 661 389 b 684 369 670 384 678 378 b 693 342 690 360 693 351 l 693 117 b 684 97 693 107 690 101 b 663 97 678 94 671 94 l 64 379 b 43 399 56 384 49 391 b 35 426 38 408 35 417 l 35 583 b 43 611 35 593 38 602 b 64 631 49 620 56 627 l 663 911 b 684 912 671 916 678 916 b 693 892 690 908 693 901 "},"=":{"ha":781,"x_min":0,"x_max":0,"o":"m 67 543 b 43 553 57 543 50 546 b 33 576 37 559 33 567 l 33 750 b 43 774 33 760 37 768 b 67 783 50 780 57 783 l 669 783 b 693 774 679 783 687 780 b 703 750 700 768 703 760 l 703 576 b 693 553 703 567 700 559 b 669 543 687 546 679 543 m 67 226 b 43 236 57 226 50 230 b 33 260 37 243 33 250 l 33 433 b 43 458 33 444 37 452 b 67 467 50 464 57 467 l 669 467 b 693 458 679 467 687 464 b 703 433 700 452 703 444 l 703 260 b 693 236 703 250 700 243 b 669 226 687 230 679 226 "},">":{"ha":768,"x_min":0,"x_max":0,"o":"m 693 426 b 684 399 693 417 690 408 b 663 379 678 391 671 384 l 65 97 b 44 97 57 94 50 94 b 35 117 38 101 35 107 l 35 342 b 44 369 35 351 38 360 b 65 389 50 378 57 384 l 304 492 b 317 504 313 495 317 500 b 304 518 317 509 313 513 l 65 622 b 44 641 57 626 50 632 b 35 668 38 650 35 659 l 35 892 b 44 912 35 901 38 908 b 65 911 50 916 57 916 l 663 631 b 684 611 671 627 678 620 b 693 583 690 602 693 593 "},"?":{"ha":803,"x_min":0,"x_max":0,"o":"m 475 382 b 463 358 473 373 469 365 b 439 349 457 352 449 349 l 228 349 b 204 358 219 349 211 352 b 194 382 198 365 194 373 b 210 468 195 414 200 443 b 248 535 219 493 232 516 b 308 589 264 555 284 573 b 393 633 332 605 361 619 b 454 669 423 646 443 658 b 471 718 465 681 471 697 b 470 731 471 720 471 724 b 461 753 470 738 467 745 b 433 773 456 760 446 767 b 374 782 419 779 400 782 b 301 772 344 782 320 778 b 253 744 282 765 266 756 b 224 706 241 733 231 721 b 206 664 217 692 211 678 b 188 645 202 656 196 649 b 161 643 179 641 170 640 l 4 694 b -15 712 -4 698 -11 704 b -18 738 -20 720 -21 728 b 11 826 -12 763 -2 792 b 74 926 24 861 45 894 b 189 1007 102 958 141 985 b 376 1040 237 1029 300 1040 b 480 1031 415 1040 450 1037 b 560 1005 510 1024 537 1016 b 621 969 584 994 604 982 b 663 932 638 956 651 944 b 723 842 688 903 709 873 b 744 739 737 811 744 777 b 726 621 744 690 738 650 b 681 549 714 591 699 567 b 621 506 663 531 643 517 b 558 475 599 496 578 485 b 505 439 538 465 520 453 b 475 382 490 425 480 406 m 196 225 b 206 249 196 234 199 242 b 229 258 212 255 220 258 l 438 258 b 462 249 448 258 456 255 b 471 225 468 242 471 234 l 471 33 b 462 10 471 24 468 16 b 438 0 456 3 448 0 l 229 0 b 206 10 220 0 212 3 b 196 33 199 16 196 24 "},"@":{"ha":1176,"x_min":0,"x_max":0,"o":"m 992 239 b 932 212 973 226 953 217 b 867 207 911 207 889 205 b 804 221 846 209 825 213 b 751 251 784 228 766 238 b 726 262 744 258 736 261 b 701 256 717 262 709 260 b 635 219 682 241 660 228 b 553 204 610 209 582 204 b 350 284 467 204 399 231 b 276 501 301 337 276 410 b 297 622 276 546 283 586 b 353 715 310 658 329 689 b 441 776 378 741 407 761 b 554 797 475 790 513 797 b 629 788 585 797 610 794 b 660 783 650 781 660 780 b 669 790 660 786 663 788 b 693 792 676 791 684 792 l 801 792 b 826 783 812 792 820 789 b 835 758 832 777 835 769 l 835 439 b 836 415 835 431 835 423 b 842 390 837 406 839 398 b 865 372 844 381 852 375 b 893 376 877 368 887 370 b 922 442 906 388 916 410 b 932 560 929 473 932 513 b 844 789 932 663 903 740 b 731 847 814 814 776 833 b 571 868 685 861 632 868 b 415 837 511 868 459 858 b 306 756 371 816 334 789 b 242 642 277 722 256 684 b 222 513 229 599 222 556 b 235 385 222 472 226 429 b 283 264 243 341 259 301 b 381 173 306 227 339 197 b 546 138 423 149 478 138 b 682 153 601 138 647 143 b 761 183 717 163 744 173 b 787 189 769 188 777 190 b 810 178 797 188 804 184 l 872 107 b 881 83 879 100 882 91 b 869 60 881 74 877 66 b 822 31 856 50 841 40 b 756 6 804 21 782 13 b 666 -12 731 -2 701 -8 b 546 -18 631 -16 591 -18 b 337 18 468 -18 398 -6 b 180 123 275 42 223 77 b 81 290 137 169 104 224 b 47 513 59 355 47 429 b 82 710 47 582 59 648 b 182 874 105 772 138 826 b 353 994 230 926 287 966 b 571 1035 419 1021 491 1035 b 790 1006 652 1035 725 1025 b 957 917 855 986 911 956 b 1106 560 1056 833 1106 714 b 992 239 1106 402 1068 295 m 660 538 b 656 572 660 549 659 560 b 642 604 654 583 649 594 b 610 629 634 614 624 623 b 554 639 596 636 577 639 b 506 625 535 639 519 634 b 477 590 494 616 484 604 b 463 546 470 576 465 562 b 458 501 460 530 458 515 b 467 435 458 475 461 453 b 490 394 473 418 481 405 b 521 373 500 384 510 377 b 553 367 532 369 543 367 b 592 372 567 367 580 368 b 626 389 605 375 616 381 b 650 422 635 397 644 408 b 660 475 656 436 660 454 l 660 538 "},"A":{"ha":1090,"x_min":0,"x_max":0,"o":"m 375 985 b 394 1006 379 993 385 1000 b 422 1015 403 1012 412 1015 l 617 1015 b 644 1006 626 1015 635 1012 b 663 985 653 1000 659 993 l 1068 40 b 1066 14 1072 32 1071 23 b 1036 0 1061 5 1051 0 l 799 0 b 770 9 788 0 779 3 b 750 31 761 15 755 22 l 713 114 b 692 135 708 122 701 129 b 665 144 684 141 675 144 l 372 144 b 344 135 362 144 353 141 b 325 114 335 129 329 122 l 286 31 b 267 9 282 22 276 15 b 240 0 259 3 250 0 l 1 0 b -13 3 -3 0 -8 1 b -26 11 -18 5 -22 7 b -32 25 -29 15 -31 19 b -28 44 -33 31 -31 37 l 375 985 m 581 381 b 601 390 590 381 597 384 b 600 411 605 396 605 403 b 567 492 591 434 580 461 b 531 579 554 523 542 552 b 518 592 527 588 523 592 b 506 579 513 592 509 588 l 436 411 b 436 390 432 403 432 396 b 457 381 440 384 447 381 "},"B":{"ha":974,"x_min":0,"x_max":0,"o":"m 771 524 b 815 493 786 515 800 505 b 856 449 830 481 844 466 b 887 388 869 431 879 411 b 899 308 895 364 899 338 b 870 159 899 248 889 198 b 793 65 851 120 825 88 b 681 15 761 41 723 24 b 549 0 639 5 595 0 l 108 0 b 85 10 99 0 91 3 b 75 33 78 16 75 24 l 75 983 b 85 1007 75 993 78 1000 b 108 1017 91 1013 99 1017 l 528 1017 b 656 1002 572 1017 615 1012 b 763 954 696 992 732 976 b 838 867 794 932 819 903 b 867 736 857 832 867 788 b 835 628 867 694 856 658 b 768 556 815 597 792 573 b 771 524 751 544 752 533 m 513 631 b 557 652 531 631 546 638 b 574 700 568 666 574 682 b 553 743 574 717 567 731 b 515 761 540 755 527 761 l 383 761 b 360 751 374 761 366 758 b 350 728 353 745 350 737 l 350 664 b 360 640 350 655 353 647 b 383 631 366 634 374 631 m 383 401 b 360 392 374 401 366 398 b 350 368 353 385 350 377 l 350 289 b 360 265 350 280 353 272 b 383 256 366 259 374 256 l 539 256 b 586 276 556 256 571 263 b 608 325 601 290 608 306 b 587 376 608 342 601 359 b 529 401 572 393 553 401 "},"C":{"ha":1086,"x_min":0,"x_max":0,"o":"m 1057 271 b 968 152 1030 227 1000 188 b 859 61 936 116 899 86 b 725 3 819 36 774 17 b 563 -18 676 -11 622 -18 b 354 24 488 -18 419 -4 b 184 136 289 51 233 89 b 69 303 135 183 97 239 b 28 507 42 367 28 435 b 69 711 28 579 42 647 b 184 878 97 775 135 831 b 354 990 233 925 289 963 b 563 1032 419 1018 488 1032 b 728 1011 624 1032 679 1025 b 861 953 777 997 821 978 b 969 862 901 928 937 897 b 1057 744 1001 826 1030 787 b 1060 721 1062 737 1063 729 b 1043 703 1057 713 1051 706 l 846 625 b 818 625 837 621 827 621 b 797 642 809 629 802 634 b 700 740 770 684 738 717 b 563 774 662 762 616 774 b 463 751 527 774 494 766 b 382 692 432 737 405 717 b 328 607 359 668 341 639 b 308 507 315 575 308 541 b 328 406 308 472 315 438 b 382 322 341 374 359 346 b 463 264 405 298 432 279 b 563 242 494 249 527 242 b 701 278 613 242 659 254 b 799 374 742 303 775 335 b 819 390 803 381 810 387 b 846 390 828 394 837 394 l 1043 313 b 1060 295 1051 309 1057 303 b 1057 271 1063 287 1062 279 "},"D":{"ha":1092,"x_min":0,"x_max":0,"o":"m 78 983 b 88 1007 78 993 81 1000 b 111 1017 94 1013 102 1017 l 490 1017 b 847 889 636 1017 755 974 b 961 724 897 843 935 788 b 1000 508 987 660 1000 588 b 961 292 1000 429 987 357 b 847 126 935 228 897 173 b 688 32 801 85 748 53 b 490 0 628 11 563 0 l 111 0 b 88 10 102 0 94 3 b 78 33 81 16 78 24 m 490 256 b 571 265 516 256 543 259 b 646 302 599 272 624 284 b 701 378 668 320 686 346 b 722 507 715 411 722 454 b 701 635 722 560 715 603 b 645 712 686 668 668 694 b 570 749 622 730 597 742 b 490 758 543 755 516 758 l 386 758 b 363 749 377 758 369 755 b 353 725 356 742 353 734 l 353 289 b 363 265 353 280 356 272 b 386 256 369 259 377 256 "},"E":{"ha":949,"x_min":0,"x_max":0,"o":"m 349 669 b 358 646 349 660 352 652 b 382 636 365 639 373 636 l 758 636 b 782 626 768 636 775 633 b 792 603 788 620 792 612 l 792 411 b 782 388 792 402 788 394 b 758 378 775 381 768 378 l 382 378 b 358 368 373 378 365 375 b 349 344 352 362 349 354 l 349 292 b 358 268 349 282 352 275 b 382 258 365 262 373 258 l 814 258 b 838 249 823 258 831 255 b 847 225 844 242 847 234 l 847 33 b 838 10 847 24 844 16 b 814 0 831 3 823 0 l 107 0 b 83 10 98 0 90 3 b 74 33 77 16 74 24 l 74 983 b 83 1007 74 993 77 1000 b 107 1017 90 1013 98 1017 l 814 1017 b 838 1007 823 1017 831 1013 b 847 983 844 1000 847 993 l 847 794 b 838 771 847 785 844 777 b 814 761 831 764 823 761 l 382 761 b 358 751 373 761 365 758 b 349 728 352 745 349 737 "},"F":{"ha":906,"x_min":0,"x_max":0,"o":"m 350 668 b 360 644 350 659 353 651 b 383 635 366 638 374 635 l 758 635 b 782 625 768 635 775 631 b 792 601 788 619 792 611 l 792 407 b 782 383 792 398 788 390 b 758 374 775 377 768 374 l 383 374 b 360 364 374 374 366 370 b 350 340 353 357 350 350 l 350 33 b 340 10 350 24 347 16 b 317 0 334 3 326 0 l 107 0 b 83 10 98 0 90 3 b 74 33 77 16 74 24 l 74 983 b 83 1007 74 993 77 1000 b 107 1017 90 1013 98 1017 l 814 1017 b 838 1007 823 1017 831 1013 b 847 983 844 1000 847 993 l 847 793 b 838 769 847 784 844 776 b 814 760 831 763 823 760 l 383 760 b 360 750 374 760 366 756 b 350 726 353 744 350 736 "},"G":{"ha":1169,"x_min":0,"x_max":0,"o":"m 564 -18 b 356 24 490 -18 420 -4 b 185 136 291 51 234 89 b 70 303 137 183 98 239 b 28 507 42 367 28 435 b 70 711 28 579 42 647 b 185 878 98 775 137 831 b 356 992 234 926 291 964 b 564 1033 420 1019 490 1033 b 830 971 666 1033 754 1013 b 1014 799 905 929 967 872 b 1017 773 1019 791 1020 783 b 1003 751 1015 763 1010 756 l 836 644 b 811 640 829 640 820 638 b 788 653 802 641 794 645 b 691 738 759 688 727 716 b 564 769 655 759 613 769 b 465 748 529 769 496 762 b 383 690 434 734 406 714 b 328 606 360 666 342 638 b 308 507 315 574 308 541 b 328 407 308 472 315 438 b 383 324 342 375 360 348 b 465 267 406 301 434 282 b 564 246 496 253 529 246 b 668 265 599 246 634 252 b 750 329 702 278 730 300 b 751 349 755 337 755 343 b 732 358 748 355 741 358 l 572 358 b 549 368 563 358 555 362 b 539 392 542 375 539 382 l 539 557 b 549 581 539 566 542 574 b 572 590 555 587 563 590 l 1050 590 b 1074 581 1059 590 1067 587 b 1086 557 1081 575 1085 567 b 1089 499 1088 541 1089 522 b 1085 429 1089 477 1088 453 b 1031 251 1078 365 1060 306 b 916 110 1001 197 963 150 b 756 16 869 70 816 39 b 564 -18 695 -7 631 -18 "},"H":{"ha":1111,"x_min":0,"x_max":0,"o":"m 981 33 b 971 10 981 24 977 16 b 947 0 964 3 956 0 l 739 0 b 715 10 729 0 721 3 b 706 33 709 16 706 24 l 706 331 b 696 354 706 340 702 348 b 672 364 689 361 681 364 l 386 364 b 362 354 376 364 368 361 b 353 331 356 348 353 340 l 353 33 b 343 10 353 24 350 16 b 319 0 337 3 329 0 l 113 0 b 88 10 102 0 94 3 b 79 33 82 16 79 24 l 79 983 b 88 1007 79 993 82 1000 b 113 1017 94 1013 102 1017 l 319 1017 b 343 1007 329 1017 337 1013 b 353 983 350 1000 353 993 l 353 654 b 362 631 353 645 356 637 b 386 621 368 624 376 621 l 672 621 b 696 631 681 621 689 624 b 706 654 702 637 706 645 l 706 983 b 715 1007 706 993 709 1000 b 739 1017 721 1013 729 1017 l 947 1017 b 971 1007 956 1017 964 1013 b 981 983 977 1000 981 993 "},"I":{"ha":472,"x_min":0,"x_max":0,"o":"m 119 0 b 95 10 109 0 101 3 b 86 33 89 16 86 24 l 86 982 b 95 1006 86 991 89 999 b 119 1015 101 1012 109 1015 l 329 1015 b 353 1006 338 1015 346 1012 b 363 982 359 999 363 991 l 363 33 b 353 10 363 24 359 16 b 329 0 346 3 338 0 "},"J":{"ha":846,"x_min":0,"x_max":0,"o":"m 733 390 b 705 224 733 329 724 274 b 626 94 686 174 659 131 b 503 11 592 58 551 31 b 344 -18 456 -8 403 -18 b 138 44 267 -18 198 3 b -6 215 77 85 30 142 b -7 241 -10 224 -11 232 b 11 261 -3 250 3 256 l 168 342 b 194 344 176 346 185 347 b 214 328 203 341 209 335 b 268 268 228 306 246 286 b 344 242 290 250 316 242 b 404 258 369 242 389 247 b 438 297 419 268 430 281 b 454 345 446 312 451 328 b 458 390 457 362 458 377 l 458 982 b 468 1006 458 991 462 999 b 492 1015 475 1012 482 1015 l 700 1015 b 724 1006 710 1015 718 1012 b 733 982 730 999 733 991 "},"K":{"ha":1021,"x_min":0,"x_max":0,"o":"m 376 326 b 360 335 370 334 365 337 b 354 318 356 333 354 327 l 354 33 b 344 10 354 24 351 16 b 321 0 338 3 330 0 l 113 0 b 88 10 102 0 94 3 b 79 33 82 16 79 24 l 79 983 b 88 1007 79 993 82 1000 b 113 1017 94 1013 102 1017 l 321 1017 b 344 1007 330 1017 338 1013 b 354 983 351 1000 354 993 l 354 664 b 360 648 354 655 356 649 b 374 657 363 647 368 650 l 624 989 b 647 1008 629 996 637 1003 b 678 1015 657 1013 668 1015 l 943 1015 b 963 1002 953 1015 960 1011 b 958 978 965 993 964 985 l 593 521 b 585 495 588 513 585 505 b 596 471 586 485 589 477 b 696 364 627 437 661 401 b 801 252 731 327 766 290 b 903 141 835 215 870 178 b 1000 39 937 104 969 70 b 1007 14 1006 31 1009 23 b 989 0 1005 5 999 0 l 701 0 b 670 7 691 0 681 2 b 646 25 659 12 651 18 "},"L":{"ha":854,"x_min":0,"x_max":0,"o":"m 833 33 b 824 10 833 24 830 16 b 800 0 817 3 809 0 l 107 0 b 83 10 97 0 89 3 b 74 33 77 16 74 24 l 74 983 b 83 1007 74 993 77 1000 b 107 1017 89 1013 97 1017 l 315 1017 b 339 1007 325 1017 332 1013 b 349 983 345 1000 349 993 l 349 289 b 358 265 349 280 352 272 b 382 256 364 259 372 256 l 800 256 b 824 246 809 256 817 252 b 833 222 830 239 833 231 "},"M":{"ha":1354,"x_min":0,"x_max":0,"o":"m 1210 33 b 1200 10 1210 24 1206 16 b 1176 0 1194 3 1186 0 l 967 0 b 943 10 957 0 950 3 b 933 33 937 16 933 24 l 933 481 b 921 496 933 490 929 495 b 900 486 913 497 906 494 l 667 110 b 644 99 662 102 655 99 b 621 110 634 99 626 102 l 388 486 b 368 496 383 494 376 497 b 356 481 360 495 356 490 l 356 33 b 346 10 356 24 352 16 b 322 0 339 3 331 0 l 113 0 b 89 10 103 0 95 3 b 79 33 82 16 79 24 l 79 982 b 89 1006 79 991 82 999 b 113 1015 95 1012 103 1015 l 307 1015 b 336 1007 316 1015 326 1013 b 358 988 346 1001 354 995 l 625 596 b 644 585 631 588 637 585 b 663 596 652 585 658 588 l 929 988 b 953 1007 935 995 943 1001 b 982 1015 963 1013 973 1015 l 1176 1015 b 1200 1006 1186 1015 1194 1012 b 1210 982 1206 999 1210 991 "},"N":{"ha":1164,"x_min":0,"x_max":0,"o":"m 1031 33 b 1021 10 1031 24 1027 16 b 997 0 1014 3 1006 0 l 792 0 b 763 8 782 0 773 3 b 739 28 752 14 744 20 l 376 538 b 359 547 371 545 365 548 b 350 531 353 545 350 540 l 350 33 b 340 10 350 24 347 16 b 317 0 334 3 326 0 l 110 0 b 86 10 100 0 93 3 b 76 33 80 16 76 24 l 76 983 b 86 1007 76 993 80 1000 b 110 1017 93 1013 100 1017 l 318 1017 b 347 1009 327 1017 337 1014 b 371 990 357 1004 365 998 l 732 481 b 749 471 738 473 743 470 b 758 486 755 472 758 477 l 758 983 b 768 1007 758 993 762 1000 b 792 1017 775 1013 782 1017 l 997 1017 b 1021 1007 1006 1017 1014 1013 b 1031 983 1027 1000 1031 993 "},"O":{"ha":1150,"x_min":0,"x_max":0,"o":"m 31 508 b 72 713 31 581 44 649 b 185 880 100 776 138 832 b 351 993 232 928 288 965 b 556 1035 415 1021 483 1035 b 760 993 628 1035 696 1021 b 927 880 824 965 879 928 b 1040 713 975 832 1013 776 b 1082 508 1068 649 1082 581 b 1040 304 1082 436 1068 368 b 927 137 1013 240 975 184 b 760 24 879 89 824 51 b 556 -18 696 -4 628 -18 b 351 24 483 -18 415 -4 b 185 137 288 51 232 89 b 72 304 138 184 100 240 b 31 508 44 368 31 436 m 306 508 b 325 408 306 473 312 440 b 378 325 338 377 356 349 b 458 267 401 301 428 282 b 556 246 489 253 521 246 b 653 267 590 246 622 253 b 733 325 683 282 710 301 b 788 408 756 349 775 377 b 807 508 800 440 807 473 b 788 608 807 543 800 576 b 733 691 775 640 756 667 b 653 748 710 715 683 734 b 556 769 622 762 590 769 b 458 748 521 769 489 762 b 378 691 428 734 401 715 b 325 608 356 667 338 640 b 306 508 312 576 306 543 "},"P":{"ha":942,"x_min":0,"x_max":0,"o":"m 383 274 b 360 264 374 274 366 270 b 350 240 353 257 350 250 l 350 33 b 340 10 350 24 347 16 b 317 0 334 3 326 0 l 107 0 b 83 10 98 0 90 3 b 74 33 77 16 74 24 l 74 983 b 83 1007 74 993 77 1000 b 107 1017 90 1013 98 1017 l 532 1017 b 678 988 584 1017 633 1007 b 798 907 724 968 764 941 b 878 788 832 873 859 833 b 908 642 898 742 908 694 b 883 497 908 590 900 541 b 808 380 867 452 841 413 b 681 302 774 347 732 321 b 504 274 631 283 572 274 m 383 761 b 360 751 374 761 366 758 b 350 728 353 745 350 737 l 350 564 b 360 540 350 555 353 547 b 383 531 366 534 374 531 l 532 531 b 609 565 567 531 593 542 b 633 642 625 587 633 613 b 626 685 633 656 631 671 b 603 724 621 700 613 713 b 565 751 593 735 580 744 b 514 761 550 758 533 761 "},"Q":{"ha":1149,"x_min":0,"x_max":0,"o":"m 1092 32 b 1082 8 1092 23 1088 15 b 1058 -1 1075 2 1068 -1 l 579 -1 b 336 40 486 -1 405 12 b 166 151 268 67 211 104 b 66 315 121 197 88 252 b 33 515 44 377 33 444 b 74 717 33 587 47 654 b 184 881 100 780 137 834 b 348 992 231 928 285 965 b 549 1033 410 1020 477 1033 b 750 992 620 1033 687 1020 b 915 881 813 965 868 928 b 1025 717 961 834 998 780 b 1065 515 1052 654 1065 587 b 1042 388 1065 471 1057 428 b 982 286 1026 348 1006 314 b 993 261 970 269 974 261 l 1058 261 b 1082 251 1068 261 1075 258 b 1092 228 1088 245 1092 237 m 549 269 b 642 290 582 269 613 276 b 719 343 672 303 697 321 b 772 421 742 365 759 391 b 790 515 784 450 790 482 b 772 610 790 549 784 580 b 719 690 759 641 742 667 b 642 743 697 712 672 730 b 549 763 613 756 582 763 b 455 743 515 763 484 756 b 378 690 426 730 400 712 b 326 610 356 667 338 641 b 307 515 313 580 307 549 b 326 421 307 482 313 450 b 378 343 338 391 356 365 b 455 290 400 321 426 303 b 549 269 484 276 515 269 "},"R":{"ha":1000,"x_min":0,"x_max":0,"o":"m 110 0 b 86 10 100 0 93 3 b 76 33 80 16 76 24 l 76 983 b 86 1007 76 993 80 1000 b 110 1017 93 1013 100 1017 l 542 1017 b 690 990 595 1017 645 1008 b 806 914 736 972 774 946 b 881 799 838 881 863 843 b 908 651 899 754 908 705 b 898 563 908 622 905 592 b 868 481 891 534 881 506 b 822 410 855 455 840 431 b 763 358 805 390 785 372 b 748 338 755 353 750 346 b 753 315 746 330 747 323 b 864 172 788 269 825 221 b 968 38 903 123 938 78 b 972 13 974 30 975 22 b 954 0 969 4 963 0 l 696 0 b 666 8 687 0 677 3 b 642 26 655 13 647 19 b 553 144 612 65 583 105 b 467 265 524 184 495 225 b 443 284 461 273 453 279 b 414 292 433 289 423 292 l 383 292 b 360 282 374 292 366 288 b 350 258 353 275 350 268 l 350 33 b 340 10 350 24 347 16 b 317 0 334 3 326 0 m 531 547 b 565 553 542 547 553 549 b 599 573 577 558 588 564 b 624 606 609 582 617 593 b 633 651 630 619 633 634 b 628 684 633 661 632 672 b 612 720 625 697 620 709 b 580 749 604 732 593 741 b 531 761 566 757 550 761 l 383 761 b 360 751 374 761 366 758 b 350 728 353 745 350 737 l 350 581 b 360 557 350 571 353 563 b 383 547 366 550 374 547 "},"S":{"ha":944,"x_min":0,"x_max":0,"o":"m 190 349 b 339 272 240 316 290 291 b 476 244 388 254 434 244 b 569 262 517 244 548 250 b 601 314 591 273 601 291 b 588 342 601 326 597 335 b 551 360 578 349 566 355 b 497 371 535 364 518 368 b 435 382 477 374 456 377 b 363 395 414 386 391 390 b 279 417 336 400 308 408 b 194 454 250 427 222 439 b 118 511 166 469 140 488 b 65 594 96 534 78 562 b 44 707 51 626 44 663 b 82 865 44 771 57 824 b 177 965 107 907 139 940 b 306 1016 216 989 258 1006 b 443 1031 353 1026 399 1031 b 652 997 521 1031 591 1019 b 829 897 714 974 773 941 b 842 874 837 891 841 883 b 835 849 843 864 840 856 l 726 694 b 704 681 721 687 713 682 b 679 686 695 679 687 681 b 547 749 632 716 588 737 b 435 768 506 762 469 768 b 399 767 425 768 413 768 b 361 762 386 767 373 765 b 331 746 349 759 339 753 b 319 715 323 738 319 728 b 349 681 319 702 329 691 b 415 654 368 670 390 662 b 488 637 440 647 464 641 b 532 629 511 633 525 630 b 642 601 565 623 602 613 b 753 545 681 588 719 570 b 841 449 788 521 817 489 b 876 301 865 410 876 361 b 847 158 876 246 867 198 b 766 58 828 117 801 84 b 641 1 731 32 690 13 b 479 -18 592 -12 538 -18 b 344 -6 431 -18 386 -14 b 228 26 303 2 264 13 b 127 76 192 40 158 57 b 42 136 96 95 68 115 b 29 159 34 142 30 149 b 36 185 28 169 31 177 l 143 339 b 165 353 149 346 156 351 b 190 349 175 355 183 353 "},"T":{"ha":864,"x_min":0,"x_max":0,"o":"m 604 761 b 581 751 595 761 587 758 b 571 728 574 745 571 737 l 571 33 b 562 10 571 24 568 16 b 538 0 556 3 548 0 l 329 0 b 306 10 320 0 312 3 b 296 33 299 16 296 24 l 296 728 b 287 751 296 737 293 745 b 263 761 281 758 273 761 l 65 761 b 42 771 56 761 48 764 b 32 794 35 777 32 785 l 32 983 b 42 1007 32 993 35 1000 b 65 1017 48 1013 56 1017 l 799 1017 b 823 1007 809 1017 817 1013 b 832 983 829 1000 832 993 l 832 794 b 823 771 832 785 829 777 b 799 761 817 764 809 761 "},"U":{"ha":1094,"x_min":0,"x_max":0,"o":"m 75 982 b 85 1006 75 991 78 999 b 108 1015 91 1012 99 1015 l 318 1015 b 342 1006 327 1015 335 1012 b 351 982 348 999 351 991 l 351 419 b 369 330 351 383 357 353 b 412 274 380 306 395 288 b 467 246 429 261 447 251 b 519 238 486 240 504 238 b 572 246 535 238 553 240 b 626 274 592 251 610 261 b 669 330 643 288 657 306 b 686 419 680 353 686 383 l 686 982 b 696 1006 686 991 689 999 b 719 1015 702 1012 710 1015 l 929 1015 b 953 1006 938 1015 946 1012 b 963 982 959 999 963 991 l 963 419 b 931 240 963 354 952 294 b 842 103 910 187 881 141 b 701 15 803 65 756 35 b 519 -17 647 -6 586 -17 b 338 15 453 -17 392 -6 b 197 103 283 35 236 65 b 107 240 158 141 128 187 b 75 419 86 294 75 354 l 75 982 "},"V":{"ha":1153,"x_min":0,"x_max":0,"o":"m -6 976 b -6 1004 -10 987 -10 996 b 18 1017 -2 1013 6 1017 l 244 1017 b 272 1008 254 1017 263 1014 b 292 986 280 1002 287 994 l 536 428 b 554 415 541 419 547 415 b 572 428 562 415 568 419 l 815 986 b 835 1008 820 994 827 1002 b 863 1017 844 1014 853 1017 l 1093 1017 b 1115 1005 1103 1017 1111 1013 b 1117 982 1120 997 1120 989 l 693 31 b 673 9 688 22 682 15 b 646 0 664 3 655 0 l 461 0 b 434 9 452 0 443 3 b 414 31 425 15 419 22 "},"W":{"ha":1586,"x_min":0,"x_max":0,"o":"m 1 976 b 1 1005 -3 988 -3 997 b 22 1017 5 1013 12 1017 l 249 1017 b 275 1008 258 1017 267 1014 b 292 986 283 1002 289 994 l 450 524 b 465 510 453 514 458 510 b 479 524 472 510 476 514 l 632 985 b 649 1008 635 994 640 1002 b 676 1017 657 1014 666 1017 l 861 1017 b 889 1008 871 1017 881 1014 b 906 985 897 1002 903 994 l 1058 521 b 1073 507 1061 512 1066 507 b 1089 521 1080 507 1085 512 l 1249 986 b 1267 1008 1252 994 1258 1002 b 1294 1017 1275 1014 1284 1017 l 1519 1017 b 1540 1005 1530 1017 1537 1013 b 1542 981 1544 997 1544 989 l 1206 32 b 1188 9 1202 23 1196 15 b 1160 0 1179 3 1170 0 l 981 0 b 953 9 970 0 961 3 b 936 32 944 15 939 23 l 783 494 b 769 508 781 504 776 508 b 754 494 762 508 757 504 l 601 32 b 585 9 599 23 593 15 b 557 0 576 3 567 0 l 378 0 b 350 10 368 0 358 3 b 335 32 342 17 337 25 l 1 976 "},"X":{"ha":1047,"x_min":0,"x_max":0,"o":"m -21 976 b -25 1001 -26 984 -28 992 b -7 1015 -22 1011 -16 1015 l 260 1015 b 289 1007 269 1015 279 1013 b 313 988 299 1001 307 995 l 486 733 b 506 722 492 726 498 722 b 525 733 513 722 519 726 b 613 862 555 775 584 818 b 699 989 642 906 671 948 b 722 1008 704 996 712 1003 b 751 1015 732 1013 742 1015 l 1017 1015 b 1036 1001 1028 1015 1034 1011 b 1031 976 1038 992 1036 984 l 685 529 b 676 503 679 522 676 513 b 685 476 676 493 679 484 l 1024 40 b 1027 15 1029 33 1030 24 b 1008 0 1024 5 1018 0 l 744 0 b 715 8 735 0 725 3 b 692 28 705 14 697 20 l 525 271 b 506 282 519 278 513 282 b 486 271 498 282 492 278 l 319 28 b 296 8 314 20 306 14 b 267 0 286 3 276 0 l 3 0 b -15 15 -6 0 -12 5 b -11 40 -18 24 -17 33 l 328 476 b 336 503 333 484 336 493 b 328 529 336 513 333 522 "},"Y":{"ha":985,"x_min":0,"x_max":0,"o":"m 625 414 b 613 383 620 406 616 395 b 607 351 609 371 607 361 l 607 33 b 597 10 607 24 604 16 b 574 0 591 3 583 0 l 364 0 b 340 10 355 0 347 3 b 331 33 334 16 331 24 l 331 350 b 326 383 331 359 329 370 b 314 413 322 395 319 405 b 144 693 258 508 202 601 b -29 976 86 785 28 879 b -32 1002 -34 985 -35 993 b -14 1015 -29 1011 -23 1015 l 233 1015 b 262 1007 243 1015 252 1013 b 283 986 272 1001 279 994 l 454 689 b 471 678 459 681 464 678 b 488 689 477 678 483 681 l 657 986 b 678 1007 662 994 669 1001 b 707 1015 688 1013 698 1015 l 957 1015 b 977 1006 966 1015 973 1012 b 972 976 981 999 980 989 "},"Z":{"ha":985,"x_min":0,"x_max":0,"o":"m 88 0 b 64 10 78 0 70 3 b 54 33 57 16 54 24 l 54 189 b 61 219 54 198 56 208 b 76 247 66 231 71 240 l 501 724 b 507 747 507 731 509 739 b 489 760 505 756 499 760 l 88 760 b 64 769 78 760 70 763 b 54 793 57 776 54 784 l 54 983 b 64 1007 54 993 57 1000 b 88 1017 70 1013 78 1017 l 874 1017 b 898 1007 884 1017 892 1013 b 907 983 904 1000 907 993 l 907 826 b 901 796 907 817 905 807 b 886 768 897 785 892 775 l 461 290 b 456 267 456 283 454 275 b 472 256 457 259 463 256 l 874 256 b 898 246 884 256 892 252 b 907 222 904 239 907 231 l 907 33 b 898 10 907 24 904 16 b 874 0 892 3 884 0 "},"[":{"ha":542,"x_min":0,"x_max":0,"o":"m 115 -197 b 92 -187 106 -197 98 -194 b 82 -164 85 -181 82 -173 l 82 1193 b 92 1217 82 1203 85 1211 b 115 1226 98 1223 106 1226 l 489 1226 b 513 1217 498 1226 506 1223 b 522 1193 519 1211 522 1203 l 522 1003 b 513 979 522 994 519 986 b 489 969 506 973 498 969 l 390 969 b 367 960 381 969 373 966 b 357 936 360 954 357 946 l 357 92 b 367 68 357 82 360 75 b 390 58 373 62 381 58 l 489 58 b 513 49 498 58 506 55 b 522 25 519 43 522 35 l 522 -164 b 513 -187 522 -173 519 -181 b 489 -197 506 -194 498 -197 "},"\\":{"ha":685,"x_min":0,"x_max":0,"o":"m 185 1144 b 212 1135 194 1144 203 1141 b 231 1114 221 1129 227 1122 l 696 -140 b 694 -162 699 -149 698 -156 b 674 -172 690 -169 683 -172 l 465 -172 b 438 -162 456 -172 447 -169 b 421 -140 429 -156 424 -149 l -43 1114 b -42 1135 -47 1122 -47 1129 b -22 1144 -38 1141 -31 1144 "},"]":{"ha":510,"x_min":0,"x_max":0,"o":"m 19 25 b 29 49 19 35 23 43 b 53 58 36 55 44 58 l 150 58 b 174 68 159 58 167 62 b 183 92 180 75 183 82 l 183 936 b 174 960 183 946 180 954 b 150 969 167 966 159 969 l 53 969 b 29 979 44 969 36 973 b 19 1003 23 986 19 994 l 19 1193 b 29 1217 19 1203 23 1211 b 53 1226 36 1223 44 1226 l 425 1226 b 449 1217 434 1226 442 1223 b 458 1193 455 1211 458 1203 l 458 -164 b 449 -187 458 -173 455 -181 b 425 -197 442 -194 434 -197 l 53 -197 b 29 -187 44 -197 36 -194 b 19 -164 23 -181 19 -173 "},"^":{"ha":840,"x_min":0,"x_max":0,"o":"m 419 682 b 406 694 416 690 411 694 b 393 682 401 694 397 690 l 311 497 b 292 476 307 489 301 482 b 265 467 284 470 275 467 l 43 467 b 22 476 33 467 26 470 b 24 497 19 482 19 489 l 269 996 b 290 1017 274 1004 281 1011 b 318 1025 298 1022 308 1025 l 497 1025 b 524 1017 506 1025 516 1022 b 544 996 533 1011 540 1004 l 790 497 b 792 476 795 489 795 482 b 772 467 788 470 781 467 l 549 467 b 520 476 538 467 529 470 b 501 497 511 482 505 489 "},"_":{"ha":878,"x_min":0,"x_max":0,"o":"m 71 -154 b 47 -144 62 -154 54 -151 b 38 -121 41 -138 38 -130 l 38 67 b 47 90 38 76 41 84 b 71 100 54 97 62 100 l 799 100 b 823 90 809 100 817 97 b 832 67 829 84 832 76 l 832 -121 b 823 -144 832 -130 829 -138 b 799 -154 817 -151 809 -154 "},"`":{"ha":456,"x_min":0,"x_max":0,"o":"m 268 965 b 237 972 259 965 248 967 b 208 986 225 976 216 981 l 8 1135 b 13 1168 -7 1148 -6 1159 l 213 1254 b 240 1256 221 1258 230 1258 b 264 1240 250 1253 258 1248 l 457 992 b 462 973 463 984 464 978 b 444 965 459 968 454 965 "},"a":{"ha":1090,"x_min":0,"x_max":0,"o":"m 375 985 b 394 1006 379 993 385 1000 b 422 1015 403 1012 412 1015 l 617 1015 b 644 1006 626 1015 635 1012 b 663 985 653 1000 659 993 l 1068 40 b 1066 14 1072 32 1071 23 b 1036 0 1061 5 1051 0 l 799 0 b 770 9 788 0 779 3 b 750 31 761 15 755 22 l 713 114 b 692 135 708 122 701 129 b 665 144 684 141 675 144 l 372 144 b 344 135 362 144 353 141 b 325 114 335 129 329 122 l 286 31 b 267 9 282 22 276 15 b 240 0 259 3 250 0 l 1 0 b -13 3 -3 0 -8 1 b -26 11 -18 5 -22 7 b -32 25 -29 15 -31 19 b -28 44 -33 31 -31 37 l 375 985 m 581 381 b 601 390 590 381 597 384 b 600 411 605 396 605 403 b 567 492 591 434 580 461 b 531 579 554 523 542 552 b 518 592 527 588 523 592 b 506 579 513 592 509 588 l 436 411 b 436 390 432 403 432 396 b 457 381 440 384 447 381 "},"b":{"ha":974,"x_min":0,"x_max":0,"o":"m 771 524 b 815 493 786 515 800 505 b 856 449 830 481 844 466 b 887 388 869 431 879 411 b 899 308 895 364 899 338 b 870 159 899 248 889 198 b 793 65 851 120 825 88 b 681 15 761 41 723 24 b 549 0 639 5 595 0 l 108 0 b 85 10 99 0 91 3 b 75 33 78 16 75 24 l 75 983 b 85 1007 75 993 78 1000 b 108 1017 91 1013 99 1017 l 528 1017 b 656 1002 572 1017 615 1012 b 763 954 696 992 732 976 b 838 867 794 932 819 903 b 867 736 857 832 867 788 b 835 628 867 694 856 658 b 768 556 815 597 792 573 b 771 524 751 544 752 533 m 513 631 b 557 652 531 631 546 638 b 574 700 568 666 574 682 b 553 743 574 717 567 731 b 515 761 540 755 527 761 l 383 761 b 360 751 374 761 366 758 b 350 728 353 745 350 737 l 350 664 b 360 640 350 655 353 647 b 383 631 366 634 374 631 m 383 401 b 360 392 374 401 366 398 b 350 368 353 385 350 377 l 350 289 b 360 265 350 280 353 272 b 383 256 366 259 374 256 l 539 256 b 586 276 556 256 571 263 b 608 325 601 290 608 306 b 587 376 608 342 601 359 b 529 401 572 393 553 401 "},"c":{"ha":1086,"x_min":0,"x_max":0,"o":"m 1057 271 b 968 152 1030 227 1000 188 b 859 61 936 116 899 86 b 725 3 819 36 774 17 b 563 -18 676 -11 622 -18 b 354 24 488 -18 419 -4 b 184 136 289 51 233 89 b 69 303 135 183 97 239 b 28 507 42 367 28 435 b 69 711 28 579 42 647 b 184 878 97 775 135 831 b 354 990 233 925 289 963 b 563 1032 419 1018 488 1032 b 728 1011 624 1032 679 1025 b 861 953 777 997 821 978 b 969 862 901 928 937 897 b 1057 744 1001 826 1030 787 b 1060 721 1062 737 1063 729 b 1043 703 1057 713 1051 706 l 846 625 b 818 625 837 621 827 621 b 797 642 809 629 802 634 b 700 740 770 684 738 717 b 563 774 662 762 616 774 b 463 751 527 774 494 766 b 382 692 432 737 405 717 b 328 607 359 668 341 639 b 308 507 315 575 308 541 b 328 406 308 472 315 438 b 382 322 341 374 359 346 b 463 264 405 298 432 279 b 563 242 494 249 527 242 b 701 278 613 242 659 254 b 799 374 742 303 775 335 b 819 390 803 381 810 387 b 846 390 828 394 837 394 l 1043 313 b 1060 295 1051 309 1057 303 b 1057 271 1063 287 1062 279 "},"d":{"ha":1092,"x_min":0,"x_max":0,"o":"m 78 983 b 88 1007 78 993 81 1000 b 111 1017 94 1013 102 1017 l 490 1017 b 847 889 636 1017 755 974 b 961 724 897 843 935 788 b 1000 508 987 660 1000 588 b 961 292 1000 429 987 357 b 847 126 935 228 897 173 b 688 32 801 85 748 53 b 490 0 628 11 563 0 l 111 0 b 88 10 102 0 94 3 b 78 33 81 16 78 24 m 490 256 b 571 265 516 256 543 259 b 646 302 599 272 624 284 b 701 378 668 320 686 346 b 722 507 715 411 722 454 b 701 635 722 560 715 603 b 645 712 686 668 668 694 b 570 749 622 730 597 742 b 490 758 543 755 516 758 l 386 758 b 363 749 377 758 369 755 b 353 725 356 742 353 734 l 353 289 b 363 265 353 280 356 272 b 386 256 369 259 377 256 "},"e":{"ha":949,"x_min":0,"x_max":0,"o":"m 349 669 b 358 646 349 660 352 652 b 382 636 365 639 373 636 l 758 636 b 782 626 768 636 775 633 b 792 603 788 620 792 612 l 792 411 b 782 388 792 402 788 394 b 758 378 775 381 768 378 l 382 378 b 358 368 373 378 365 375 b 349 344 352 362 349 354 l 349 292 b 358 268 349 282 352 275 b 382 258 365 262 373 258 l 814 258 b 838 249 823 258 831 255 b 847 225 844 242 847 234 l 847 33 b 838 10 847 24 844 16 b 814 0 831 3 823 0 l 107 0 b 83 10 98 0 90 3 b 74 33 77 16 74 24 l 74 983 b 83 1007 74 993 77 1000 b 107 1017 90 1013 98 1017 l 814 1017 b 838 1007 823 1017 831 1013 b 847 983 844 1000 847 993 l 847 794 b 838 771 847 785 844 777 b 814 761 831 764 823 761 l 382 761 b 358 751 373 761 365 758 b 349 728 352 745 349 737 "},"f":{"ha":906,"x_min":0,"x_max":0,"o":"m 350 668 b 360 644 350 659 353 651 b 383 635 366 638 374 635 l 758 635 b 782 625 768 635 775 631 b 792 601 788 619 792 611 l 792 407 b 782 383 792 398 788 390 b 758 374 775 377 768 374 l 383 374 b 360 364 374 374 366 370 b 350 340 353 357 350 350 l 350 33 b 340 10 350 24 347 16 b 317 0 334 3 326 0 l 107 0 b 83 10 98 0 90 3 b 74 33 77 16 74 24 l 74 983 b 83 1007 74 993 77 1000 b 107 1017 90 1013 98 1017 l 814 1017 b 838 1007 823 1017 831 1013 b 847 983 844 1000 847 993 l 847 793 b 838 769 847 784 844 776 b 814 760 831 763 823 760 l 383 760 b 360 750 374 760 366 756 b 350 726 353 744 350 736 "},"g":{"ha":1169,"x_min":0,"x_max":0,"o":"m 564 -18 b 356 24 490 -18 420 -4 b 185 136 291 51 234 89 b 70 303 137 183 98 239 b 28 507 42 367 28 435 b 70 711 28 579 42 647 b 185 878 98 775 137 831 b 356 992 234 926 291 964 b 564 1033 420 1019 490 1033 b 830 971 666 1033 754 1013 b 1014 799 905 929 967 872 b 1017 773 1019 791 1020 783 b 1003 751 1015 763 1010 756 l 836 644 b 811 640 829 640 820 638 b 788 653 802 641 794 645 b 691 738 759 688 727 716 b 564 769 655 759 613 769 b 465 748 529 769 496 762 b 383 690 434 734 406 714 b 328 606 360 666 342 638 b 308 507 315 574 308 541 b 328 407 308 472 315 438 b 383 324 342 375 360 348 b 465 267 406 301 434 282 b 564 246 496 253 529 246 b 668 265 599 246 634 252 b 750 329 702 278 730 300 b 751 349 755 337 755 343 b 732 358 748 355 741 358 l 572 358 b 549 368 563 358 555 362 b 539 392 542 375 539 382 l 539 557 b 549 581 539 566 542 574 b 572 590 555 587 563 590 l 1050 590 b 1074 581 1059 590 1067 587 b 1086 557 1081 575 1085 567 b 1089 499 1088 541 1089 522 b 1085 429 1089 477 1088 453 b 1031 251 1078 365 1060 306 b 916 110 1001 197 963 150 b 756 16 869 70 816 39 b 564 -18 695 -7 631 -18 "},"h":{"ha":1111,"x_min":0,"x_max":0,"o":"m 981 33 b 971 10 981 24 977 16 b 947 0 964 3 956 0 l 739 0 b 715 10 729 0 721 3 b 706 33 709 16 706 24 l 706 331 b 696 354 706 340 702 348 b 672 364 689 361 681 364 l 386 364 b 362 354 376 364 368 361 b 353 331 356 348 353 340 l 353 33 b 343 10 353 24 350 16 b 319 0 337 3 329 0 l 113 0 b 88 10 102 0 94 3 b 79 33 82 16 79 24 l 79 983 b 88 1007 79 993 82 1000 b 113 1017 94 1013 102 1017 l 319 1017 b 343 1007 329 1017 337 1013 b 353 983 350 1000 353 993 l 353 654 b 362 631 353 645 356 637 b 386 621 368 624 376 621 l 672 621 b 696 631 681 621 689 624 b 706 654 702 637 706 645 l 706 983 b 715 1007 706 993 709 1000 b 739 1017 721 1013 729 1017 l 947 1017 b 971 1007 956 1017 964 1013 b 981 983 977 1000 981 993 "},"i":{"ha":472,"x_min":0,"x_max":0,"o":"m 119 0 b 95 10 109 0 101 3 b 86 33 89 16 86 24 l 86 982 b 95 1006 86 991 89 999 b 119 1015 101 1012 109 1015 l 329 1015 b 353 1006 338 1015 346 1012 b 363 982 359 999 363 991 l 363 33 b 353 10 363 24 359 16 b 329 0 346 3 338 0 "},"j":{"ha":846,"x_min":0,"x_max":0,"o":"m 733 390 b 705 224 733 329 724 274 b 626 94 686 174 659 131 b 503 11 592 58 551 31 b 344 -18 456 -8 403 -18 b 138 44 267 -18 198 3 b -6 215 77 85 30 142 b -7 241 -10 224 -11 232 b 11 261 -3 250 3 256 l 168 342 b 194 344 176 346 185 347 b 214 328 203 341 209 335 b 268 268 228 306 246 286 b 344 242 290 250 316 242 b 404 258 369 242 389 247 b 438 297 419 268 430 281 b 454 345 446 312 451 328 b 458 390 457 362 458 377 l 458 982 b 468 1006 458 991 462 999 b 492 1015 475 1012 482 1015 l 700 1015 b 724 1006 710 1015 718 1012 b 733 982 730 999 733 991 "},"k":{"ha":1021,"x_min":0,"x_max":0,"o":"m 376 326 b 360 335 370 334 365 337 b 354 318 356 333 354 327 l 354 33 b 344 10 354 24 351 16 b 321 0 338 3 330 0 l 113 0 b 88 10 102 0 94 3 b 79 33 82 16 79 24 l 79 983 b 88 1007 79 993 82 1000 b 113 1017 94 1013 102 1017 l 321 1017 b 344 1007 330 1017 338 1013 b 354 983 351 1000 354 993 l 354 664 b 360 648 354 655 356 649 b 374 657 363 647 368 650 l 624 989 b 647 1008 629 996 637 1003 b 678 1015 657 1013 668 1015 l 943 1015 b 963 1002 953 1015 960 1011 b 958 978 965 993 964 985 l 593 521 b 585 495 588 513 585 505 b 596 471 586 485 589 477 b 696 364 627 437 661 401 b 801 252 731 327 766 290 b 903 141 835 215 870 178 b 1000 39 937 104 969 70 b 1007 14 1006 31 1009 23 b 989 0 1005 5 999 0 l 701 0 b 670 7 691 0 681 2 b 646 25 659 12 651 18 "},"l":{"ha":854,"x_min":0,"x_max":0,"o":"m 833 33 b 824 10 833 24 830 16 b 800 0 817 3 809 0 l 107 0 b 83 10 97 0 89 3 b 74 33 77 16 74 24 l 74 983 b 83 1007 74 993 77 1000 b 107 1017 89 1013 97 1017 l 315 1017 b 339 1007 325 1017 332 1013 b 349 983 345 1000 349 993 l 349 289 b 358 265 349 280 352 272 b 382 256 364 259 372 256 l 800 256 b 824 246 809 256 817 252 b 833 222 830 239 833 231 "},"m":{"ha":1354,"x_min":0,"x_max":0,"o":"m 1210 33 b 1200 10 1210 24 1206 16 b 1176 0 1194 3 1186 0 l 967 0 b 943 10 957 0 950 3 b 933 33 937 16 933 24 l 933 481 b 921 496 933 490 929 495 b 900 486 913 497 906 494 l 667 110 b 644 99 662 102 655 99 b 621 110 634 99 626 102 l 388 486 b 368 496 383 494 376 497 b 356 481 360 495 356 490 l 356 33 b 346 10 356 24 352 16 b 322 0 339 3 331 0 l 113 0 b 89 10 103 0 95 3 b 79 33 82 16 79 24 l 79 982 b 89 1006 79 991 82 999 b 113 1015 95 1012 103 1015 l 307 1015 b 336 1007 316 1015 326 1013 b 358 988 346 1001 354 995 l 625 596 b 644 585 631 588 637 585 b 663 596 652 585 658 588 l 929 988 b 953 1007 935 995 943 1001 b 982 1015 963 1013 973 1015 l 1176 1015 b 1200 1006 1186 1015 1194 1012 b 1210 982 1206 999 1210 991 "},"n":{"ha":1164,"x_min":0,"x_max":0,"o":"m 1031 33 b 1021 10 1031 24 1027 16 b 997 0 1014 3 1006 0 l 792 0 b 763 8 782 0 773 3 b 739 28 752 14 744 20 l 376 538 b 359 547 371 545 365 548 b 350 531 353 545 350 540 l 350 33 b 340 10 350 24 347 16 b 317 0 334 3 326 0 l 110 0 b 86 10 100 0 93 3 b 76 33 80 16 76 24 l 76 983 b 86 1007 76 993 80 1000 b 110 1017 93 1013 100 1017 l 318 1017 b 347 1009 327 1017 337 1014 b 371 990 357 1004 365 998 l 732 481 b 749 471 738 473 743 470 b 758 486 755 472 758 477 l 758 983 b 768 1007 758 993 762 1000 b 792 1017 775 1013 782 1017 l 997 1017 b 1021 1007 1006 1017 1014 1013 b 1031 983 1027 1000 1031 993 "},"o":{"ha":1150,"x_min":0,"x_max":0,"o":"m 31 508 b 72 713 31 581 44 649 b 185 880 100 776 138 832 b 351 993 232 928 288 965 b 556 1035 415 1021 483 1035 b 760 993 628 1035 696 1021 b 927 880 824 965 879 928 b 1040 713 975 832 1013 776 b 1082 508 1068 649 1082 581 b 1040 304 1082 436 1068 368 b 927 137 1013 240 975 184 b 760 24 879 89 824 51 b 556 -18 696 -4 628 -18 b 351 24 483 -18 415 -4 b 185 137 288 51 232 89 b 72 304 138 184 100 240 b 31 508 44 368 31 436 m 306 508 b 325 408 306 473 312 440 b 378 325 338 377 356 349 b 458 267 401 301 428 282 b 556 246 489 253 521 246 b 653 267 590 246 622 253 b 733 325 683 282 710 301 b 788 408 756 349 775 377 b 807 508 800 440 807 473 b 788 608 807 543 800 576 b 733 691 775 640 756 667 b 653 748 710 715 683 734 b 556 769 622 762 590 769 b 458 748 521 769 489 762 b 378 691 428 734 401 715 b 325 608 356 667 338 640 b 306 508 312 576 306 543 "},"p":{"ha":942,"x_min":0,"x_max":0,"o":"m 383 274 b 360 264 374 274 366 270 b 350 240 353 257 350 250 l 350 33 b 340 10 350 24 347 16 b 317 0 334 3 326 0 l 107 0 b 83 10 98 0 90 3 b 74 33 77 16 74 24 l 74 983 b 83 1007 74 993 77 1000 b 107 1017 90 1013 98 1017 l 532 1017 b 678 988 584 1017 633 1007 b 798 907 724 968 764 941 b 878 788 832 873 859 833 b 908 642 898 742 908 694 b 883 497 908 590 900 541 b 808 380 867 452 841 413 b 681 302 774 347 732 321 b 504 274 631 283 572 274 m 383 761 b 360 751 374 761 366 758 b 350 728 353 745 350 737 l 350 564 b 360 540 350 555 353 547 b 383 531 366 534 374 531 l 532 531 b 609 565 567 531 593 542 b 633 642 625 587 633 613 b 626 685 633 656 631 671 b 603 724 621 700 613 713 b 565 751 593 735 580 744 b 514 761 550 758 533 761 "},"q":{"ha":1149,"x_min":0,"x_max":0,"o":"m 1092 32 b 1082 8 1092 23 1088 15 b 1058 -1 1075 2 1068 -1 l 579 -1 b 336 40 486 -1 405 12 b 166 151 268 67 211 104 b 66 315 121 197 88 252 b 33 515 44 377 33 444 b 74 717 33 587 47 654 b 184 881 100 780 137 834 b 348 992 231 928 285 965 b 549 1033 410 1020 477 1033 b 750 992 620 1033 687 1020 b 915 881 813 965 868 928 b 1025 717 961 834 998 780 b 1065 515 1052 654 1065 587 b 1042 388 1065 471 1057 428 b 982 286 1026 348 1006 314 b 993 261 970 269 974 261 l 1058 261 b 1082 251 1068 261 1075 258 b 1092 228 1088 245 1092 237 m 549 269 b 642 290 582 269 613 276 b 719 343 672 303 697 321 b 772 421 742 365 759 391 b 790 515 784 450 790 482 b 772 610 790 549 784 580 b 719 690 759 641 742 667 b 642 743 697 712 672 730 b 549 763 613 756 582 763 b 455 743 515 763 484 756 b 378 690 426 730 400 712 b 326 610 356 667 338 641 b 307 515 313 580 307 549 b 326 421 307 482 313 450 b 378 343 338 391 356 365 b 455 290 400 321 426 303 b 549 269 484 276 515 269 "},"r":{"ha":1000,"x_min":0,"x_max":0,"o":"m 110 0 b 86 10 100 0 93 3 b 76 33 80 16 76 24 l 76 983 b 86 1007 76 993 80 1000 b 110 1017 93 1013 100 1017 l 542 1017 b 690 990 595 1017 645 1008 b 806 914 736 972 774 946 b 881 799 838 881 863 843 b 908 651 899 754 908 705 b 898 563 908 622 905 592 b 868 481 891 534 881 506 b 822 410 855 455 840 431 b 763 358 805 390 785 372 b 748 338 755 353 750 346 b 753 315 746 330 747 323 b 864 172 788 269 825 221 b 968 38 903 123 938 78 b 972 13 974 30 975 22 b 954 0 969 4 963 0 l 696 0 b 666 8 687 0 677 3 b 642 26 655 13 647 19 b 553 144 612 65 583 105 b 467 265 524 184 495 225 b 443 284 461 273 453 279 b 414 292 433 289 423 292 l 383 292 b 360 282 374 292 366 288 b 350 258 353 275 350 268 l 350 33 b 340 10 350 24 347 16 b 317 0 334 3 326 0 m 531 547 b 565 553 542 547 553 549 b 599 573 577 558 588 564 b 624 606 609 582 617 593 b 633 651 630 619 633 634 b 628 684 633 661 632 672 b 612 720 625 697 620 709 b 580 749 604 732 593 741 b 531 761 566 757 550 761 l 383 761 b 360 751 374 761 366 758 b 350 728 353 745 350 737 l 350 581 b 360 557 350 571 353 563 b 383 547 366 550 374 547 "},"s":{"ha":944,"x_min":0,"x_max":0,"o":"m 190 349 b 339 272 240 316 290 291 b 476 244 388 254 434 244 b 569 262 517 244 548 250 b 601 314 591 273 601 291 b 588 342 601 326 597 335 b 551 360 578 349 566 355 b 497 371 535 364 518 368 b 435 382 477 374 456 377 b 363 395 414 386 391 390 b 279 417 336 400 308 408 b 194 454 250 427 222 439 b 118 511 166 469 140 488 b 65 594 96 534 78 562 b 44 707 51 626 44 663 b 82 865 44 771 57 824 b 177 965 107 907 139 940 b 306 1016 216 989 258 1006 b 443 1031 353 1026 399 1031 b 652 997 521 1031 591 1019 b 829 897 714 974 773 941 b 842 874 837 891 841 883 b 835 849 843 864 840 856 l 726 694 b 704 681 721 687 713 682 b 679 686 695 679 687 681 b 547 749 632 716 588 737 b 435 768 506 762 469 768 b 399 767 425 768 413 768 b 361 762 386 767 373 765 b 331 746 349 759 339 753 b 319 715 323 738 319 728 b 349 681 319 702 329 691 b 415 654 368 670 390 662 b 488 637 440 647 464 641 b 532 629 511 633 525 630 b 642 601 565 623 602 613 b 753 545 681 588 719 570 b 841 449 788 521 817 489 b 876 301 865 410 876 361 b 847 158 876 246 867 198 b 766 58 828 117 801 84 b 641 1 731 32 690 13 b 479 -18 592 -12 538 -18 b 344 -6 431 -18 386 -14 b 228 26 303 2 264 13 b 127 76 192 40 158 57 b 42 136 96 95 68 115 b 29 159 34 142 30 149 b 36 185 28 169 31 177 l 143 339 b 165 353 149 346 156 351 b 190 349 175 355 183 353 "},"t":{"ha":864,"x_min":0,"x_max":0,"o":"m 604 761 b 581 751 595 761 587 758 b 571 728 574 745 571 737 l 571 33 b 562 10 571 24 568 16 b 538 0 556 3 548 0 l 329 0 b 306 10 320 0 312 3 b 296 33 299 16 296 24 l 296 728 b 287 751 296 737 293 745 b 263 761 281 758 273 761 l 65 761 b 42 771 56 761 48 764 b 32 794 35 777 32 785 l 32 983 b 42 1007 32 993 35 1000 b 65 1017 48 1013 56 1017 l 799 1017 b 823 1007 809 1017 817 1013 b 832 983 829 1000 832 993 l 832 794 b 823 771 832 785 829 777 b 799 761 817 764 809 761 "},"u":{"ha":1094,"x_min":0,"x_max":0,"o":"m 75 982 b 85 1006 75 991 78 999 b 108 1015 91 1012 99 1015 l 318 1015 b 342 1006 327 1015 335 1012 b 351 982 348 999 351 991 l 351 419 b 369 330 351 383 357 353 b 412 274 380 306 395 288 b 467 246 429 261 447 251 b 519 238 486 240 504 238 b 572 246 535 238 553 240 b 626 274 592 251 610 261 b 669 330 643 288 657 306 b 686 419 680 353 686 383 l 686 982 b 696 1006 686 991 689 999 b 719 1015 702 1012 710 1015 l 929 1015 b 953 1006 938 1015 946 1012 b 963 982 959 999 963 991 l 963 419 b 931 240 963 354 952 294 b 842 103 910 187 881 141 b 701 15 803 65 756 35 b 519 -17 647 -6 586 -17 b 338 15 453 -17 392 -6 b 197 103 283 35 236 65 b 107 240 158 141 128 187 b 75 419 86 294 75 354 l 75 982 "},"v":{"ha":1153,"x_min":0,"x_max":0,"o":"m -6 976 b -6 1004 -10 987 -10 996 b 18 1017 -2 1013 6 1017 l 244 1017 b 272 1008 254 1017 263 1014 b 292 986 280 1002 287 994 l 536 428 b 554 415 541 419 547 415 b 572 428 562 415 568 419 l 815 986 b 835 1008 820 994 827 1002 b 863 1017 844 1014 853 1017 l 1093 1017 b 1115 1005 1103 1017 1111 1013 b 1117 982 1120 997 1120 989 l 693 31 b 673 9 688 22 682 15 b 646 0 664 3 655 0 l 461 0 b 434 9 452 0 443 3 b 414 31 425 15 419 22 "},"w":{"ha":1586,"x_min":0,"x_max":0,"o":"m 1 976 b 1 1005 -3 988 -3 997 b 22 1017 5 1013 12 1017 l 249 1017 b 275 1008 258 1017 267 1014 b 292 986 283 1002 289 994 l 450 524 b 465 510 453 514 458 510 b 479 524 472 510 476 514 l 632 985 b 649 1008 635 994 640 1002 b 676 1017 657 1014 666 1017 l 861 1017 b 889 1008 871 1017 881 1014 b 906 985 897 1002 903 994 l 1058 521 b 1073 507 1061 512 1066 507 b 1089 521 1080 507 1085 512 l 1249 986 b 1267 1008 1252 994 1258 1002 b 1294 1017 1275 1014 1284 1017 l 1519 1017 b 1540 1005 1530 1017 1537 1013 b 1542 981 1544 997 1544 989 l 1206 32 b 1188 9 1202 23 1196 15 b 1160 0 1179 3 1170 0 l 981 0 b 953 9 970 0 961 3 b 936 32 944 15 939 23 l 783 494 b 769 508 781 504 776 508 b 754 494 762 508 757 504 l 601 32 b 585 9 599 23 593 15 b 557 0 576 3 567 0 l 378 0 b 350 10 368 0 358 3 b 335 32 342 17 337 25 l 1 976 "},"x":{"ha":1047,"x_min":0,"x_max":0,"o":"m -21 976 b -25 1001 -26 984 -28 992 b -7 1015 -22 1011 -16 1015 l 260 1015 b 289 1007 269 1015 279 1013 b 313 988 299 1001 307 995 l 486 733 b 506 722 492 726 498 722 b 525 733 513 722 519 726 b 613 862 555 775 584 818 b 699 989 642 906 671 948 b 722 1008 704 996 712 1003 b 751 1015 732 1013 742 1015 l 1017 1015 b 1036 1001 1028 1015 1034 1011 b 1031 976 1038 992 1036 984 l 685 529 b 676 503 679 522 676 513 b 685 476 676 493 679 484 l 1024 40 b 1027 15 1029 33 1030 24 b 1008 0 1024 5 1018 0 l 744 0 b 715 8 735 0 725 3 b 692 28 705 14 697 20 l 525 271 b 506 282 519 278 513 282 b 486 271 498 282 492 278 l 319 28 b 296 8 314 20 306 14 b 267 0 286 3 276 0 l 3 0 b -15 15 -6 0 -12 5 b -11 40 -18 24 -17 33 l 328 476 b 336 503 333 484 336 493 b 328 529 336 513 333 522 "},"y":{"ha":985,"x_min":0,"x_max":0,"o":"m 625 414 b 613 383 620 406 616 395 b 607 351 609 371 607 361 l 607 33 b 597 10 607 24 604 16 b 574 0 591 3 583 0 l 364 0 b 340 10 355 0 347 3 b 331 33 334 16 331 24 l 331 350 b 326 383 331 359 329 370 b 314 413 322 395 319 405 b 144 693 258 508 202 601 b -29 976 86 785 28 879 b -32 1002 -34 985 -35 993 b -14 1015 -29 1011 -23 1015 l 233 1015 b 262 1007 243 1015 252 1013 b 283 986 272 1001 279 994 l 454 689 b 471 678 459 681 464 678 b 488 689 477 678 483 681 l 657 986 b 678 1007 662 994 669 1001 b 707 1015 688 1013 698 1015 l 957 1015 b 977 1006 966 1015 973 1012 b 972 976 981 999 980 989 "},"z":{"ha":985,"x_min":0,"x_max":0,"o":"m 88 0 b 64 10 78 0 70 3 b 54 33 57 16 54 24 l 54 189 b 61 219 54 198 56 208 b 76 247 66 231 71 240 l 501 724 b 507 747 507 731 509 739 b 489 760 505 756 499 760 l 88 760 b 64 769 78 760 70 763 b 54 793 57 776 54 784 l 54 983 b 64 1007 54 993 57 1000 b 88 1017 70 1013 78 1017 l 874 1017 b 898 1007 884 1017 892 1013 b 907 983 904 1000 907 993 l 907 826 b 901 796 907 817 905 807 b 886 768 897 785 892 775 l 461 290 b 456 267 456 283 454 275 b 472 256 457 259 463 256 l 874 256 b 898 246 884 256 892 252 b 907 222 904 239 907 231 l 907 33 b 898 10 907 24 904 16 b 874 0 892 3 884 0 "},"{":{"ha":572,"x_min":0,"x_max":0,"o":"m 556 -183 b 546 -207 556 -193 552 -200 b 522 -215 539 -213 531 -216 b 444 -208 499 -214 473 -212 b 356 -185 416 -203 386 -196 b 266 -143 326 -175 296 -161 b 183 -75 236 -125 208 -103 b 135 9 162 -49 146 -21 b 111 102 124 39 116 70 b 103 198 106 134 104 166 b 101 290 102 230 101 261 b 98 348 102 315 101 334 b 58 379 95 361 81 372 b 35 394 49 382 41 387 b 25 419 28 402 25 410 l 25 613 b 35 638 25 623 28 631 b 58 654 41 645 49 650 b 97 696 80 662 92 675 b 101 778 101 716 102 744 b 103 845 101 796 102 819 b 111 929 104 872 106 900 b 135 1018 116 959 124 988 b 183 1101 146 1048 162 1075 b 267 1174 210 1132 238 1156 b 353 1216 295 1192 324 1206 b 440 1236 383 1226 412 1232 b 524 1242 469 1240 497 1242 b 547 1233 533 1242 541 1239 b 557 1208 554 1227 557 1219 l 557 1007 b 547 984 557 998 554 990 b 524 974 541 978 533 975 b 441 960 489 973 462 968 b 394 919 420 951 404 938 b 374 843 383 900 376 875 b 372 725 371 812 370 772 b 369 677 372 711 371 695 b 359 623 366 659 363 641 b 342 571 355 605 349 588 b 317 531 334 554 326 541 b 315 492 305 517 304 504 b 340 452 325 481 333 467 b 356 403 347 437 352 420 b 365 350 360 385 363 368 b 368 301 367 332 368 316 b 374 190 368 258 370 221 b 396 115 377 160 385 134 b 443 69 407 95 423 80 b 524 53 463 59 490 54 b 547 42 533 52 541 48 b 557 18 554 36 557 28 "},"|":{"ha":397,"x_min":0,"x_max":0,"o":"m 108 -133 b 85 -124 99 -133 91 -130 b 75 -100 78 -117 75 -109 l 75 1114 b 85 1138 75 1123 78 1131 b 108 1147 91 1144 99 1147 l 268 1147 b 292 1138 278 1147 286 1144 b 301 1114 298 1131 301 1123 l 301 -100 b 292 -124 301 -109 298 -117 b 268 -133 286 -130 278 -133 "},"}":{"ha":575,"x_min":0,"x_max":0,"o":"m 257 531 b 231 571 247 541 238 554 b 214 623 224 588 219 605 b 203 677 209 641 206 659 b 200 725 201 695 200 711 b 198 843 201 772 200 812 b 178 919 196 875 189 900 b 131 960 168 938 152 951 b 49 974 110 968 83 973 b 25 984 39 975 31 978 b 15 1007 19 990 15 998 l 15 1208 b 25 1233 15 1219 19 1227 b 49 1242 31 1239 39 1242 b 133 1236 76 1242 105 1240 b 220 1216 162 1232 191 1226 b 306 1174 249 1206 278 1192 b 389 1101 334 1156 362 1132 b 437 1018 409 1075 425 1048 b 461 929 448 988 456 959 b 469 845 466 900 469 872 b 471 778 470 819 471 796 b 476 696 471 744 473 716 b 515 654 480 675 493 662 b 538 638 524 650 531 645 b 547 613 544 631 547 623 l 547 419 b 538 394 547 410 544 402 b 515 379 532 387 525 382 b 476 348 492 372 479 361 b 471 290 472 334 471 315 b 469 198 471 261 470 230 b 461 102 469 166 466 134 b 437 9 456 70 448 39 b 389 -75 425 -21 409 -49 b 307 -143 364 -103 337 -125 b 217 -185 277 -161 247 -175 b 128 -208 186 -196 156 -203 b 50 -215 99 -212 73 -214 b 26 -207 41 -216 33 -213 b 17 -183 20 -200 17 -193 l 17 18 b 25 42 16 28 19 36 b 49 53 31 48 39 52 b 129 69 82 54 109 59 b 176 115 150 80 165 95 b 199 190 188 134 195 160 b 204 301 202 221 204 258 b 207 350 204 316 205 332 b 216 403 209 368 212 385 b 232 452 220 420 225 437 b 257 492 238 467 247 481 b 257 531 269 505 269 518 "},"~":{"ha":797,"x_min":0,"x_max":0,"o":"m 214 446 b 192 429 207 438 200 433 b 165 428 183 425 175 425 l 33 472 b 13 490 24 476 17 482 b 13 515 9 499 9 507 b 44 579 21 536 31 557 b 92 640 57 601 73 622 b 157 684 111 658 133 672 b 239 701 181 696 208 701 b 322 685 273 701 301 696 b 386 651 342 675 364 663 b 468 638 416 636 443 631 b 526 675 493 645 513 657 b 547 692 532 682 539 688 b 574 694 556 697 564 697 l 717 649 b 738 633 726 646 733 641 b 740 607 742 625 743 616 b 708 541 733 586 722 564 b 658 478 694 518 678 497 b 590 431 639 459 616 444 b 506 413 564 419 536 413 b 456 415 486 413 469 413 b 418 422 442 417 429 419 b 388 433 407 425 397 429 b 357 450 378 438 368 444 b 272 474 325 469 297 476 b 214 446 247 471 228 462 "},"¡":{"ha":407,"x_min":0,"x_max":0,"o":"m 76 0 b 52 10 66 0 58 3 b 44 33 46 16 44 24 l 79 632 b 90 656 80 641 84 649 b 115 665 97 662 105 665 l 269 665 b 293 656 279 665 287 662 b 304 632 300 649 303 641 l 339 33 b 331 10 340 24 337 16 b 308 0 325 3 318 0 m 89 757 b 65 767 79 757 71 760 b 56 790 59 773 56 781 l 56 982 b 65 1006 56 991 59 999 b 89 1015 71 1012 79 1015 l 297 1015 b 321 1006 306 1015 314 1012 b 331 982 327 999 331 991 l 331 790 b 321 767 331 781 327 773 b 297 757 314 760 306 757 "},"¢":{"ha":860,"x_min":0,"x_max":0,"o":"m 811 357 b 830 339 819 353 826 347 b 831 314 834 331 834 322 b 785 228 818 281 802 252 b 729 168 767 204 749 184 b 669 131 710 152 690 140 b 610 110 649 121 629 114 b 586 94 600 107 593 102 b 576 69 580 87 576 79 l 576 18 b 567 -6 576 9 573 1 b 543 -15 561 -12 553 -15 l 335 -15 b 311 -6 325 -15 318 -12 b 301 18 305 1 301 9 l 301 72 b 292 99 301 81 298 91 b 271 118 286 108 279 114 b 170 183 235 135 201 156 b 90 273 139 209 113 239 b 38 383 68 307 51 343 b 19 506 26 422 19 463 b 38 631 19 549 26 591 b 90 740 51 670 68 707 b 170 830 113 774 139 803 b 271 894 201 856 235 878 b 292 914 279 899 286 906 b 301 940 298 922 301 931 l 301 1000 b 311 1024 301 1009 305 1017 b 335 1033 318 1030 325 1033 l 543 1033 b 567 1024 553 1033 561 1030 b 576 1000 573 1017 576 1009 l 576 943 b 586 917 576 934 580 925 b 608 897 593 908 600 902 b 675 863 631 888 653 877 b 739 817 697 850 719 834 b 794 760 759 800 778 781 b 833 693 810 740 823 717 b 833 667 838 685 838 676 b 814 649 829 659 822 652 l 628 574 b 601 574 619 570 610 570 b 582 592 593 577 587 583 b 528 651 569 616 551 636 b 444 675 506 667 478 675 b 333 629 401 675 364 660 b 288 506 303 599 288 557 b 300 438 288 481 292 458 b 334 385 308 417 320 400 b 384 350 348 370 365 358 b 444 338 403 342 423 338 b 523 356 473 338 499 344 b 581 414 547 369 566 388 b 599 432 585 422 591 428 b 625 432 607 436 616 436 "},"£":{"ha":854,"x_min":0,"x_max":0,"o":"m 407 358 b 402 315 406 343 404 328 b 394 279 400 302 397 290 b 396 256 392 270 392 262 b 417 247 400 250 406 247 l 756 247 b 779 238 765 247 773 244 b 789 214 786 232 789 224 l 789 33 b 779 10 789 24 786 16 b 756 0 773 3 765 0 l 74 0 b 49 10 63 0 55 3 b 40 33 43 16 40 24 l 40 194 b 49 223 40 205 43 214 b 69 243 55 232 62 238 b 122 292 91 256 108 272 b 146 358 136 311 144 333 b 137 383 147 369 144 377 b 113 392 130 389 122 392 l 76 392 b 52 401 66 392 58 395 b 43 425 46 408 43 416 l 43 576 b 52 601 43 587 46 595 b 76 610 58 607 66 610 l 79 610 b 102 618 88 610 96 613 b 110 638 108 624 111 630 l 107 664 b 120 815 102 719 107 770 b 186 931 134 861 156 899 b 302 1006 217 963 255 988 b 465 1032 349 1023 403 1032 b 605 1007 518 1032 565 1024 b 710 942 645 990 680 969 b 783 850 739 915 764 884 b 828 744 803 816 818 781 b 824 718 830 735 828 726 b 804 701 819 710 813 704 l 628 647 b 602 651 619 645 610 647 b 586 669 594 655 589 661 b 537 750 574 702 558 729 b 465 782 516 771 492 782 b 408 771 441 782 422 778 b 378 741 394 763 384 753 b 369 697 372 728 369 714 b 374 643 369 679 371 662 b 388 619 375 634 380 626 b 414 610 395 613 404 610 l 619 610 b 643 601 629 610 637 607 b 653 576 650 595 653 587 l 653 425 b 643 401 653 416 650 408 b 619 392 637 395 629 392 l 442 392 b 417 383 431 392 423 389 b 407 358 411 377 408 369 "},"¥":{"ha":850,"x_min":0,"x_max":0,"o":"m 715 589 b 739 579 725 589 732 586 b 749 556 745 573 749 565 l 749 436 b 739 413 749 427 745 419 b 715 403 732 406 725 403 l 574 403 b 550 394 564 403 556 400 b 540 372 544 388 540 381 b 550 349 540 363 544 355 b 574 340 556 343 564 340 l 715 340 b 739 331 725 340 732 337 b 749 307 745 325 749 317 l 749 192 b 739 167 749 181 745 173 b 715 158 732 161 725 158 l 574 158 b 550 149 564 158 556 155 b 540 125 544 142 540 134 l 540 33 b 531 10 540 24 537 16 b 507 0 524 3 516 0 l 300 0 b 276 10 290 0 282 3 b 267 33 270 16 267 24 l 267 125 b 257 149 267 134 263 142 b 233 158 250 155 243 158 l 103 158 b 79 167 94 158 86 161 b 69 192 73 173 69 181 l 69 307 b 79 331 69 317 73 325 b 103 340 86 337 94 340 l 233 340 b 257 349 243 340 250 343 b 267 372 263 355 267 363 b 257 394 267 381 263 388 b 233 403 250 400 243 403 l 103 403 b 79 413 94 403 86 406 b 69 436 73 419 69 427 l 69 556 b 79 579 69 565 73 573 b 103 589 86 586 94 589 l 161 589 b 180 597 170 589 177 592 b 178 617 183 603 182 609 l -36 983 b -37 1006 -41 992 -41 999 b -18 1015 -34 1012 -27 1015 l 233 1015 b 261 1006 243 1015 252 1012 b 282 986 270 1000 277 994 l 388 793 b 403 782 392 786 397 782 b 419 793 409 782 415 786 l 524 986 b 545 1006 528 994 535 1000 b 574 1015 555 1012 564 1015 l 824 1015 b 844 1006 834 1015 841 1012 b 842 983 847 999 846 992 l 629 617 b 627 597 625 609 624 603 b 646 589 630 592 637 589 "},"¦":{"ha":397,"x_min":0,"x_max":0,"o":"m 268 1147 b 292 1138 277 1147 285 1144 b 301 1114 298 1132 301 1124 l 301 594 b 292 571 301 585 298 577 b 268 561 285 564 277 561 l 108 561 b 84 571 98 561 90 564 b 75 594 78 577 75 585 l 75 1114 b 84 1138 75 1124 78 1132 b 108 1147 90 1144 98 1147 m 75 418 b 84 442 75 428 78 436 b 108 451 90 448 98 451 l 268 451 b 292 442 277 451 285 448 b 301 418 298 436 301 428 l 301 -100 b 292 -124 301 -109 298 -117 b 268 -133 285 -130 277 -133 l 108 -133 b 84 -124 98 -133 90 -130 b 75 -100 78 -117 75 -109 "},"§":{"ha":736,"x_min":0,"x_max":0,"o":"m 625 344 b 656 283 638 326 648 305 b 667 221 663 260 667 239 b 640 112 667 178 658 142 b 571 38 623 82 600 57 b 474 -5 542 18 510 4 b 364 -18 438 -14 401 -18 b 269 -6 331 -18 300 -14 b 181 23 238 2 209 11 b 106 60 154 34 129 47 b 50 96 84 74 65 86 b 36 117 43 100 38 107 b 42 142 34 126 36 134 l 113 243 b 135 257 118 250 125 255 b 160 253 144 259 152 257 b 251 205 188 235 219 219 b 361 179 283 191 319 182 b 391 181 370 178 380 179 b 421 189 402 182 412 185 b 444 202 430 193 438 197 b 454 221 451 207 454 213 b 449 235 454 226 452 231 b 429 245 445 238 438 242 b 391 256 420 248 407 252 b 328 269 375 259 354 264 b 243 290 305 274 276 281 b 147 329 210 298 178 312 b 69 399 117 347 91 370 b 38 508 48 427 38 464 b 54 581 38 535 43 559 b 94 638 65 603 79 622 b 93 681 108 653 108 668 b 51 740 75 698 61 718 b 38 807 42 761 38 784 b 55 893 38 840 43 869 b 99 954 66 917 81 938 b 159 994 117 971 137 984 b 224 1018 181 1005 203 1013 b 284 1029 246 1024 266 1027 b 326 1032 302 1031 316 1032 b 468 1008 374 1032 421 1024 b 618 935 515 993 565 968 b 632 914 625 930 630 923 b 626 889 634 905 632 896 l 550 783 b 528 770 544 776 537 772 b 503 776 519 769 510 771 b 408 826 469 800 437 817 b 325 840 380 836 352 840 b 267 831 298 840 279 837 b 250 808 256 825 250 818 b 263 790 250 801 254 795 b 294 775 271 784 281 780 b 338 763 307 770 322 766 b 385 754 353 760 369 757 b 466 733 407 749 434 741 b 558 693 498 724 529 711 b 634 623 588 675 613 652 b 665 513 655 594 665 557 b 653 451 665 492 661 472 b 626 397 646 431 637 413 b 618 371 621 390 618 381 b 625 344 618 361 620 352 m 278 475 b 356 453 302 465 328 458 b 417 447 383 449 404 447 b 458 458 431 447 445 451 b 475 499 470 466 476 479 b 458 528 474 509 468 519 b 416 554 447 538 433 547 b 360 572 399 562 380 568 b 299 579 339 577 319 579 b 253 574 280 578 265 577 b 226 554 242 572 233 565 b 231 510 219 538 220 523 b 278 475 241 497 256 485 "},"¨":{"ha":603,"x_min":0,"x_max":0,"o":"m 10 1111 b 20 1164 10 1130 13 1147 b 49 1207 27 1181 37 1195 b 93 1235 62 1219 76 1228 b 147 1246 110 1242 128 1246 b 243 1207 186 1246 218 1233 b 281 1111 268 1181 281 1149 b 243 1015 281 1072 268 1040 b 147 976 218 989 186 976 b 93 987 128 976 110 980 b 49 1015 76 994 62 1003 b 20 1058 37 1027 27 1041 b 10 1111 13 1074 10 1092 m 321 1111 b 331 1164 321 1130 324 1147 b 360 1207 338 1181 348 1195 b 403 1235 372 1219 386 1228 b 457 1246 419 1242 438 1246 b 553 1207 495 1246 527 1233 b 592 1111 579 1181 592 1149 b 553 1015 592 1072 579 1040 b 457 976 527 989 495 976 b 360 1015 418 976 386 989 b 321 1111 334 1040 321 1072 "},"©":{"ha":1079,"x_min":0,"x_max":0,"o":"m 7 507 b 48 710 7 579 21 647 b 160 876 75 774 113 829 b 326 988 207 924 262 961 b 529 1029 389 1016 457 1029 b 732 988 601 1029 669 1016 b 897 876 795 961 850 924 b 1009 710 944 829 982 774 b 1050 507 1036 647 1050 579 b 1009 304 1050 435 1036 367 b 897 139 982 241 944 186 b 732 27 850 92 795 54 b 529 -14 669 0 601 -14 b 326 27 457 -14 389 0 b 160 139 262 54 207 92 b 48 304 113 186 75 241 b 7 507 21 367 7 435 m 131 507 b 162 353 131 452 141 401 b 247 226 183 305 211 263 b 374 141 283 190 326 162 b 529 110 423 120 475 110 b 683 141 584 110 635 120 b 810 226 731 162 774 190 b 895 353 846 263 874 305 b 926 507 916 401 926 452 b 895 662 926 562 916 613 b 810 789 874 710 846 753 b 683 874 774 825 731 853 b 529 906 635 895 584 906 b 374 874 475 906 423 895 b 247 789 326 853 283 825 b 162 662 211 753 183 710 b 131 507 141 613 131 562 m 767 401 b 728 333 758 375 745 353 b 668 283 710 313 690 296 b 597 252 646 269 622 259 b 524 242 571 245 547 242 b 420 263 488 242 453 249 b 334 319 387 276 359 295 b 276 403 309 342 290 370 b 254 506 261 435 254 469 b 276 608 254 542 261 576 b 334 693 290 641 309 669 b 420 750 359 717 387 736 b 524 771 453 764 488 771 b 599 759 548 771 573 767 b 672 725 625 751 649 740 b 732 673 694 710 714 693 b 771 607 750 653 763 631 b 770 594 773 602 772 598 b 760 585 768 590 764 587 l 642 539 b 628 538 637 537 632 537 b 618 547 623 540 620 543 b 574 593 605 568 590 583 b 524 608 557 603 540 608 b 448 578 494 608 469 598 b 417 506 427 559 417 534 b 448 433 417 477 427 453 b 524 403 469 413 494 403 b 572 418 539 403 556 408 b 614 458 589 428 603 442 b 639 467 620 469 629 471 l 756 424 b 767 401 767 419 770 412 "},"ª":{"ha":506,"x_min":0,"x_max":0,"o":"m 463 574 b 453 550 463 564 459 556 b 429 540 446 544 438 540 l 322 540 b 305 543 313 540 307 541 b 301 550 303 545 301 547 b 293 554 301 556 299 557 b 271 546 288 551 280 549 b 228 536 259 542 245 539 b 178 532 212 533 195 532 b 126 539 160 532 143 534 b 82 561 110 544 95 551 b 40 618 63 576 49 595 b 28 690 32 641 28 665 b 44 763 27 719 32 743 b 88 808 55 782 70 797 b 147 833 106 819 126 828 b 208 840 169 838 189 840 b 239 841 220 841 231 841 b 261 839 247 841 255 840 b 283 843 270 838 278 839 b 282 860 288 847 288 852 b 215 882 270 875 248 882 b 146 874 188 882 165 879 b 99 860 126 869 111 864 b 74 856 90 855 82 854 b 57 872 66 859 61 864 l 26 942 b 24 969 22 950 21 959 b 39 992 26 980 31 987 b 74 1011 49 998 61 1005 b 115 1026 87 1018 100 1023 b 242 1043 163 1038 205 1043 b 350 1024 279 1043 315 1037 b 415 981 378 1013 399 999 b 448 923 430 963 441 944 b 460 859 455 902 459 881 b 463 797 462 837 463 817 l 463 574 m 61 503 b 38 493 52 503 44 500 b 28 469 31 487 28 479 l 28 351 b 38 328 28 342 31 334 b 61 318 44 321 52 318 l 444 318 b 468 328 454 318 462 321 b 478 351 475 334 478 342 l 478 469 b 468 493 478 479 475 487 b 444 503 462 500 454 503 m 244 733 b 215 727 236 733 226 731 b 197 708 203 723 197 717 b 204 696 197 703 200 699 b 221 689 209 693 214 691 b 254 688 230 687 241 687 b 286 694 267 688 278 691 l 288 696 b 294 717 296 700 298 708 b 275 733 290 727 283 732 "},"«":{"ha":954,"x_min":0,"x_max":0,"o":"m 50 482 b 43 510 45 489 43 499 b 50 539 43 522 45 531 l 232 825 b 254 844 237 832 244 839 b 283 853 264 850 274 853 l 514 853 b 532 844 523 853 529 850 b 529 825 535 839 534 832 l 339 539 b 332 510 334 531 332 521 b 340 483 332 500 335 491 l 533 199 b 536 179 538 191 539 185 b 518 171 533 174 527 171 l 282 171 b 253 180 273 171 263 174 b 231 200 243 186 235 193 m 421 483 b 414 512 416 491 414 500 b 421 540 414 523 416 533 l 604 825 b 626 844 609 832 616 839 b 656 853 637 850 646 853 l 888 853 b 906 844 897 853 903 850 b 903 825 908 839 907 832 l 713 539 b 706 512 708 531 706 522 b 714 485 706 501 708 492 l 907 199 b 910 179 912 191 913 185 b 892 171 907 174 901 171 l 654 171 b 625 180 645 171 635 174 b 603 200 615 186 607 193 "},"¬":{"ha":818,"x_min":0,"x_max":0,"o":"m 494 264 b 471 274 485 264 477 267 b 461 297 464 280 461 288 l 461 446 b 452 469 461 455 458 463 b 428 478 446 475 438 478 l 64 478 b 40 488 55 478 47 481 b 31 511 34 494 31 502 l 31 699 b 40 722 31 708 34 716 b 64 732 47 729 55 732 l 703 732 b 726 722 712 732 720 729 b 736 699 733 716 736 708 l 736 297 b 726 274 736 288 733 280 b 703 264 720 267 712 264 "},"­":{"ha":1157,"x_min":0,"x_max":0,"o":""},"®":{"ha":1079,"x_min":0,"x_max":0,"o":"m 8 507 b 49 710 8 579 22 647 b 161 876 77 774 114 829 b 326 988 208 924 263 961 b 529 1029 389 1016 457 1029 b 733 988 601 1029 669 1016 b 899 876 796 961 851 924 b 1010 710 946 829 983 774 b 1051 507 1038 647 1051 579 b 1010 304 1051 435 1038 367 b 899 139 983 241 946 186 b 733 27 851 92 796 54 b 529 -14 669 0 601 -14 b 326 27 457 -14 389 0 b 161 139 263 54 208 92 b 49 304 114 186 77 241 b 8 507 22 367 8 435 m 132 507 b 163 353 132 452 142 401 b 249 226 184 305 213 263 b 375 141 285 190 327 162 b 529 110 423 120 475 110 b 683 141 584 110 635 120 b 810 226 731 162 774 190 b 895 353 846 263 874 305 b 926 507 916 401 926 452 b 895 662 926 562 916 613 b 810 789 874 710 846 753 b 683 874 774 825 731 853 b 529 906 635 895 584 906 b 375 874 475 906 423 895 b 249 789 327 853 285 825 b 163 662 213 753 184 710 b 132 507 142 613 132 562 m 332 750 b 337 762 332 755 334 759 b 349 767 340 765 344 767 l 564 767 b 697 715 619 767 663 750 b 747 581 730 681 747 636 b 690 443 747 525 728 479 b 684 432 687 440 684 437 b 688 419 684 427 685 423 l 781 292 b 783 282 783 288 784 285 b 774 278 781 279 778 278 l 614 278 b 599 282 609 278 604 279 b 589 292 594 285 591 288 b 555 337 579 306 567 322 b 519 382 542 352 531 367 b 499 394 513 390 506 394 b 488 378 491 394 488 389 l 488 294 b 483 283 488 290 486 286 b 471 278 479 279 475 278 l 349 278 b 337 283 344 278 340 279 b 332 294 334 286 332 290 m 564 549 b 582 555 567 549 573 551 b 596 581 591 559 596 568 b 585 606 596 593 592 601 b 564 613 577 610 570 613 l 504 613 b 492 608 500 613 496 611 b 488 596 489 604 488 600 l 488 565 b 492 553 488 561 489 557 b 504 549 496 550 500 549 "},"¯":{"ha":549,"x_min":0,"x_max":0,"o":"m 38 1004 b 14 1014 28 1004 20 1007 b 4 1038 7 1020 4 1028 l 4 1186 b 14 1210 4 1195 7 1203 b 38 1219 20 1216 28 1219 l 482 1219 b 506 1210 491 1219 499 1216 b 515 1186 512 1203 515 1195 l 515 1038 b 506 1014 515 1028 512 1020 b 482 1004 499 1007 491 1004 "},"°":{"ha":467,"x_min":0,"x_max":0,"o":"m 222 757 b 141 774 194 757 166 763 b 74 819 116 785 93 800 b 29 885 55 838 40 860 b 13 967 18 911 13 938 b 29 1048 13 995 18 1022 b 74 1115 40 1073 55 1096 b 141 1160 93 1134 116 1149 b 222 1176 166 1171 194 1176 b 303 1160 251 1176 278 1171 b 369 1115 328 1149 350 1134 b 413 1048 388 1096 403 1073 b 429 967 424 1022 429 995 b 413 885 429 938 424 911 b 369 819 403 860 388 838 b 303 774 350 800 328 785 b 222 757 278 763 251 757 m 147 967 b 169 913 147 945 155 927 b 224 890 184 898 202 890 b 278 913 245 890 263 898 b 300 967 293 927 300 945 b 278 1021 300 988 293 1006 b 224 1043 263 1036 245 1043 b 169 1021 202 1043 184 1036 b 147 967 155 1006 147 988 "},"±":{"ha":763,"x_min":0,"x_max":0,"o":"m 671 528 b 661 504 671 519 668 511 b 638 494 655 498 647 494 l 532 494 b 508 485 523 494 515 491 b 499 461 502 479 499 471 l 499 338 b 489 314 499 328 495 320 b 465 304 482 307 475 304 l 254 304 b 231 314 245 304 237 307 b 221 338 224 320 221 328 l 221 461 b 211 485 221 471 218 479 b 188 494 205 491 197 494 l 81 494 b 57 504 71 494 63 498 b 47 528 50 511 47 519 l 47 714 b 57 738 47 724 50 732 b 81 747 63 744 71 747 l 188 747 b 211 757 197 747 205 750 b 221 781 218 763 221 771 l 221 906 b 231 930 221 916 224 924 b 254 939 237 936 245 939 l 465 939 b 489 930 475 939 482 936 b 499 906 495 924 499 916 l 499 781 b 508 757 499 771 502 763 b 532 747 515 750 523 747 l 638 747 b 661 738 647 747 655 744 b 671 714 668 732 671 724 m 47 221 b 57 245 47 231 50 239 b 81 254 63 251 71 254 l 638 254 b 661 245 647 254 655 251 b 671 221 668 239 671 231 l 671 33 b 661 10 671 24 668 16 b 638 0 655 3 647 0 l 81 0 b 57 10 71 0 63 3 b 47 33 50 16 47 24 "},"²":{"ha":553,"x_min":0,"x_max":0,"o":"m 522 443 b 513 419 522 434 519 426 b 488 410 506 413 498 410 l 63 410 b 38 419 52 410 44 413 b 29 443 32 426 29 434 l 29 542 b 36 572 29 551 31 561 b 54 596 41 582 47 590 b 134 663 86 622 112 644 b 190 710 156 681 174 697 b 228 743 205 723 218 734 b 257 769 238 752 248 761 b 295 804 273 782 285 794 b 317 832 305 814 312 824 b 328 855 322 840 326 848 b 331 876 330 862 331 869 b 324 902 331 887 328 895 b 308 919 320 909 315 915 b 288 927 302 923 295 926 b 267 929 280 928 273 929 b 222 905 248 929 233 921 b 197 857 211 889 203 873 b 181 838 194 849 188 842 b 156 833 173 833 165 831 l 42 864 b 21 879 32 866 25 871 b 19 904 16 888 16 896 b 53 970 28 925 39 947 b 104 1035 67 994 84 1015 b 175 1083 125 1054 148 1070 b 267 1103 202 1096 232 1103 b 377 1083 309 1103 346 1096 b 454 1030 408 1069 434 1052 b 499 957 475 1008 490 984 b 514 876 509 930 514 903 b 476 742 514 826 501 782 b 372 632 451 703 417 666 b 352 615 361 624 354 618 b 340 604 350 613 346 609 b 331 588 333 598 330 592 b 349 582 333 584 338 582 l 488 582 b 513 572 498 582 506 579 b 522 549 519 566 522 558 "},"³":{"ha":533,"x_min":0,"x_max":0,"o":"m 457 482 b 413 439 444 464 429 450 b 360 413 396 428 378 419 b 307 399 342 406 325 402 b 257 396 289 397 273 396 b 163 414 221 396 190 402 b 94 460 137 426 114 441 b 46 522 75 479 59 500 b 15 586 33 544 23 566 b 17 611 12 595 12 604 b 36 625 21 619 28 623 l 133 646 b 157 641 142 648 150 646 b 174 621 164 636 170 629 b 201 583 179 608 188 595 b 257 565 213 571 232 565 b 303 581 277 565 293 571 b 319 615 314 592 319 603 b 307 658 319 634 315 648 b 276 681 299 669 288 676 b 238 688 264 685 251 688 b 199 688 224 689 211 688 b 175 695 189 687 181 689 b 165 718 169 701 165 709 l 165 774 b 175 797 165 783 169 791 b 199 806 181 803 189 806 b 243 808 212 806 226 806 b 290 822 260 810 275 815 b 315 844 300 827 309 834 b 322 878 322 855 324 866 b 257 928 319 911 298 928 b 201 911 233 928 214 922 b 174 875 188 900 179 888 b 157 855 170 867 164 860 b 132 850 150 850 141 848 l 39 869 b 18 884 30 871 23 876 b 15 908 13 892 13 900 b 46 972 23 929 33 950 b 94 1033 59 994 75 1015 b 164 1080 114 1052 137 1067 b 257 1099 191 1092 222 1099 b 370 1079 301 1099 339 1092 b 446 1030 401 1066 426 1050 b 488 963 465 1010 479 988 b 501 889 497 938 501 913 b 480 804 501 852 494 824 b 433 763 466 785 450 771 b 433 736 419 753 419 744 b 479 689 449 726 464 710 b 501 606 494 668 501 640 b 493 551 501 593 499 575 b 457 482 488 528 475 505 "},"´":{"ha":457,"x_min":0,"x_max":0,"o":"m 446 1168 b 450 1135 464 1159 466 1148 l 251 986 b 223 972 244 981 234 976 b 192 965 211 967 201 965 l 15 965 b -3 973 6 965 0 968 b 3 992 -6 978 -4 984 l 194 1240 b 218 1256 200 1248 208 1253 b 246 1254 228 1258 238 1258 "},"¶":{"ha":756,"x_min":0,"x_max":0,"o":"m 218 406 b 140 432 190 409 164 418 b 77 488 116 446 95 464 b 35 569 59 511 45 538 b 19 676 25 601 19 637 b 32 795 19 715 24 755 b 84 906 40 835 58 872 b 199 987 110 939 149 966 b 400 1018 249 1008 316 1018 l 671 1018 b 694 1009 680 1018 688 1015 b 704 985 701 1003 704 995 l 704 33 b 694 10 704 24 701 16 b 671 0 688 3 680 0 l 546 0 b 522 10 537 0 529 3 b 513 33 516 16 513 24 l 513 824 b 503 848 513 834 509 842 b 479 857 496 854 488 857 l 472 857 b 449 848 463 857 455 854 b 439 824 442 842 439 834 l 439 33 b 429 10 439 24 436 16 b 406 0 423 3 415 0 l 285 0 b 261 10 275 0 268 3 b 251 33 255 16 251 24 l 251 369 b 242 394 251 380 248 388 b 218 406 235 400 227 404 "},"·":{"ha":322,"x_min":0,"x_max":0,"o":"m 300 571 b 289 515 300 551 296 533 b 258 469 281 498 271 482 b 213 439 245 456 230 446 b 157 428 195 431 176 428 b 102 439 138 428 119 431 b 57 469 85 446 70 456 b 26 515 44 482 34 498 b 15 571 19 533 15 551 b 26 626 15 590 19 609 b 57 671 34 643 44 658 b 102 701 70 684 85 694 b 157 713 119 709 138 713 b 213 701 176 713 195 709 b 258 671 230 694 245 684 b 289 626 271 658 281 643 b 300 571 296 609 300 590 "},"¸":{"ha":343,"x_min":0,"x_max":0,"o":"m 22 -147 b 40 -130 26 -139 32 -133 b 67 -128 49 -127 57 -126 b 98 -135 76 -131 86 -133 b 138 -139 109 -138 123 -139 l 147 -139 b 163 -135 152 -139 157 -138 b 178 -125 168 -133 173 -130 b 185 -103 182 -120 185 -113 b 167 -78 185 -91 179 -83 b 139 -72 156 -74 146 -72 b 111 -76 129 -73 119 -75 b 89 -82 103 -78 95 -80 b 60 -83 80 -85 70 -85 b 35 -69 50 -81 41 -77 l 35 -68 b 22 -42 28 -62 24 -53 b 24 -12 20 -32 21 -22 l 63 82 b 81 103 66 90 72 97 b 108 113 89 109 98 113 l 185 113 b 204 104 194 113 200 110 b 203 83 208 99 207 92 l 203 82 b 201 60 198 74 198 66 b 221 47 205 53 212 49 b 271 30 236 44 252 39 b 319 -14 289 21 306 6 b 339 -65 328 -27 334 -44 b 343 -125 344 -85 345 -106 b 316 -208 341 -157 332 -185 b 251 -261 300 -230 278 -248 b 189 -279 230 -271 209 -277 b 147 -282 169 -281 155 -282 b 67 -270 117 -281 90 -277 b 11 -249 44 -263 25 -256 b -6 -228 3 -244 -3 -237 b -3 -201 -8 -219 -7 -210 "},"¹":{"ha":397,"x_min":0,"x_max":0,"o":"m 350 450 b 340 426 350 441 347 433 b 317 417 334 420 326 417 l 203 417 b 179 426 194 417 186 420 b 169 450 173 433 169 441 l 169 747 b 163 765 169 756 167 762 b 146 757 158 767 152 764 b 141 751 144 755 142 753 b 136 746 140 750 138 748 b 113 736 130 739 122 736 b 90 747 104 736 97 740 l 10 833 b 1 857 3 840 0 848 b 13 881 1 866 5 874 l 208 1065 b 235 1081 215 1072 224 1077 b 265 1088 246 1085 256 1088 l 317 1088 b 340 1078 326 1088 334 1084 b 350 1054 347 1071 350 1063 "},"º":{"ha":549,"x_min":0,"x_max":0,"o":"m 26 785 b 46 881 26 819 33 851 b 99 960 59 911 76 938 b 176 1013 121 982 147 1000 b 272 1032 206 1025 238 1032 b 369 1013 306 1032 339 1025 b 448 960 399 1000 425 982 b 501 881 471 938 488 911 b 521 785 514 851 521 819 b 501 688 521 750 514 718 b 448 610 488 658 471 632 b 369 557 425 588 399 570 b 272 538 339 544 306 538 b 176 557 238 538 206 544 b 99 610 147 570 121 588 b 46 688 76 632 59 658 b 26 785 33 718 26 750 m 82 318 b 58 328 73 318 65 321 b 49 351 52 334 49 342 l 49 469 b 58 493 49 479 52 487 b 82 503 65 500 73 503 l 465 503 b 489 493 475 503 482 500 b 499 469 495 487 499 479 l 499 351 b 489 328 499 342 495 334 b 465 318 482 321 475 318 m 210 785 b 228 737 210 766 216 750 b 272 717 241 723 256 717 b 317 737 291 717 306 723 b 335 785 329 750 335 766 b 317 833 335 803 329 819 b 272 854 306 847 291 854 b 228 833 256 854 241 847 b 210 785 216 819 210 803 "},"»":{"ha":954,"x_min":0,"x_max":0,"o":"m 239 485 b 247 512 244 492 247 501 b 239 539 247 522 244 531 l 50 825 b 47 844 45 832 44 839 b 65 853 50 850 56 853 l 297 853 b 326 844 306 853 316 850 b 349 825 337 839 344 832 l 532 540 b 539 512 537 533 539 523 b 532 483 539 500 537 491 l 350 200 b 328 180 345 193 338 186 b 299 171 318 174 308 171 l 61 171 b 43 179 52 171 46 174 b 46 199 40 185 41 191 m 613 483 b 621 510 618 491 621 500 b 614 539 621 521 619 531 l 424 825 b 421 844 419 832 418 839 b 439 853 424 850 430 853 l 669 853 b 699 844 679 853 688 850 b 721 825 709 839 716 832 l 903 539 b 910 510 907 531 910 522 b 903 482 910 499 907 489 l 722 200 b 700 180 718 193 710 186 b 671 171 690 174 680 171 l 435 171 b 417 179 425 171 419 174 b 419 199 414 185 415 191 "},"¼":{"ha":1214,"x_min":0,"x_max":0,"o":"m 333 381 b 324 357 333 371 330 363 b 299 347 317 350 309 347 l 186 347 b 162 357 176 347 168 350 b 153 381 156 363 153 371 l 153 678 b 146 695 153 687 150 693 b 128 688 141 697 135 695 b 123 682 126 686 124 684 b 118 676 122 680 120 678 b 95 667 112 670 104 667 b 72 678 86 667 79 670 l -7 764 b -17 788 -13 770 -17 778 b -6 811 -17 797 -13 805 l 190 996 b 217 1012 198 1002 207 1008 b 249 1018 228 1016 238 1018 l 299 1018 b 324 1008 309 1018 317 1015 b 333 985 330 1002 333 994 m 742 989 b 763 1010 746 997 753 1004 b 793 1018 773 1015 783 1018 l 942 1018 b 961 1010 952 1018 958 1015 b 958 989 964 1004 963 997 l 388 29 b 366 8 383 21 376 14 b 336 0 356 3 346 0 l 186 0 b 167 8 176 0 169 3 b 169 29 164 14 165 21 m 1201 174 b 1192 150 1201 164 1198 156 b 1168 140 1186 144 1178 140 l 1160 140 b 1135 131 1150 140 1141 137 b 1125 107 1128 124 1125 116 l 1125 33 b 1116 10 1125 24 1122 16 b 1092 0 1110 3 1102 0 l 976 0 b 951 10 966 0 958 3 b 942 33 945 16 942 24 l 942 107 b 933 131 942 116 939 124 b 908 140 927 137 919 140 l 671 140 b 647 150 661 140 653 144 b 638 174 641 156 638 164 l 638 258 b 643 290 638 268 639 278 b 658 318 647 301 652 311 l 958 679 b 983 697 965 687 973 693 b 1014 704 994 702 1004 704 l 1092 704 b 1116 694 1102 704 1110 701 b 1125 671 1122 688 1125 680 l 1125 343 b 1135 319 1125 334 1128 326 b 1160 310 1141 313 1150 310 l 1168 310 b 1192 300 1178 310 1186 306 b 1201 276 1198 294 1201 286 m 879 329 b 885 314 875 322 877 317 b 911 310 894 311 903 310 b 933 315 919 310 927 311 b 942 333 939 318 942 324 l 942 375 b 922 381 942 395 935 397 "},"½":{"ha":1249,"x_min":0,"x_max":0,"o":"m 326 381 b 317 357 326 371 323 363 b 293 347 310 350 302 347 l 179 347 b 155 357 169 347 161 350 b 146 381 149 363 146 371 l 146 678 b 139 695 146 687 144 693 b 122 688 134 697 129 695 b 117 683 120 686 119 684 b 111 678 115 681 113 680 b 88 667 105 670 97 667 b 65 678 79 667 72 670 l -14 764 b -23 788 -20 770 -23 778 b -12 811 -22 797 -19 805 l 183 996 b 210 1012 191 1002 200 1008 b 242 1018 221 1016 231 1018 l 293 1018 b 317 1008 302 1018 310 1015 b 326 985 323 1002 326 994 m 735 990 b 756 1010 739 998 747 1004 b 786 1018 766 1015 776 1018 l 936 1018 b 954 1010 945 1018 951 1015 b 951 990 957 1004 956 998 l 381 29 b 359 8 376 21 369 14 b 331 0 349 3 340 0 l 179 0 b 160 8 169 0 163 3 b 163 29 157 14 158 21 m 1206 35 b 1196 11 1206 25 1202 18 b 1172 1 1189 5 1181 1 l 746 1 b 722 11 736 1 728 5 b 713 35 716 18 713 25 l 713 133 b 719 163 713 143 715 153 b 738 188 724 174 730 182 b 817 254 769 213 796 236 b 873 301 839 273 858 288 b 911 335 888 314 901 325 b 940 361 921 344 931 353 b 978 396 956 374 969 386 b 1001 424 988 406 996 415 b 1011 447 1006 432 1009 440 b 1014 468 1013 453 1014 461 b 1008 494 1014 478 1012 487 b 992 510 1003 501 998 506 b 971 519 985 515 978 517 b 950 521 963 520 956 521 b 906 497 931 521 917 513 b 881 449 894 480 886 464 b 865 429 878 440 872 434 b 839 425 857 425 848 423 l 725 456 b 705 471 716 457 709 463 b 703 496 701 479 700 488 b 736 562 711 516 722 538 b 788 626 750 585 767 607 b 858 675 808 646 831 662 b 950 694 885 688 916 694 b 1060 674 993 694 1029 688 b 1138 622 1091 661 1117 643 b 1183 549 1158 600 1173 575 b 1197 468 1192 522 1197 495 b 1160 334 1197 418 1185 373 b 1056 224 1135 295 1100 258 b 1036 207 1045 215 1039 210 b 1024 196 1033 204 1029 200 b 1015 180 1016 189 1013 184 b 1032 174 1016 176 1022 174 l 1172 174 b 1196 164 1181 174 1189 170 b 1206 140 1202 157 1206 150 "},"¾":{"ha":1331,"x_min":0,"x_max":0,"o":"m 444 413 b 400 369 431 395 417 381 b 348 343 383 358 366 350 b 294 330 330 337 312 332 b 244 326 277 328 260 326 b 151 344 208 326 177 332 b 82 391 124 356 101 372 b 33 453 63 410 46 431 b 3 517 20 475 10 496 b 4 542 -1 526 0 534 b 24 556 9 549 15 554 l 119 576 b 144 572 129 578 137 577 b 161 551 152 566 157 560 b 188 514 167 538 176 526 b 244 496 201 502 219 496 b 291 512 265 496 280 501 b 307 546 302 522 307 534 b 294 589 307 564 303 579 b 264 611 286 599 276 606 b 224 619 252 616 239 618 b 186 618 210 619 197 619 b 163 626 177 617 169 620 b 153 649 156 632 153 639 l 153 704 b 163 727 153 713 156 721 b 186 736 169 733 177 736 b 231 739 199 736 214 737 b 278 753 247 741 263 745 b 303 775 288 757 296 765 b 310 808 309 785 312 796 b 244 858 307 842 285 858 b 189 842 220 858 202 853 b 161 806 176 831 167 819 b 144 785 157 797 152 791 b 119 781 137 780 129 779 l 26 800 b 6 815 17 802 10 807 b 3 839 1 822 0 831 b 33 903 10 859 20 881 b 82 964 46 925 63 945 b 151 1010 101 982 125 998 b 244 1029 178 1023 209 1029 b 358 1010 289 1029 327 1023 b 433 960 389 997 414 980 b 476 893 453 941 467 918 b 489 819 484 868 489 844 b 467 735 489 782 482 754 b 421 693 453 715 438 701 b 421 667 407 684 407 675 b 467 619 437 656 452 641 b 489 536 481 598 489 570 b 481 482 489 523 486 505 b 444 413 475 459 463 436 m 836 989 b 858 1010 841 997 848 1004 b 886 1018 867 1015 877 1018 l 1036 1018 b 1055 1010 1045 1018 1052 1015 b 1053 989 1058 1004 1057 997 l 481 29 b 459 8 476 21 469 14 b 431 0 449 3 440 0 l 279 0 b 260 8 270 0 264 3 b 263 29 257 14 258 21 m 1257 174 b 1248 150 1257 164 1254 156 b 1224 140 1242 144 1234 140 l 1215 140 b 1190 131 1205 140 1197 137 b 1181 107 1184 124 1181 116 l 1181 33 b 1172 10 1181 24 1178 16 b 1147 0 1166 3 1157 0 l 1032 0 b 1007 10 1022 0 1013 3 b 997 33 1000 16 997 24 l 997 107 b 988 131 997 116 994 124 b 964 140 982 137 974 140 l 726 140 b 702 150 716 140 708 144 b 693 174 696 156 693 164 l 693 258 b 699 290 693 268 695 278 b 714 318 702 301 707 311 l 1014 679 b 1039 697 1020 687 1029 693 b 1069 704 1049 702 1059 704 l 1147 704 b 1172 694 1157 704 1166 701 b 1181 671 1178 688 1181 680 l 1181 343 b 1190 319 1181 334 1184 326 b 1215 310 1197 313 1205 310 l 1224 310 b 1248 300 1234 310 1242 306 b 1257 276 1254 294 1257 286 m 935 329 b 941 314 930 322 932 317 b 967 310 950 311 958 310 b 988 315 975 310 982 311 b 997 333 994 318 997 324 l 997 375 b 978 381 997 395 991 397 "},"¿":{"ha":811,"x_min":0,"x_max":0,"o":"m 289 636 b 301 660 291 645 295 653 b 325 669 308 666 316 669 l 536 669 b 561 660 546 669 555 666 b 569 636 568 653 570 645 b 517 483 568 571 550 520 b 371 385 484 446 436 413 b 310 349 341 372 321 360 b 293 300 299 338 293 321 b 294 287 293 298 293 294 b 303 265 294 280 297 273 b 331 245 308 258 318 251 b 390 236 345 239 364 236 b 464 247 420 236 444 240 b 512 274 483 253 499 263 b 541 313 524 286 534 299 b 560 354 548 326 554 340 b 577 373 563 363 568 369 b 603 375 586 377 594 378 l 761 324 b 780 307 769 321 776 315 b 783 281 784 299 785 290 b 754 192 777 256 767 226 b 692 92 741 157 720 124 b 576 11 663 60 625 33 b 388 -22 528 -11 465 -22 b 284 -12 349 -22 314 -19 b 203 13 254 -6 227 3 b 143 48 180 24 160 35 b 101 86 126 60 113 73 b 41 176 75 115 55 145 b 19 279 27 207 19 241 b 38 397 19 327 25 366 b 83 469 50 427 65 451 b 143 512 101 487 121 501 b 206 543 165 522 186 533 b 259 578 226 553 244 565 b 289 636 274 592 284 611 m 568 793 b 559 769 568 784 565 776 b 535 760 553 763 545 760 l 326 760 b 303 769 317 760 309 763 b 293 793 296 776 293 784 l 293 985 b 303 1008 293 994 296 1002 b 326 1018 309 1015 317 1018 l 535 1018 b 559 1008 545 1018 553 1015 b 568 985 565 1002 568 994 "},"À":{"ha":1090,"x_min":0,"x_max":0,"o":"m 456 1063 b 424 1069 446 1063 436 1065 b 396 1083 413 1073 403 1078 l 196 1232 b 200 1265 180 1245 181 1256 l 400 1351 b 428 1353 408 1355 418 1356 b 451 1338 438 1350 446 1345 l 644 1089 b 649 1070 650 1081 652 1075 b 632 1063 647 1065 641 1063 m 375 985 b 394 1006 379 993 385 1000 b 422 1015 403 1012 412 1015 l 617 1015 b 644 1006 626 1015 635 1012 b 663 985 653 1000 659 993 l 1068 40 b 1066 14 1072 32 1071 23 b 1036 0 1061 5 1051 0 l 799 0 b 770 9 788 0 779 3 b 750 31 761 15 755 22 l 713 114 b 692 135 708 122 701 129 b 665 144 684 141 675 144 l 372 144 b 344 135 362 144 353 141 b 325 114 335 129 329 122 l 286 31 b 267 9 282 22 276 15 b 240 0 259 3 250 0 l 1 0 b -13 3 -3 0 -8 1 b -26 11 -18 5 -22 7 b -32 25 -29 15 -31 19 b -28 44 -33 31 -31 37 l 375 985 m 581 381 b 601 390 590 381 597 384 b 600 411 605 396 605 403 b 567 492 591 434 580 461 b 531 579 554 523 542 552 b 518 592 527 588 523 592 b 506 579 513 592 509 588 l 436 411 b 436 390 432 403 432 396 b 457 381 440 384 447 381 "},"Á":{"ha":1090,"x_min":0,"x_max":0,"o":"m 847 1265 b 851 1232 866 1256 867 1245 l 653 1083 b 624 1069 645 1078 636 1073 b 593 1063 613 1065 602 1063 l 417 1063 b 399 1070 407 1063 401 1065 b 404 1089 396 1075 398 1081 l 596 1338 b 619 1353 601 1345 609 1350 b 647 1351 630 1356 639 1355 m 375 985 b 394 1006 379 993 385 1000 b 422 1015 403 1012 412 1015 l 617 1015 b 644 1006 626 1015 635 1012 b 663 985 653 1000 659 993 l 1068 40 b 1066 14 1072 32 1071 23 b 1036 0 1061 5 1051 0 l 799 0 b 770 9 788 0 779 3 b 750 31 761 15 755 22 l 713 114 b 692 135 708 122 701 129 b 665 144 684 141 675 144 l 372 144 b 344 135 362 144 353 141 b 325 114 335 129 329 122 l 286 31 b 267 9 282 22 276 15 b 240 0 259 3 250 0 l 1 0 b -13 3 -3 0 -8 1 b -26 11 -18 5 -22 7 b -32 25 -29 15 -31 19 b -28 44 -33 31 -31 37 l 375 985 m 581 381 b 601 390 590 381 597 384 b 600 411 605 396 605 403 b 567 492 591 434 580 461 b 531 579 554 523 542 552 b 518 592 527 588 523 592 b 506 579 513 592 509 588 l 436 411 b 436 390 432 403 432 396 b 457 381 440 384 447 381 "},"Â":{"ha":1090,"x_min":0,"x_max":0,"o":"m 578 1351 b 608 1344 587 1351 597 1349 b 632 1325 618 1339 626 1332 l 825 1086 b 830 1067 831 1079 832 1072 b 813 1060 828 1062 822 1060 l 614 1060 b 584 1067 605 1060 595 1062 b 560 1086 573 1072 565 1079 l 535 1115 b 514 1126 529 1123 522 1126 b 493 1114 506 1125 499 1121 l 471 1085 b 447 1066 465 1077 457 1071 b 418 1058 437 1061 427 1058 l 218 1058 b 201 1066 209 1058 203 1061 b 206 1085 198 1071 200 1077 l 396 1325 b 420 1344 401 1332 409 1339 b 450 1351 431 1349 441 1351 m 375 985 b 394 1006 379 993 385 1000 b 422 1015 403 1012 412 1015 l 617 1015 b 644 1006 626 1015 635 1012 b 663 985 653 1000 659 993 l 1068 40 b 1066 14 1072 32 1071 23 b 1036 0 1061 5 1051 0 l 799 0 b 770 9 788 0 779 3 b 750 31 761 15 755 22 l 713 114 b 692 135 708 122 701 129 b 665 144 684 141 675 144 l 372 144 b 344 135 362 144 353 141 b 325 114 335 129 329 122 l 286 31 b 267 9 282 22 276 15 b 240 0 259 3 250 0 l 1 0 b -13 3 -3 0 -8 1 b -26 11 -18 5 -22 7 b -32 25 -29 15 -31 19 b -28 44 -33 31 -31 37 l 375 985 m 581 381 b 601 390 590 381 597 384 b 600 411 605 396 605 403 b 567 492 591 434 580 461 b 531 579 554 523 542 552 b 518 592 527 588 523 592 b 506 579 513 592 509 588 l 436 411 b 436 390 432 403 432 396 b 457 381 440 384 447 381 "},"Ã":{"ha":1090,"x_min":0,"x_max":0,"o":"m 243 1100 b 222 1115 234 1102 227 1107 b 219 1140 218 1124 217 1132 b 244 1208 226 1163 234 1185 b 282 1272 255 1231 267 1253 b 335 1320 297 1292 314 1308 b 407 1340 355 1333 379 1339 b 490 1322 439 1341 467 1335 b 551 1284 512 1308 533 1296 b 601 1265 569 1272 585 1266 b 650 1299 616 1263 632 1275 b 672 1315 656 1306 663 1311 b 699 1315 681 1318 690 1318 l 813 1274 b 833 1256 822 1270 828 1264 b 835 1229 837 1247 838 1238 b 803 1160 826 1205 816 1182 b 760 1103 791 1139 776 1119 b 703 1063 743 1086 724 1073 b 632 1051 681 1053 658 1050 b 564 1074 606 1053 583 1061 b 510 1110 544 1088 526 1100 b 463 1126 493 1121 477 1126 b 415 1088 448 1125 432 1113 b 393 1070 410 1080 402 1074 b 365 1067 384 1066 375 1065 m 375 985 b 394 1006 379 993 385 1000 b 422 1015 403 1012 412 1015 l 617 1015 b 644 1006 626 1015 635 1012 b 663 985 653 1000 659 993 l 1068 40 b 1066 14 1072 32 1071 23 b 1036 0 1061 5 1051 0 l 799 0 b 770 9 788 0 779 3 b 750 31 761 15 755 22 l 713 114 b 692 135 708 122 701 129 b 665 144 684 141 675 144 l 372 144 b 344 135 362 144 353 141 b 325 114 335 129 329 122 l 286 31 b 267 9 282 22 276 15 b 240 0 259 3 250 0 l 1 0 b -13 3 -3 0 -8 1 b -26 11 -18 5 -22 7 b -32 25 -29 15 -31 19 b -28 44 -33 31 -31 37 l 375 985 m 581 381 b 601 390 590 381 597 384 b 600 411 605 396 605 403 b 567 492 591 434 580 461 b 531 579 554 523 542 552 b 518 592 527 588 523 592 b 506 579 513 592 509 588 l 436 411 b 436 390 432 403 432 396 b 457 381 440 384 447 381 "},"Ä":{"ha":1090,"x_min":0,"x_max":0,"o":"m 222 1208 b 233 1261 222 1227 226 1244 b 262 1304 240 1278 249 1292 b 306 1333 274 1316 289 1326 b 360 1343 322 1340 340 1343 b 456 1304 399 1343 431 1330 b 493 1208 481 1278 493 1246 b 456 1112 493 1169 481 1137 b 360 1074 431 1086 399 1074 b 306 1084 340 1074 322 1077 b 262 1113 289 1091 274 1100 b 233 1155 249 1125 240 1139 b 222 1208 226 1171 222 1189 m 533 1208 b 544 1261 533 1227 537 1244 b 572 1304 551 1278 560 1292 b 615 1333 584 1316 599 1326 b 669 1343 632 1340 650 1343 b 765 1304 707 1343 739 1330 b 804 1208 791 1278 804 1246 b 765 1112 804 1169 791 1137 b 669 1074 739 1086 707 1074 b 572 1112 631 1074 598 1086 b 533 1208 546 1137 533 1169 m 375 985 b 394 1006 379 993 385 1000 b 422 1015 403 1012 412 1015 l 617 1015 b 644 1006 626 1015 635 1012 b 663 985 653 1000 659 993 l 1068 40 b 1066 14 1072 32 1071 23 b 1036 0 1061 5 1051 0 l 799 0 b 770 9 788 0 779 3 b 750 31 761 15 755 22 l 713 114 b 692 135 708 122 701 129 b 665 144 684 141 675 144 l 372 144 b 344 135 362 144 353 141 b 325 114 335 129 329 122 l 286 31 b 267 9 282 22 276 15 b 240 0 259 3 250 0 l 1 0 b -13 3 -3 0 -8 1 b -26 11 -18 5 -22 7 b -32 25 -29 15 -31 19 b -28 44 -33 31 -31 37 l 375 985 m 581 381 b 601 390 590 381 597 384 b 600 411 605 396 605 403 b 567 492 591 434 580 461 b 531 579 554 523 542 552 b 518 592 527 588 523 592 b 506 579 513 592 509 588 l 436 411 b 436 390 432 403 432 396 b 457 381 440 384 447 381 "},"Å":{"ha":1090,"x_min":0,"x_max":0,"o":"m 1068 40 b 1066 14 1072 32 1071 23 b 1036 0 1061 5 1051 0 l 799 0 b 770 9 788 0 779 3 b 750 31 761 15 755 22 l 713 114 b 692 135 708 122 701 129 b 665 144 684 141 675 144 l 372 144 b 344 135 362 144 353 141 b 325 114 335 129 329 122 l 286 31 b 267 9 282 22 276 15 b 240 0 259 3 250 0 l 1 0 b -13 3 -3 0 -8 1 b -26 11 -18 5 -22 7 b -32 25 -29 15 -31 19 b -28 44 -33 31 -31 37 l 371 976 b 343 1029 359 992 350 1010 b 333 1090 337 1049 333 1069 b 348 1162 333 1115 338 1139 b 388 1221 358 1184 371 1204 b 446 1260 404 1238 424 1251 b 518 1275 468 1270 492 1275 b 590 1260 543 1275 567 1270 b 649 1221 612 1251 632 1238 b 688 1162 665 1204 678 1184 b 703 1090 698 1139 703 1115 b 665 979 703 1049 690 1012 l 1068 40 m 581 381 b 601 390 590 381 597 384 b 600 411 605 396 605 403 b 567 492 591 434 580 461 b 531 579 554 523 542 552 b 518 592 527 588 523 592 b 506 579 513 592 509 588 l 436 411 b 436 390 432 403 432 396 b 457 381 440 384 447 381 m 458 1089 b 476 1047 458 1072 464 1058 b 518 1029 487 1035 501 1029 b 560 1047 535 1029 549 1035 b 578 1089 572 1058 578 1072 b 560 1131 578 1106 572 1120 b 518 1149 549 1143 535 1149 b 476 1131 501 1149 487 1143 b 458 1089 464 1120 458 1106 "},"Æ":{"ha":1475,"x_min":0,"x_max":0,"o":"m 833 671 b 843 647 833 662 837 654 b 867 638 850 641 857 638 l 1243 638 b 1267 628 1253 638 1261 634 b 1276 604 1273 621 1276 613 l 1276 411 b 1267 388 1276 402 1273 394 b 1243 378 1261 381 1253 378 l 867 378 b 843 368 857 378 850 375 b 833 344 837 362 833 354 l 833 293 b 843 269 833 284 837 276 b 867 260 850 263 857 260 l 1299 260 b 1323 250 1309 260 1317 256 b 1332 226 1329 244 1332 236 l 1332 33 b 1323 10 1332 24 1329 16 b 1299 0 1317 3 1309 0 l 590 0 b 567 10 581 0 573 3 b 557 33 560 16 557 24 l 557 121 b 548 144 557 130 554 138 b 524 154 542 151 534 154 l 378 154 b 349 146 369 154 359 151 b 326 126 338 140 331 134 b 294 77 316 111 306 94 b 263 28 283 60 273 44 b 240 8 257 20 249 14 b 210 0 230 3 220 0 l -35 0 b -53 12 -44 0 -50 4 b -50 35 -56 20 -55 27 l 579 990 b 601 1010 584 998 591 1004 b 631 1018 612 1015 621 1018 l 1299 1018 b 1323 1008 1309 1018 1317 1015 b 1332 985 1329 1002 1332 994 l 1332 793 b 1323 769 1332 784 1329 776 b 1299 760 1317 763 1309 760 l 867 760 b 843 750 857 760 850 756 b 833 726 837 744 833 736 m 481 422 b 476 399 476 413 475 405 b 507 389 478 392 488 389 l 528 389 b 561 418 550 389 561 399 l 561 511 b 553 523 561 518 559 522 b 539 515 548 524 544 522 l 481 422 "},"Ç":{"ha":1086,"x_min":0,"x_max":0,"o":"m 444 -240 b 463 -223 448 -232 454 -226 b 489 -221 471 -220 480 -219 b 520 -228 498 -224 509 -226 b 560 -232 532 -231 545 -232 l 569 -232 b 585 -228 574 -232 579 -231 b 600 -218 590 -226 595 -223 b 607 -196 605 -213 607 -206 b 590 -172 607 -184 601 -176 b 561 -165 578 -167 569 -165 b 533 -169 551 -166 542 -168 b 511 -175 525 -171 518 -173 b 482 -176 502 -178 492 -178 b 457 -162 472 -175 463 -170 l 457 -161 b 444 -135 450 -155 446 -146 b 446 -106 443 -125 443 -115 l 476 -32 b 473 -17 478 -25 477 -20 b 457 -8 469 -13 463 -10 b 286 57 396 4 339 25 b 150 172 233 88 188 127 b 60 326 112 218 82 269 b 28 507 39 383 28 443 b 69 711 28 579 42 647 b 184 878 97 775 135 831 b 354 990 233 925 289 963 b 563 1032 419 1018 488 1032 b 728 1011 624 1032 679 1025 b 861 953 777 997 821 978 b 969 862 901 928 937 897 b 1057 744 1001 826 1030 787 b 1060 721 1062 737 1063 729 b 1043 703 1057 713 1051 706 l 846 625 b 818 625 837 621 827 621 b 797 642 809 629 802 634 b 700 740 770 684 738 717 b 563 774 662 762 616 774 b 463 751 527 774 494 766 b 382 692 432 737 405 717 b 328 607 359 668 341 639 b 308 507 315 575 308 541 b 328 406 308 472 315 438 b 382 322 341 374 359 346 b 463 264 405 298 432 279 b 563 242 494 249 527 242 b 701 278 613 242 659 254 b 799 374 742 303 775 335 b 819 390 803 381 810 387 b 846 390 828 394 837 394 l 1043 313 b 1060 295 1051 309 1057 303 b 1057 271 1063 287 1062 279 b 882 76 1009 192 950 127 b 629 -14 813 25 729 -5 l 626 -15 b 615 -32 616 -17 613 -23 b 643 -46 618 -41 627 -46 b 693 -61 658 -46 675 -51 b 742 -107 712 -71 728 -87 b 761 -158 750 -120 756 -137 b 765 -218 766 -178 767 -199 b 738 -301 763 -250 754 -278 b 674 -354 722 -323 700 -341 b 611 -372 652 -364 631 -370 b 569 -375 591 -374 577 -375 b 489 -363 539 -374 512 -370 b 433 -342 466 -356 447 -349 b 417 -321 425 -337 419 -330 b 419 -294 414 -312 415 -303 "},"È":{"ha":949,"x_min":0,"x_max":0,"o":"m 349 669 b 358 646 349 660 352 652 b 382 636 365 639 373 636 l 758 636 b 782 626 768 636 775 633 b 792 603 788 620 792 612 l 792 411 b 782 388 792 402 788 394 b 758 378 775 381 768 378 l 382 378 b 358 368 373 378 365 375 b 349 344 352 362 349 354 l 349 292 b 358 268 349 282 352 275 b 382 258 365 262 373 258 l 814 258 b 838 249 823 258 831 255 b 847 225 844 242 847 234 l 847 33 b 838 10 847 24 844 16 b 814 0 831 3 823 0 l 107 0 b 83 10 98 0 90 3 b 74 33 77 16 74 24 l 74 983 b 83 1007 74 993 77 1000 b 107 1017 90 1013 98 1017 l 814 1017 b 838 1007 823 1017 831 1013 b 847 983 844 1000 847 993 l 847 794 b 838 771 847 785 844 777 b 814 761 831 764 823 761 l 382 761 b 358 751 373 761 365 758 b 349 728 352 745 349 737 m 440 1063 b 409 1069 431 1063 421 1065 b 381 1083 397 1073 388 1078 l 181 1232 b 185 1265 165 1245 166 1256 l 385 1351 b 413 1353 393 1355 402 1356 b 436 1338 423 1350 431 1345 l 629 1089 b 634 1070 635 1081 636 1075 b 617 1063 632 1065 626 1063 "},"É":{"ha":949,"x_min":0,"x_max":0,"o":"m 349 669 b 358 646 349 660 352 652 b 382 636 365 639 373 636 l 758 636 b 782 626 768 636 775 633 b 792 603 788 620 792 612 l 792 411 b 782 388 792 402 788 394 b 758 378 775 381 768 378 l 382 378 b 358 368 373 378 365 375 b 349 344 352 362 349 354 l 349 292 b 358 268 349 282 352 275 b 382 258 365 262 373 258 l 814 258 b 838 249 823 258 831 255 b 847 225 844 242 847 234 l 847 33 b 838 10 847 24 844 16 b 814 0 831 3 823 0 l 107 0 b 83 10 98 0 90 3 b 74 33 77 16 74 24 l 74 983 b 83 1007 74 993 77 1000 b 107 1017 90 1013 98 1017 l 814 1017 b 838 1007 823 1017 831 1013 b 847 983 844 1000 847 993 l 847 794 b 838 771 847 785 844 777 b 814 761 831 764 823 761 l 382 761 b 358 751 373 761 365 758 b 349 728 352 745 349 737 m 715 1265 b 719 1232 734 1256 735 1245 l 521 1083 b 492 1069 513 1078 504 1073 b 461 1063 481 1065 470 1063 l 285 1063 b 267 1070 275 1063 269 1065 b 272 1089 264 1075 266 1081 l 464 1338 b 488 1353 469 1345 477 1350 b 515 1351 498 1356 507 1355 "},"Ê":{"ha":949,"x_min":0,"x_max":0,"o":"m 349 669 b 358 646 349 660 352 652 b 382 636 365 639 373 636 l 758 636 b 782 626 768 636 775 633 b 792 603 788 620 792 612 l 792 411 b 782 388 792 402 788 394 b 758 378 775 381 768 378 l 382 378 b 358 368 373 378 365 375 b 349 344 352 362 349 354 l 349 292 b 358 268 349 282 352 275 b 382 258 365 262 373 258 l 814 258 b 838 249 823 258 831 255 b 847 225 844 242 847 234 l 847 33 b 838 10 847 24 844 16 b 814 0 831 3 823 0 l 107 0 b 83 10 98 0 90 3 b 74 33 77 16 74 24 l 74 983 b 83 1007 74 993 77 1000 b 107 1017 90 1013 98 1017 l 814 1017 b 838 1007 823 1017 831 1013 b 847 983 844 1000 847 993 l 847 794 b 838 771 847 785 844 777 b 814 761 831 764 823 761 l 382 761 b 358 751 373 761 365 758 b 349 728 352 745 349 737 m 515 1351 b 545 1344 525 1351 534 1349 b 569 1325 556 1339 564 1332 l 763 1086 b 767 1067 768 1079 770 1072 b 750 1060 765 1062 759 1060 l 551 1060 b 522 1067 542 1060 532 1062 b 497 1086 511 1072 503 1079 l 472 1115 b 451 1126 467 1123 460 1126 b 431 1114 443 1125 436 1121 l 408 1085 b 385 1066 403 1077 395 1071 b 356 1058 375 1061 365 1058 l 156 1058 b 138 1066 146 1058 141 1061 b 143 1085 136 1071 138 1077 l 333 1325 b 358 1344 339 1332 347 1339 b 388 1351 368 1349 378 1351 "},"Ë":{"ha":949,"x_min":0,"x_max":0,"o":"m 349 669 b 358 646 349 660 352 652 b 382 636 365 639 373 636 l 758 636 b 782 626 768 636 775 633 b 792 603 788 620 792 612 l 792 411 b 782 388 792 402 788 394 b 758 378 775 381 768 378 l 382 378 b 358 368 373 378 365 375 b 349 344 352 362 349 354 l 349 292 b 358 268 349 282 352 275 b 382 258 365 262 373 258 l 814 258 b 838 249 823 258 831 255 b 847 225 844 242 847 234 l 847 33 b 838 10 847 24 844 16 b 814 0 831 3 823 0 l 107 0 b 83 10 98 0 90 3 b 74 33 77 16 74 24 l 74 983 b 83 1007 74 993 77 1000 b 107 1017 90 1013 98 1017 l 814 1017 b 838 1007 823 1017 831 1013 b 847 983 844 1000 847 993 l 847 794 b 838 771 847 785 844 777 b 814 761 831 764 823 761 l 382 761 b 358 751 373 761 365 758 b 349 728 352 745 349 737 m 160 1208 b 170 1261 160 1227 163 1244 b 199 1304 177 1278 187 1292 b 243 1333 212 1316 226 1326 b 297 1343 260 1340 278 1343 b 393 1304 336 1343 368 1330 b 431 1208 418 1278 431 1246 b 393 1112 431 1169 418 1137 b 297 1074 368 1086 336 1074 b 243 1084 278 1074 260 1077 b 199 1113 226 1091 212 1100 b 170 1155 187 1125 177 1139 b 160 1208 163 1171 160 1189 m 471 1208 b 481 1261 471 1227 474 1244 b 510 1304 488 1278 498 1292 b 553 1333 522 1316 536 1326 b 607 1343 569 1340 588 1343 b 703 1304 645 1343 677 1330 b 742 1208 729 1278 742 1246 b 703 1112 742 1169 729 1137 b 607 1074 677 1086 645 1074 b 510 1112 568 1074 536 1086 b 471 1208 484 1137 471 1169 "},"Ì":{"ha":472,"x_min":0,"x_max":0,"o":"m 119 0 b 95 10 109 0 101 3 b 86 33 89 16 86 24 l 86 982 b 95 1006 86 991 89 999 b 119 1015 101 1012 109 1015 l 329 1015 b 353 1006 338 1015 346 1012 b 363 982 359 999 363 991 l 363 33 b 353 10 363 24 359 16 b 329 0 346 3 338 0 m 149 1063 b 117 1069 139 1063 129 1065 b 89 1083 106 1073 96 1078 l -111 1232 b -107 1265 -127 1245 -125 1256 l 93 1351 b 121 1353 101 1355 111 1356 b 144 1338 131 1350 139 1345 l 338 1089 b 342 1070 343 1081 345 1075 b 325 1063 340 1065 334 1063 "},"Í":{"ha":472,"x_min":0,"x_max":0,"o":"m 119 0 b 95 10 109 0 101 3 b 86 33 89 16 86 24 l 86 982 b 95 1006 86 991 89 999 b 119 1015 101 1012 109 1015 l 329 1015 b 353 1006 338 1015 346 1012 b 363 982 359 999 363 991 l 363 33 b 353 10 363 24 359 16 b 329 0 346 3 338 0 m 544 1265 b 549 1232 563 1256 564 1245 l 350 1083 b 322 1069 343 1078 333 1073 b 290 1063 310 1065 300 1063 l 114 1063 b 96 1070 105 1063 99 1065 b 101 1089 93 1075 95 1081 l 293 1338 b 317 1353 299 1345 306 1350 b 344 1351 327 1356 336 1355 "},"Î":{"ha":472,"x_min":0,"x_max":0,"o":"m 119 0 b 95 10 109 0 101 3 b 86 33 89 16 86 24 l 86 982 b 95 1006 86 991 89 999 b 119 1015 101 1012 109 1015 l 329 1015 b 353 1006 338 1015 346 1012 b 363 982 359 999 363 991 l 363 33 b 353 10 363 24 359 16 b 329 0 346 3 338 0 m 286 1351 b 316 1344 295 1351 305 1349 b 340 1325 327 1339 335 1332 l 533 1086 b 538 1067 539 1079 541 1072 b 521 1060 536 1062 530 1060 l 322 1060 b 292 1067 313 1060 303 1062 b 268 1086 282 1072 274 1079 l 243 1115 b 222 1126 238 1123 231 1126 b 201 1114 214 1125 207 1121 l 179 1085 b 156 1066 174 1077 166 1071 b 126 1058 145 1061 136 1058 l -74 1058 b -91 1066 -83 1058 -89 1061 b -86 1085 -93 1071 -92 1077 l 104 1325 b 128 1344 110 1332 118 1339 b 158 1351 139 1349 149 1351 "},"Ï":{"ha":472,"x_min":0,"x_max":0,"o":"m 119 0 b 95 10 109 0 101 3 b 86 33 89 16 86 24 l 86 982 b 95 1006 86 991 89 999 b 119 1015 101 1012 109 1015 l 329 1015 b 353 1006 338 1015 346 1012 b 363 982 359 999 363 991 l 363 33 b 353 10 363 24 359 16 b 329 0 346 3 338 0 m -68 1208 b -58 1261 -68 1227 -65 1244 b -28 1304 -51 1278 -41 1292 b 15 1333 -16 1316 -1 1326 b 69 1343 32 1340 50 1343 b 165 1304 108 1343 140 1330 b 203 1208 190 1278 203 1246 b 165 1112 203 1169 190 1137 b 69 1074 140 1086 108 1074 b 15 1084 50 1074 32 1077 b -28 1113 -1 1091 -16 1100 b -58 1155 -41 1125 -51 1139 b -68 1208 -65 1171 -68 1189 m 243 1208 b 253 1261 243 1227 247 1244 b 282 1304 260 1278 270 1292 b 325 1333 294 1316 308 1326 b 379 1343 342 1340 360 1343 b 475 1304 417 1343 449 1330 b 514 1208 501 1278 514 1246 b 475 1112 514 1169 501 1137 b 379 1074 449 1086 417 1074 b 282 1112 340 1074 308 1086 b 243 1208 256 1137 243 1169 "},"Ð":{"ha":1133,"x_min":0,"x_max":0,"o":"m 121 343 b 111 367 121 353 118 361 b 88 376 105 373 97 376 l 53 376 b 28 386 43 376 34 380 b 19 410 22 393 19 400 l 19 597 b 28 622 19 607 22 616 b 53 631 34 628 43 631 l 88 631 b 111 640 97 631 105 634 b 121 664 118 647 121 655 l 121 983 b 130 1008 121 994 124 1002 b 154 1017 136 1014 144 1017 l 532 1017 b 889 889 677 1017 796 974 b 1003 724 939 843 977 788 b 1042 508 1029 660 1042 588 b 1008 309 1042 436 1031 370 b 913 150 986 248 954 195 b 903 141 909 146 906 143 b 896 135 900 139 898 137 l 889 128 l 882 121 b 874 115 880 119 877 117 b 863 107 870 112 866 110 b 713 27 818 72 768 45 b 532 0 657 9 597 0 l 154 0 b 130 10 144 0 136 3 b 121 33 124 16 121 24 m 429 376 b 405 367 419 376 411 373 b 396 343 399 361 396 353 l 396 289 b 405 265 396 280 399 272 b 429 256 411 259 419 256 l 532 256 b 614 265 559 256 586 259 b 689 302 642 272 667 284 b 744 378 711 320 729 346 b 765 507 758 411 765 454 b 744 635 765 560 758 603 b 688 712 729 668 711 694 b 613 749 666 730 640 742 b 532 758 585 755 558 758 l 429 758 b 405 749 419 758 411 755 b 396 725 399 743 396 735 l 396 664 b 405 640 396 655 399 647 b 429 631 411 634 419 631 l 521 631 b 544 622 530 631 538 628 b 554 597 551 616 554 607 l 554 410 b 544 386 554 400 551 393 b 521 376 538 380 530 376 "},"Ñ":{"ha":1164,"x_min":0,"x_max":0,"o":"m 258 1100 b 238 1115 249 1102 242 1107 b 235 1140 233 1124 232 1132 b 260 1208 241 1163 250 1185 b 297 1272 270 1231 282 1253 b 350 1320 312 1292 330 1308 b 422 1340 370 1333 394 1339 b 505 1322 455 1341 482 1335 b 566 1284 528 1308 548 1296 b 616 1265 584 1272 601 1266 b 665 1299 631 1263 648 1275 b 688 1315 671 1306 678 1311 b 714 1315 697 1318 706 1318 l 828 1274 b 848 1256 837 1270 844 1264 b 850 1229 852 1247 853 1238 b 819 1160 842 1205 831 1182 b 775 1103 806 1139 792 1119 b 718 1063 758 1086 739 1073 b 647 1051 697 1053 673 1050 b 579 1074 621 1053 599 1061 b 525 1110 560 1088 542 1100 b 478 1126 508 1121 493 1126 b 431 1088 463 1125 447 1113 b 408 1070 425 1080 418 1074 b 381 1067 399 1066 390 1065 m 1031 33 b 1021 10 1031 24 1027 16 b 997 0 1014 3 1006 0 l 792 0 b 763 8 782 0 773 3 b 739 28 752 14 744 20 l 376 538 b 359 547 371 545 365 548 b 350 531 353 545 350 540 l 350 33 b 340 10 350 24 347 16 b 317 0 334 3 326 0 l 110 0 b 86 10 100 0 93 3 b 76 33 80 16 76 24 l 76 983 b 86 1007 76 993 80 1000 b 110 1017 93 1013 100 1017 l 318 1017 b 347 1009 327 1017 337 1014 b 371 990 357 1004 365 998 l 732 481 b 749 471 738 473 743 470 b 758 486 755 472 758 477 l 758 983 b 768 1007 758 993 762 1000 b 792 1017 775 1013 782 1017 l 997 1017 b 1021 1007 1006 1017 1014 1013 b 1031 983 1027 1000 1031 993 "},"Ò":{"ha":1150,"x_min":0,"x_max":0,"o":"m 31 508 b 72 713 31 581 44 649 b 185 880 100 776 138 832 b 351 993 232 928 288 965 b 556 1035 415 1021 483 1035 b 760 993 628 1035 696 1021 b 927 880 824 965 879 928 b 1040 713 975 832 1013 776 b 1082 508 1068 649 1082 581 b 1040 304 1082 436 1068 368 b 927 137 1013 240 975 184 b 760 24 879 89 824 51 b 556 -18 696 -4 628 -18 b 351 24 483 -18 415 -4 b 185 137 288 51 232 89 b 72 304 138 184 100 240 b 31 508 44 368 31 436 m 306 508 b 325 408 306 473 312 440 b 378 325 338 377 356 349 b 458 267 401 301 428 282 b 556 246 489 253 521 246 b 653 267 590 246 622 253 b 733 325 683 282 710 301 b 788 408 756 349 775 377 b 807 508 800 440 807 473 b 788 608 807 543 800 576 b 733 691 775 640 756 667 b 653 748 710 715 683 734 b 556 769 622 762 590 769 b 458 748 521 769 489 762 b 378 691 428 734 401 715 b 325 608 356 667 338 640 b 306 508 312 576 306 543 m 535 1063 b 503 1069 525 1063 515 1065 b 475 1083 492 1073 482 1078 l 275 1232 b 279 1265 259 1245 261 1256 l 479 1351 b 507 1353 488 1355 497 1356 b 531 1338 517 1350 525 1345 l 724 1089 b 728 1070 729 1081 731 1075 b 711 1063 726 1065 720 1063 "},"Ó":{"ha":1150,"x_min":0,"x_max":0,"o":"m 31 508 b 72 713 31 581 44 649 b 185 880 100 776 138 832 b 351 993 232 928 288 965 b 556 1035 415 1021 483 1035 b 760 993 628 1035 696 1021 b 927 880 824 965 879 928 b 1040 713 975 832 1013 776 b 1082 508 1068 649 1082 581 b 1040 304 1082 436 1068 368 b 927 137 1013 240 975 184 b 760 24 879 89 824 51 b 556 -18 696 -4 628 -18 b 351 24 483 -18 415 -4 b 185 137 288 51 232 89 b 72 304 138 184 100 240 b 31 508 44 368 31 436 m 306 508 b 325 408 306 473 312 440 b 378 325 338 377 356 349 b 458 267 401 301 428 282 b 556 246 489 253 521 246 b 653 267 590 246 622 253 b 733 325 683 282 710 301 b 788 408 756 349 775 377 b 807 508 800 440 807 473 b 788 608 807 543 800 576 b 733 691 775 640 756 667 b 653 748 710 715 683 734 b 556 769 622 762 590 769 b 458 748 521 769 489 762 b 378 691 428 734 401 715 b 325 608 356 667 338 640 b 306 508 312 576 306 543 m 828 1265 b 832 1232 846 1256 848 1245 l 633 1083 b 605 1069 626 1078 616 1073 b 574 1063 593 1065 583 1063 l 397 1063 b 379 1070 388 1063 382 1065 b 385 1089 376 1075 378 1081 l 576 1338 b 600 1353 582 1345 590 1350 b 628 1351 610 1356 619 1355 "},"Ô":{"ha":1150,"x_min":0,"x_max":0,"o":"m 31 508 b 72 713 31 581 44 649 b 185 880 100 776 138 832 b 351 993 232 928 288 965 b 556 1035 415 1021 483 1035 b 760 993 628 1035 696 1021 b 927 880 824 965 879 928 b 1040 713 975 832 1013 776 b 1082 508 1068 649 1082 581 b 1040 304 1082 436 1068 368 b 927 137 1013 240 975 184 b 760 24 879 89 824 51 b 556 -18 696 -4 628 -18 b 351 24 483 -18 415 -4 b 185 137 288 51 232 89 b 72 304 138 184 100 240 b 31 508 44 368 31 436 m 306 508 b 325 408 306 473 312 440 b 378 325 338 377 356 349 b 458 267 401 301 428 282 b 556 246 489 253 521 246 b 653 267 590 246 622 253 b 733 325 683 282 710 301 b 788 408 756 349 775 377 b 807 508 800 440 807 473 b 788 608 807 543 800 576 b 733 691 775 640 756 667 b 653 748 710 715 683 734 b 556 769 622 762 590 769 b 458 748 521 769 489 762 b 378 691 428 734 401 715 b 325 608 356 667 338 640 b 306 508 312 576 306 543 m 617 1351 b 647 1344 626 1351 636 1349 b 671 1325 657 1339 665 1332 l 864 1086 b 869 1067 869 1079 871 1072 b 851 1060 866 1062 861 1060 l 653 1060 b 623 1067 644 1060 634 1062 b 599 1086 612 1072 604 1079 l 574 1115 b 553 1126 568 1123 561 1126 b 532 1114 544 1125 538 1121 l 510 1085 b 486 1066 504 1077 496 1071 b 457 1058 476 1061 466 1058 l 257 1058 b 240 1066 248 1058 242 1061 b 244 1085 237 1071 239 1077 l 435 1325 b 459 1344 440 1332 448 1339 b 489 1351 470 1349 480 1351 "},"Õ":{"ha":1150,"x_min":0,"x_max":0,"o":"m 31 508 b 72 713 31 581 44 649 b 185 880 100 776 138 832 b 351 993 232 928 288 965 b 556 1035 415 1021 483 1035 b 760 993 628 1035 696 1021 b 927 880 824 965 879 928 b 1040 713 975 832 1013 776 b 1082 508 1068 649 1082 581 b 1040 304 1082 436 1068 368 b 927 137 1013 240 975 184 b 760 24 879 89 824 51 b 556 -18 696 -4 628 -18 b 351 24 483 -18 415 -4 b 185 137 288 51 232 89 b 72 304 138 184 100 240 b 31 508 44 368 31 436 m 306 508 b 325 408 306 473 312 440 b 378 325 338 377 356 349 b 458 267 401 301 428 282 b 556 246 489 253 521 246 b 653 267 590 246 622 253 b 733 325 683 282 710 301 b 788 408 756 349 775 377 b 807 508 800 440 807 473 b 788 608 807 543 800 576 b 733 691 775 640 756 667 b 653 748 710 715 683 734 b 556 769 622 762 590 769 b 458 748 521 769 489 762 b 378 691 428 734 401 715 b 325 608 356 667 338 640 b 306 508 312 576 306 543 m 258 1100 b 238 1115 249 1102 242 1107 b 235 1140 233 1124 232 1132 b 260 1208 241 1163 250 1185 b 297 1272 270 1231 282 1253 b 350 1320 312 1292 330 1308 b 422 1340 370 1333 394 1339 b 505 1322 455 1341 482 1335 b 566 1284 528 1308 548 1296 b 616 1265 584 1272 601 1266 b 665 1299 631 1263 648 1275 b 688 1315 671 1306 678 1311 b 714 1315 697 1318 706 1318 l 828 1274 b 848 1256 837 1270 844 1264 b 850 1229 852 1247 853 1238 b 819 1160 842 1205 831 1182 b 775 1103 806 1139 792 1119 b 718 1063 758 1086 739 1073 b 647 1051 697 1053 673 1050 b 579 1074 621 1053 599 1061 b 525 1110 560 1088 542 1100 b 478 1126 508 1121 493 1126 b 431 1088 463 1125 447 1113 b 408 1070 425 1080 418 1074 b 381 1067 399 1066 390 1065 "},"Ö":{"ha":1150,"x_min":0,"x_max":0,"o":"m 31 508 b 72 713 31 581 44 649 b 185 880 100 776 138 832 b 351 993 232 928 288 965 b 556 1035 415 1021 483 1035 b 760 993 628 1035 696 1021 b 927 880 824 965 879 928 b 1040 713 975 832 1013 776 b 1082 508 1068 649 1082 581 b 1040 304 1082 436 1068 368 b 927 137 1013 240 975 184 b 760 24 879 89 824 51 b 556 -18 696 -4 628 -18 b 351 24 483 -18 415 -4 b 185 137 288 51 232 89 b 72 304 138 184 100 240 b 31 508 44 368 31 436 m 306 508 b 325 408 306 473 312 440 b 378 325 338 377 356 349 b 458 267 401 301 428 282 b 556 246 489 253 521 246 b 653 267 590 246 622 253 b 733 325 683 282 710 301 b 788 408 756 349 775 377 b 807 508 800 440 807 473 b 788 608 807 543 800 576 b 733 691 775 640 756 667 b 653 748 710 715 683 734 b 556 769 622 762 590 769 b 458 748 521 769 489 762 b 378 691 428 734 401 715 b 325 608 356 667 338 640 b 306 508 312 576 306 543 m 264 1208 b 274 1261 264 1227 267 1244 b 303 1304 281 1278 291 1292 b 347 1333 316 1316 331 1326 b 401 1343 364 1340 382 1343 b 497 1304 440 1343 472 1330 b 535 1208 522 1278 535 1246 b 497 1112 535 1169 522 1137 b 401 1074 472 1086 440 1074 b 347 1084 382 1074 364 1077 b 303 1113 331 1091 316 1100 b 274 1155 291 1125 281 1139 b 264 1208 267 1171 264 1189 m 575 1208 b 585 1261 575 1227 578 1244 b 614 1304 592 1278 602 1292 b 657 1333 626 1316 640 1326 b 711 1343 674 1340 692 1343 b 807 1304 749 1343 781 1330 b 846 1208 833 1278 846 1246 b 807 1112 846 1169 833 1137 b 711 1074 781 1086 749 1074 b 614 1112 672 1074 640 1086 b 575 1208 588 1137 575 1169 "},"×":{"ha":700,"x_min":0,"x_max":0,"o":"m 543 551 b 533 528 537 545 533 537 b 543 504 533 520 537 512 l 658 388 b 669 363 666 380 669 372 b 658 340 669 354 666 347 l 515 199 b 491 189 508 192 500 189 b 467 200 482 189 474 193 l 353 314 b 330 325 346 321 339 325 b 306 314 321 325 313 321 l 190 199 b 167 189 184 192 176 189 b 144 200 159 189 151 193 l 3 343 b -7 367 -4 350 -7 359 b 3 390 -7 376 -4 384 l 115 503 b 126 527 123 510 126 518 b 115 550 126 536 123 544 l 0 665 b -11 688 -7 672 -11 679 b 0 711 -11 697 -7 705 l 144 854 b 169 864 152 861 160 864 b 192 854 178 864 185 861 l 306 742 b 330 732 313 735 321 732 b 353 742 339 732 346 735 l 468 856 b 492 865 475 862 484 865 b 517 856 501 865 509 862 l 660 714 b 671 691 667 707 671 700 b 660 668 671 682 667 675 "},"Ø":{"ha":1175,"x_min":0,"x_max":0,"o":"m 75 78 b 63 99 68 83 64 91 b 72 124 63 108 66 116 l 113 172 b 123 199 119 180 122 188 b 115 225 123 209 121 218 b 55 358 89 267 69 311 b 33 508 41 406 33 456 b 75 713 33 581 47 649 b 188 880 103 776 140 832 b 354 993 235 928 290 965 b 558 1035 418 1021 486 1035 b 785 983 638 1035 713 1018 b 812 980 793 980 802 978 b 836 993 822 981 830 986 l 874 1036 b 897 1048 880 1044 888 1047 b 921 1039 905 1048 913 1045 l 1040 933 b 1052 910 1048 927 1052 919 b 1043 886 1053 902 1050 894 l 1006 843 b 995 817 999 836 996 827 b 1001 790 995 808 997 799 b 1063 657 1028 749 1049 704 b 1085 508 1078 610 1085 560 b 1043 304 1085 436 1071 368 b 930 137 1015 240 978 184 b 763 24 882 89 826 51 b 558 -18 699 -4 631 -18 b 442 -5 519 -18 480 -14 b 335 32 405 4 369 16 b 308 35 326 36 317 37 b 283 21 298 33 290 28 l 243 -24 b 220 -35 237 -31 229 -35 b 196 -26 211 -36 203 -33 m 315 446 b 328 430 317 437 322 431 b 349 439 335 428 342 431 l 610 733 b 617 754 616 741 619 748 b 600 767 615 761 609 765 b 579 769 593 769 586 769 l 558 769 b 461 748 524 769 492 762 b 381 691 431 734 404 715 b 328 608 359 667 341 640 b 308 508 315 576 308 543 b 315 446 308 490 311 469 m 803 568 b 790 584 801 577 797 583 b 771 575 784 585 777 582 l 511 282 b 504 262 505 275 502 268 b 521 250 506 256 512 252 b 558 246 533 247 545 246 b 656 267 593 246 625 253 b 736 325 686 282 713 301 b 790 408 759 349 777 377 b 810 508 803 440 810 473 b 803 568 810 527 807 547 "},"Ù":{"ha":1094,"x_min":0,"x_max":0,"o":"m 75 982 b 85 1006 75 991 78 999 b 108 1015 91 1012 99 1015 l 318 1015 b 342 1006 327 1015 335 1012 b 351 982 348 999 351 991 l 351 419 b 369 330 351 383 357 353 b 412 274 380 306 395 288 b 467 246 429 261 447 251 b 519 238 486 240 504 238 b 572 246 535 238 553 240 b 626 274 592 251 610 261 b 669 330 643 288 657 306 b 686 419 680 353 686 383 l 686 982 b 696 1006 686 991 689 999 b 719 1015 702 1012 710 1015 l 929 1015 b 953 1006 938 1015 946 1012 b 963 982 959 999 963 991 l 963 419 b 931 240 963 354 952 294 b 842 103 910 187 881 141 b 701 15 803 65 756 35 b 519 -17 647 -6 586 -17 b 338 15 453 -17 392 -6 b 197 103 283 35 236 65 b 107 240 158 141 128 187 b 75 419 86 294 75 354 l 75 982 m 504 1063 b 473 1069 495 1063 484 1065 b 444 1083 461 1073 452 1078 l 244 1232 b 249 1265 229 1245 230 1256 l 449 1351 b 476 1353 457 1355 466 1356 b 500 1338 487 1350 494 1345 l 693 1089 b 698 1070 699 1081 700 1075 b 681 1063 696 1065 690 1063 "},"Ú":{"ha":1094,"x_min":0,"x_max":0,"o":"m 75 982 b 85 1006 75 991 78 999 b 108 1015 91 1012 99 1015 l 318 1015 b 342 1006 327 1015 335 1012 b 351 982 348 999 351 991 l 351 419 b 369 330 351 383 357 353 b 412 274 380 306 395 288 b 467 246 429 261 447 251 b 519 238 486 240 504 238 b 572 246 535 238 553 240 b 626 274 592 251 610 261 b 669 330 643 288 657 306 b 686 419 680 353 686 383 l 686 982 b 696 1006 686 991 689 999 b 719 1015 702 1012 710 1015 l 929 1015 b 953 1006 938 1015 946 1012 b 963 982 959 999 963 991 l 963 419 b 931 240 963 354 952 294 b 842 103 910 187 881 141 b 701 15 803 65 756 35 b 519 -17 647 -6 586 -17 b 338 15 453 -17 392 -6 b 197 103 283 35 236 65 b 107 240 158 141 128 187 b 75 419 86 294 75 354 l 75 982 m 778 1265 b 782 1232 796 1256 798 1245 l 583 1083 b 555 1069 576 1078 566 1073 b 524 1063 543 1065 533 1063 l 347 1063 b 329 1070 338 1063 332 1065 b 335 1089 326 1075 328 1081 l 526 1338 b 550 1353 532 1345 540 1350 b 578 1351 560 1356 569 1355 "},"Û":{"ha":1094,"x_min":0,"x_max":0,"o":"m 75 982 b 85 1006 75 991 78 999 b 108 1015 91 1012 99 1015 l 318 1015 b 342 1006 327 1015 335 1012 b 351 982 348 999 351 991 l 351 419 b 369 330 351 383 357 353 b 412 274 380 306 395 288 b 467 246 429 261 447 251 b 519 238 486 240 504 238 b 572 246 535 238 553 240 b 626 274 592 251 610 261 b 669 330 643 288 657 306 b 686 419 680 353 686 383 l 686 982 b 696 1006 686 991 689 999 b 719 1015 702 1012 710 1015 l 929 1015 b 953 1006 938 1015 946 1012 b 963 982 959 999 963 991 l 963 419 b 931 240 963 354 952 294 b 842 103 910 187 881 141 b 701 15 803 65 756 35 b 519 -17 647 -6 586 -17 b 338 15 453 -17 392 -6 b 197 103 283 35 236 65 b 107 240 158 141 128 187 b 75 419 86 294 75 354 l 75 982 m 581 1351 b 610 1344 590 1351 600 1349 b 635 1325 621 1339 629 1332 l 828 1086 b 833 1067 833 1079 835 1072 b 815 1060 830 1062 825 1060 l 617 1060 b 587 1067 607 1060 597 1062 b 563 1086 576 1072 568 1079 l 538 1115 b 517 1126 532 1123 525 1126 b 496 1114 508 1125 501 1121 l 474 1085 b 450 1066 468 1077 460 1071 b 421 1058 440 1061 430 1058 l 221 1058 b 203 1066 212 1058 206 1061 b 208 1085 201 1071 203 1077 l 399 1325 b 423 1344 404 1332 412 1339 b 453 1351 434 1349 444 1351 "},"Ü":{"ha":1094,"x_min":0,"x_max":0,"o":"m 75 982 b 85 1006 75 991 78 999 b 108 1015 91 1012 99 1015 l 318 1015 b 342 1006 327 1015 335 1012 b 351 982 348 999 351 991 l 351 419 b 369 330 351 383 357 353 b 412 274 380 306 395 288 b 467 246 429 261 447 251 b 519 238 486 240 504 238 b 572 246 535 238 553 240 b 626 274 592 251 610 261 b 669 330 643 288 657 306 b 686 419 680 353 686 383 l 686 982 b 696 1006 686 991 689 999 b 719 1015 702 1012 710 1015 l 929 1015 b 953 1006 938 1015 946 1012 b 963 982 959 999 963 991 l 963 419 b 931 240 963 354 952 294 b 842 103 910 187 881 141 b 701 15 803 65 756 35 b 519 -17 647 -6 586 -17 b 338 15 453 -17 392 -6 b 197 103 283 35 236 65 b 107 240 158 141 128 187 b 75 419 86 294 75 354 l 75 982 m 226 1208 b 237 1261 226 1227 230 1244 b 266 1304 244 1278 253 1292 b 310 1333 278 1316 293 1326 b 364 1343 326 1340 344 1343 b 460 1304 403 1343 435 1330 b 497 1208 485 1278 497 1246 b 460 1112 497 1169 485 1137 b 364 1074 435 1086 403 1074 b 310 1084 344 1074 326 1077 b 266 1113 293 1091 278 1100 b 237 1155 253 1125 244 1139 b 226 1208 230 1171 226 1189 m 538 1208 b 548 1261 538 1227 541 1244 b 576 1304 555 1278 564 1292 b 619 1333 588 1316 603 1326 b 674 1343 636 1340 654 1343 b 769 1304 712 1343 744 1330 b 808 1208 795 1278 808 1246 b 769 1112 808 1169 795 1137 b 674 1074 744 1086 712 1074 b 576 1112 635 1074 602 1086 b 538 1208 550 1137 538 1169 "},"Ý":{"ha":985,"x_min":0,"x_max":0,"o":"m 736 1265 b 740 1232 755 1256 756 1245 l 542 1083 b 513 1069 534 1078 525 1073 b 482 1063 502 1065 491 1063 l 306 1063 b 288 1070 296 1063 290 1065 b 293 1089 285 1075 287 1081 l 485 1338 b 508 1353 490 1345 498 1350 b 536 1351 519 1356 528 1355 m 625 414 b 613 383 620 406 616 395 b 607 351 609 371 607 361 l 607 33 b 597 10 607 24 604 16 b 574 0 591 3 583 0 l 364 0 b 340 10 355 0 347 3 b 331 33 334 16 331 24 l 331 350 b 326 383 331 359 329 370 b 314 413 322 395 319 405 b 144 693 258 508 202 601 b -29 976 86 785 28 879 b -32 1002 -34 985 -35 993 b -14 1015 -29 1011 -23 1015 l 233 1015 b 262 1007 243 1015 252 1013 b 283 986 272 1001 279 994 l 454 689 b 471 678 459 681 464 678 b 488 689 477 678 483 681 l 657 986 b 678 1007 662 994 669 1001 b 707 1015 688 1013 698 1015 l 957 1015 b 977 1006 966 1015 973 1012 b 972 976 981 999 980 989 "},"Þ":{"ha":988,"x_min":0,"x_max":0,"o":"m 383 133 b 360 124 374 133 366 130 b 350 100 353 118 350 110 l 350 33 b 340 10 350 24 347 16 b 317 0 334 3 326 0 l 107 0 b 83 10 98 0 90 3 b 74 33 77 16 74 24 l 74 983 b 83 1008 74 994 77 1002 b 107 1017 90 1014 98 1017 l 317 1017 b 340 1008 326 1017 334 1014 b 350 983 347 1002 350 994 l 350 918 b 360 894 350 909 353 901 b 383 885 366 888 374 885 l 532 885 b 678 855 584 885 633 875 b 798 774 724 835 764 808 b 878 655 832 741 859 701 b 908 508 898 609 908 560 b 878 363 908 456 898 408 b 798 243 859 317 832 277 b 678 163 764 209 724 182 b 532 133 633 143 584 133 m 383 628 b 360 619 374 628 366 625 b 350 594 353 613 350 605 l 350 422 b 360 399 350 413 353 405 b 383 389 366 392 374 389 l 532 389 b 572 399 546 389 559 392 b 603 427 584 406 595 416 b 625 466 612 439 619 452 b 633 508 631 480 633 494 b 625 552 633 523 631 538 b 603 590 619 566 612 579 b 572 617 595 601 584 610 b 532 628 559 624 546 628 "},"ß":{"ha":1813,"x_min":0,"x_max":0,"o":"m 189 349 b 338 272 239 316 288 291 b 475 244 387 254 432 244 b 568 262 516 244 547 250 b 600 314 589 273 600 291 b 586 342 600 326 595 335 b 549 360 577 349 565 355 b 496 371 534 364 516 368 b 433 382 475 374 455 377 b 362 395 413 386 389 390 b 278 417 334 400 306 408 b 192 454 249 427 221 439 b 117 511 164 469 139 488 b 63 594 94 534 77 562 b 43 707 50 626 43 663 b 81 865 43 771 56 824 b 176 965 106 907 137 940 b 304 1016 214 989 257 1006 b 442 1031 351 1026 397 1031 b 651 997 519 1031 589 1019 b 828 897 712 974 771 941 b 840 874 835 891 839 883 b 833 849 841 864 839 856 l 725 694 b 703 681 719 687 712 682 b 678 686 694 679 685 681 b 546 749 631 716 587 737 b 433 768 505 762 468 768 b 398 767 423 768 411 768 b 360 762 384 767 372 765 b 330 746 348 759 338 753 b 318 715 322 738 318 728 b 347 681 318 702 328 691 b 414 654 367 670 389 662 b 486 637 439 647 463 641 b 531 629 509 633 524 630 b 640 601 564 623 600 613 b 752 545 680 588 717 570 b 840 449 787 521 816 489 b 875 301 863 410 875 361 b 846 158 875 246 865 198 b 765 58 826 117 799 84 b 640 1 730 32 688 13 b 478 -18 591 -12 537 -18 b 343 -6 430 -18 385 -14 b 226 26 301 2 263 13 b 126 76 190 40 157 57 b 40 136 95 95 66 115 b 28 159 33 142 29 149 b 35 185 27 169 29 177 l 142 339 b 164 353 147 346 155 351 b 189 349 173 355 181 353 m 1082 349 b 1231 272 1132 316 1181 291 b 1368 244 1280 254 1325 244 b 1461 262 1409 244 1440 250 b 1493 314 1482 273 1493 291 b 1479 342 1493 326 1488 335 b 1442 360 1470 349 1458 355 b 1389 371 1427 364 1409 368 b 1326 382 1369 374 1348 377 b 1255 395 1306 386 1282 390 b 1171 417 1228 400 1200 408 b 1085 454 1142 427 1114 439 b 1010 511 1057 469 1032 488 b 956 594 988 534 970 562 b 936 707 943 626 936 663 b 974 865 936 771 949 824 b 1069 965 999 907 1030 940 b 1197 1016 1107 989 1150 1006 b 1335 1031 1244 1026 1290 1031 b 1544 997 1413 1031 1482 1019 b 1721 897 1605 974 1664 941 b 1733 874 1728 891 1732 883 b 1726 849 1734 864 1732 856 l 1618 694 b 1596 681 1613 687 1605 682 b 1571 686 1587 679 1578 681 b 1439 749 1524 716 1480 737 b 1326 768 1398 762 1361 768 b 1291 767 1316 768 1304 768 b 1253 762 1278 767 1265 765 b 1223 746 1241 759 1231 753 b 1211 715 1215 738 1211 728 b 1240 681 1211 702 1221 691 b 1307 654 1260 670 1282 662 b 1379 637 1332 647 1356 641 b 1424 629 1402 633 1417 630 b 1533 601 1457 623 1494 613 b 1645 545 1573 588 1610 570 b 1733 449 1680 521 1709 489 b 1768 301 1756 410 1768 361 b 1739 158 1768 246 1758 198 b 1658 58 1719 117 1692 84 b 1533 1 1623 32 1581 13 b 1371 -18 1484 -12 1430 -18 b 1236 -6 1323 -18 1278 -14 b 1119 26 1194 2 1156 13 b 1019 76 1083 40 1050 57 b 933 136 988 95 959 115 b 921 159 926 142 922 149 b 928 185 920 169 922 177 l 1035 339 b 1057 353 1040 346 1048 351 b 1082 349 1066 355 1075 353 "},"à":{"ha":1090,"x_min":0,"x_max":0,"o":"m 456 1063 b 424 1069 446 1063 436 1065 b 396 1083 413 1073 403 1078 l 196 1232 b 200 1265 180 1245 181 1256 l 400 1351 b 428 1353 408 1355 418 1356 b 451 1338 438 1350 446 1345 l 644 1089 b 649 1070 650 1081 652 1075 b 632 1063 647 1065 641 1063 m 375 985 b 394 1006 379 993 385 1000 b 422 1015 403 1012 412 1015 l 617 1015 b 644 1006 626 1015 635 1012 b 663 985 653 1000 659 993 l 1068 40 b 1066 14 1072 32 1071 23 b 1036 0 1061 5 1051 0 l 799 0 b 770 9 788 0 779 3 b 750 31 761 15 755 22 l 713 114 b 692 135 708 122 701 129 b 665 144 684 141 675 144 l 372 144 b 344 135 362 144 353 141 b 325 114 335 129 329 122 l 286 31 b 267 9 282 22 276 15 b 240 0 259 3 250 0 l 1 0 b -13 3 -3 0 -8 1 b -26 11 -18 5 -22 7 b -32 25 -29 15 -31 19 b -28 44 -33 31 -31 37 l 375 985 m 581 381 b 601 390 590 381 597 384 b 600 411 605 396 605 403 b 567 492 591 434 580 461 b 531 579 554 523 542 552 b 518 592 527 588 523 592 b 506 579 513 592 509 588 l 436 411 b 436 390 432 403 432 396 b 457 381 440 384 447 381 "},"á":{"ha":1090,"x_min":0,"x_max":0,"o":"m 847 1265 b 851 1232 866 1256 867 1245 l 653 1083 b 624 1069 645 1078 636 1073 b 593 1063 613 1065 602 1063 l 417 1063 b 399 1070 407 1063 401 1065 b 404 1089 396 1075 398 1081 l 596 1338 b 619 1353 601 1345 609 1350 b 647 1351 630 1356 639 1355 m 375 985 b 394 1006 379 993 385 1000 b 422 1015 403 1012 412 1015 l 617 1015 b 644 1006 626 1015 635 1012 b 663 985 653 1000 659 993 l 1068 40 b 1066 14 1072 32 1071 23 b 1036 0 1061 5 1051 0 l 799 0 b 770 9 788 0 779 3 b 750 31 761 15 755 22 l 713 114 b 692 135 708 122 701 129 b 665 144 684 141 675 144 l 372 144 b 344 135 362 144 353 141 b 325 114 335 129 329 122 l 286 31 b 267 9 282 22 276 15 b 240 0 259 3 250 0 l 1 0 b -13 3 -3 0 -8 1 b -26 11 -18 5 -22 7 b -32 25 -29 15 -31 19 b -28 44 -33 31 -31 37 l 375 985 m 581 381 b 601 390 590 381 597 384 b 600 411 605 396 605 403 b 567 492 591 434 580 461 b 531 579 554 523 542 552 b 518 592 527 588 523 592 b 506 579 513 592 509 588 l 436 411 b 436 390 432 403 432 396 b 457 381 440 384 447 381 "},"â":{"ha":1090,"x_min":0,"x_max":0,"o":"m 578 1351 b 608 1344 587 1351 597 1349 b 632 1325 618 1339 626 1332 l 825 1086 b 830 1067 831 1079 832 1072 b 813 1060 828 1062 822 1060 l 614 1060 b 584 1067 605 1060 595 1062 b 560 1086 573 1072 565 1079 l 535 1115 b 514 1126 529 1123 522 1126 b 493 1114 506 1125 499 1121 l 471 1085 b 447 1066 465 1077 457 1071 b 418 1058 437 1061 427 1058 l 218 1058 b 201 1066 209 1058 203 1061 b 206 1085 198 1071 200 1077 l 396 1325 b 420 1344 401 1332 409 1339 b 450 1351 431 1349 441 1351 m 375 985 b 394 1006 379 993 385 1000 b 422 1015 403 1012 412 1015 l 617 1015 b 644 1006 626 1015 635 1012 b 663 985 653 1000 659 993 l 1068 40 b 1066 14 1072 32 1071 23 b 1036 0 1061 5 1051 0 l 799 0 b 770 9 788 0 779 3 b 750 31 761 15 755 22 l 713 114 b 692 135 708 122 701 129 b 665 144 684 141 675 144 l 372 144 b 344 135 362 144 353 141 b 325 114 335 129 329 122 l 286 31 b 267 9 282 22 276 15 b 240 0 259 3 250 0 l 1 0 b -13 3 -3 0 -8 1 b -26 11 -18 5 -22 7 b -32 25 -29 15 -31 19 b -28 44 -33 31 -31 37 l 375 985 m 581 381 b 601 390 590 381 597 384 b 600 411 605 396 605 403 b 567 492 591 434 580 461 b 531 579 554 523 542 552 b 518 592 527 588 523 592 b 506 579 513 592 509 588 l 436 411 b 436 390 432 403 432 396 b 457 381 440 384 447 381 "},"ã":{"ha":1090,"x_min":0,"x_max":0,"o":"m 243 1100 b 222 1115 234 1102 227 1107 b 219 1140 218 1124 217 1132 b 244 1208 226 1163 234 1185 b 282 1272 255 1231 267 1253 b 335 1320 297 1292 314 1308 b 407 1340 355 1333 379 1339 b 490 1322 439 1341 467 1335 b 551 1284 512 1308 533 1296 b 601 1265 569 1272 585 1266 b 650 1299 616 1263 632 1275 b 672 1315 656 1306 663 1311 b 699 1315 681 1318 690 1318 l 813 1274 b 833 1256 822 1270 828 1264 b 835 1229 837 1247 838 1238 b 803 1160 826 1205 816 1182 b 760 1103 791 1139 776 1119 b 703 1063 743 1086 724 1073 b 632 1051 681 1053 658 1050 b 564 1074 606 1053 583 1061 b 510 1110 544 1088 526 1100 b 463 1126 493 1121 477 1126 b 415 1088 448 1125 432 1113 b 393 1070 410 1080 402 1074 b 365 1067 384 1066 375 1065 m 375 985 b 394 1006 379 993 385 1000 b 422 1015 403 1012 412 1015 l 617 1015 b 644 1006 626 1015 635 1012 b 663 985 653 1000 659 993 l 1068 40 b 1066 14 1072 32 1071 23 b 1036 0 1061 5 1051 0 l 799 0 b 770 9 788 0 779 3 b 750 31 761 15 755 22 l 713 114 b 692 135 708 122 701 129 b 665 144 684 141 675 144 l 372 144 b 344 135 362 144 353 141 b 325 114 335 129 329 122 l 286 31 b 267 9 282 22 276 15 b 240 0 259 3 250 0 l 1 0 b -13 3 -3 0 -8 1 b -26 11 -18 5 -22 7 b -32 25 -29 15 -31 19 b -28 44 -33 31 -31 37 l 375 985 m 581 381 b 601 390 590 381 597 384 b 600 411 605 396 605 403 b 567 492 591 434 580 461 b 531 579 554 523 542 552 b 518 592 527 588 523 592 b 506 579 513 592 509 588 l 436 411 b 436 390 432 403 432 396 b 457 381 440 384 447 381 "},"ä":{"ha":1090,"x_min":0,"x_max":0,"o":"m 222 1208 b 233 1261 222 1227 226 1244 b 262 1304 240 1278 249 1292 b 306 1333 274 1316 289 1326 b 360 1343 322 1340 340 1343 b 456 1304 399 1343 431 1330 b 493 1208 481 1278 493 1246 b 456 1112 493 1169 481 1137 b 360 1074 431 1086 399 1074 b 306 1084 340 1074 322 1077 b 262 1113 289 1091 274 1100 b 233 1155 249 1125 240 1139 b 222 1208 226 1171 222 1189 m 533 1208 b 544 1261 533 1227 537 1244 b 572 1304 551 1278 560 1292 b 615 1333 584 1316 599 1326 b 669 1343 632 1340 650 1343 b 765 1304 707 1343 739 1330 b 804 1208 791 1278 804 1246 b 765 1112 804 1169 791 1137 b 669 1074 739 1086 707 1074 b 572 1112 631 1074 598 1086 b 533 1208 546 1137 533 1169 m 375 985 b 394 1006 379 993 385 1000 b 422 1015 403 1012 412 1015 l 617 1015 b 644 1006 626 1015 635 1012 b 663 985 653 1000 659 993 l 1068 40 b 1066 14 1072 32 1071 23 b 1036 0 1061 5 1051 0 l 799 0 b 770 9 788 0 779 3 b 750 31 761 15 755 22 l 713 114 b 692 135 708 122 701 129 b 665 144 684 141 675 144 l 372 144 b 344 135 362 144 353 141 b 325 114 335 129 329 122 l 286 31 b 267 9 282 22 276 15 b 240 0 259 3 250 0 l 1 0 b -13 3 -3 0 -8 1 b -26 11 -18 5 -22 7 b -32 25 -29 15 -31 19 b -28 44 -33 31 -31 37 l 375 985 m 581 381 b 601 390 590 381 597 384 b 600 411 605 396 605 403 b 567 492 591 434 580 461 b 531 579 554 523 542 552 b 518 592 527 588 523 592 b 506 579 513 592 509 588 l 436 411 b 436 390 432 403 432 396 b 457 381 440 384 447 381 "},"å":{"ha":1090,"x_min":0,"x_max":0,"o":"m 1068 40 b 1066 14 1072 32 1071 23 b 1036 0 1061 5 1051 0 l 799 0 b 770 9 788 0 779 3 b 750 31 761 15 755 22 l 713 114 b 692 135 708 122 701 129 b 665 144 684 141 675 144 l 372 144 b 344 135 362 144 353 141 b 325 114 335 129 329 122 l 286 31 b 267 9 282 22 276 15 b 240 0 259 3 250 0 l 1 0 b -13 3 -3 0 -8 1 b -26 11 -18 5 -22 7 b -32 25 -29 15 -31 19 b -28 44 -33 31 -31 37 l 371 976 b 343 1029 359 992 350 1010 b 333 1090 337 1049 333 1069 b 348 1162 333 1115 338 1139 b 388 1221 358 1184 371 1204 b 446 1260 404 1238 424 1251 b 518 1275 468 1270 492 1275 b 590 1260 543 1275 567 1270 b 649 1221 612 1251 632 1238 b 688 1162 665 1204 678 1184 b 703 1090 698 1139 703 1115 b 665 979 703 1049 690 1012 l 1068 40 m 581 381 b 601 390 590 381 597 384 b 600 411 605 396 605 403 b 567 492 591 434 580 461 b 531 579 554 523 542 552 b 518 592 527 588 523 592 b 506 579 513 592 509 588 l 436 411 b 436 390 432 403 432 396 b 457 381 440 384 447 381 m 458 1089 b 476 1047 458 1072 464 1058 b 518 1029 487 1035 501 1029 b 560 1047 535 1029 549 1035 b 578 1089 572 1058 578 1072 b 560 1131 578 1106 572 1120 b 518 1149 549 1143 535 1149 b 476 1131 501 1149 487 1143 b 458 1089 464 1120 458 1106 "},"æ":{"ha":1475,"x_min":0,"x_max":0,"o":"m 833 671 b 843 647 833 662 837 654 b 867 638 850 641 857 638 l 1243 638 b 1267 628 1253 638 1261 634 b 1276 604 1273 621 1276 613 l 1276 411 b 1267 388 1276 402 1273 394 b 1243 378 1261 381 1253 378 l 867 378 b 843 368 857 378 850 375 b 833 344 837 362 833 354 l 833 293 b 843 269 833 284 837 276 b 867 260 850 263 857 260 l 1299 260 b 1323 250 1309 260 1317 256 b 1332 226 1329 244 1332 236 l 1332 33 b 1323 10 1332 24 1329 16 b 1299 0 1317 3 1309 0 l 590 0 b 567 10 581 0 573 3 b 557 33 560 16 557 24 l 557 121 b 548 144 557 130 554 138 b 524 154 542 151 534 154 l 378 154 b 349 146 369 154 359 151 b 326 126 338 140 331 134 b 294 77 316 111 306 94 b 263 28 283 60 273 44 b 240 8 257 20 249 14 b 210 0 230 3 220 0 l -40 0 b -58 8 -50 0 -56 3 b -54 28 -61 14 -60 20 l 579 990 b 601 1010 584 998 591 1004 b 631 1018 612 1015 621 1018 l 1299 1018 b 1323 1008 1309 1018 1317 1015 b 1332 985 1329 1002 1332 994 l 1332 793 b 1323 769 1332 784 1329 776 b 1299 760 1317 763 1309 760 l 867 760 b 843 750 857 760 850 756 b 833 726 837 744 833 736 m 481 422 b 481 399 476 413 476 405 b 517 389 486 392 498 389 l 524 389 b 550 396 534 389 543 391 b 561 418 557 400 561 408 l 561 511 b 556 528 561 521 559 527 b 544 515 553 529 549 525 "},"ç":{"ha":1086,"x_min":0,"x_max":0,"o":"m 444 -240 b 463 -223 448 -232 454 -226 b 489 -221 471 -220 480 -219 b 520 -228 498 -224 509 -226 b 560 -232 532 -231 545 -232 l 569 -232 b 585 -228 574 -232 579 -231 b 600 -218 590 -226 595 -223 b 607 -196 605 -213 607 -206 b 590 -172 607 -184 601 -176 b 561 -165 578 -167 569 -165 b 533 -169 551 -166 542 -168 b 511 -175 525 -171 518 -173 b 482 -176 502 -178 492 -178 b 457 -162 472 -175 463 -170 l 457 -161 b 444 -135 450 -155 446 -146 b 446 -106 443 -125 443 -115 l 476 -32 b 473 -17 478 -25 477 -20 b 457 -8 469 -13 463 -10 b 286 57 396 4 339 25 b 150 172 233 88 188 127 b 60 326 112 218 82 269 b 28 507 39 383 28 443 b 69 711 28 579 42 647 b 184 878 97 775 135 831 b 354 990 233 925 289 963 b 563 1032 419 1018 488 1032 b 728 1011 624 1032 679 1025 b 861 953 777 997 821 978 b 969 862 901 928 937 897 b 1057 744 1001 826 1030 787 b 1060 721 1062 737 1063 729 b 1043 703 1057 713 1051 706 l 846 625 b 818 625 837 621 827 621 b 797 642 809 629 802 634 b 700 740 770 684 738 717 b 563 774 662 762 616 774 b 463 751 527 774 494 766 b 382 692 432 737 405 717 b 328 607 359 668 341 639 b 308 507 315 575 308 541 b 328 406 308 472 315 438 b 382 322 341 374 359 346 b 463 264 405 298 432 279 b 563 242 494 249 527 242 b 701 278 613 242 659 254 b 799 374 742 303 775 335 b 819 390 803 381 810 387 b 846 390 828 394 837 394 l 1043 313 b 1060 295 1051 309 1057 303 b 1057 271 1063 287 1062 279 b 882 76 1009 192 950 127 b 629 -14 813 25 729 -5 l 626 -15 b 615 -32 616 -17 613 -23 b 643 -46 618 -41 627 -46 b 693 -61 658 -46 675 -51 b 742 -107 712 -71 728 -87 b 761 -158 750 -120 756 -137 b 765 -218 766 -178 767 -199 b 738 -301 763 -250 754 -278 b 674 -354 722 -323 700 -341 b 611 -372 652 -364 631 -370 b 569 -375 591 -374 577 -375 b 489 -363 539 -374 512 -370 b 433 -342 466 -356 447 -349 b 417 -321 425 -337 419 -330 b 419 -294 414 -312 415 -303 "},"è":{"ha":949,"x_min":0,"x_max":0,"o":"m 349 669 b 358 646 349 660 352 652 b 382 636 365 639 373 636 l 758 636 b 782 626 768 636 775 633 b 792 603 788 620 792 612 l 792 411 b 782 388 792 402 788 394 b 758 378 775 381 768 378 l 382 378 b 358 368 373 378 365 375 b 349 344 352 362 349 354 l 349 292 b 358 268 349 282 352 275 b 382 258 365 262 373 258 l 814 258 b 838 249 823 258 831 255 b 847 225 844 242 847 234 l 847 33 b 838 10 847 24 844 16 b 814 0 831 3 823 0 l 107 0 b 83 10 98 0 90 3 b 74 33 77 16 74 24 l 74 983 b 83 1007 74 993 77 1000 b 107 1017 90 1013 98 1017 l 814 1017 b 838 1007 823 1017 831 1013 b 847 983 844 1000 847 993 l 847 794 b 838 771 847 785 844 777 b 814 761 831 764 823 761 l 382 761 b 358 751 373 761 365 758 b 349 728 352 745 349 737 m 440 1063 b 409 1069 431 1063 421 1065 b 381 1083 397 1073 388 1078 l 181 1232 b 185 1265 165 1245 166 1256 l 385 1351 b 413 1353 393 1355 402 1356 b 436 1338 423 1350 431 1345 l 629 1089 b 634 1070 635 1081 636 1075 b 617 1063 632 1065 626 1063 "},"é":{"ha":949,"x_min":0,"x_max":0,"o":"m 349 669 b 358 646 349 660 352 652 b 382 636 365 639 373 636 l 758 636 b 782 626 768 636 775 633 b 792 603 788 620 792 612 l 792 411 b 782 388 792 402 788 394 b 758 378 775 381 768 378 l 382 378 b 358 368 373 378 365 375 b 349 344 352 362 349 354 l 349 292 b 358 268 349 282 352 275 b 382 258 365 262 373 258 l 814 258 b 838 249 823 258 831 255 b 847 225 844 242 847 234 l 847 33 b 838 10 847 24 844 16 b 814 0 831 3 823 0 l 107 0 b 83 10 98 0 90 3 b 74 33 77 16 74 24 l 74 983 b 83 1007 74 993 77 1000 b 107 1017 90 1013 98 1017 l 814 1017 b 838 1007 823 1017 831 1013 b 847 983 844 1000 847 993 l 847 794 b 838 771 847 785 844 777 b 814 761 831 764 823 761 l 382 761 b 358 751 373 761 365 758 b 349 728 352 745 349 737 m 715 1265 b 719 1232 734 1256 735 1245 l 521 1083 b 492 1069 513 1078 504 1073 b 461 1063 481 1065 470 1063 l 285 1063 b 267 1070 275 1063 269 1065 b 272 1089 264 1075 266 1081 l 464 1338 b 488 1353 469 1345 477 1350 b 515 1351 498 1356 507 1355 "},"ê":{"ha":949,"x_min":0,"x_max":0,"o":"m 349 669 b 358 646 349 660 352 652 b 382 636 365 639 373 636 l 758 636 b 782 626 768 636 775 633 b 792 603 788 620 792 612 l 792 411 b 782 388 792 402 788 394 b 758 378 775 381 768 378 l 382 378 b 358 368 373 378 365 375 b 349 344 352 362 349 354 l 349 292 b 358 268 349 282 352 275 b 382 258 365 262 373 258 l 814 258 b 838 249 823 258 831 255 b 847 225 844 242 847 234 l 847 33 b 838 10 847 24 844 16 b 814 0 831 3 823 0 l 107 0 b 83 10 98 0 90 3 b 74 33 77 16 74 24 l 74 983 b 83 1007 74 993 77 1000 b 107 1017 90 1013 98 1017 l 814 1017 b 838 1007 823 1017 831 1013 b 847 983 844 1000 847 993 l 847 794 b 838 771 847 785 844 777 b 814 761 831 764 823 761 l 382 761 b 358 751 373 761 365 758 b 349 728 352 745 349 737 m 515 1351 b 545 1344 525 1351 534 1349 b 569 1325 556 1339 564 1332 l 763 1086 b 767 1067 768 1079 770 1072 b 750 1060 765 1062 759 1060 l 551 1060 b 522 1067 542 1060 532 1062 b 497 1086 511 1072 503 1079 l 472 1115 b 451 1126 467 1123 460 1126 b 431 1114 443 1125 436 1121 l 408 1085 b 385 1066 403 1077 395 1071 b 356 1058 375 1061 365 1058 l 156 1058 b 138 1066 146 1058 141 1061 b 143 1085 136 1071 138 1077 l 333 1325 b 358 1344 339 1332 347 1339 b 388 1351 368 1349 378 1351 "},"ë":{"ha":949,"x_min":0,"x_max":0,"o":"m 349 669 b 358 646 349 660 352 652 b 382 636 365 639 373 636 l 758 636 b 782 626 768 636 775 633 b 792 603 788 620 792 612 l 792 411 b 782 388 792 402 788 394 b 758 378 775 381 768 378 l 382 378 b 358 368 373 378 365 375 b 349 344 352 362 349 354 l 349 292 b 358 268 349 282 352 275 b 382 258 365 262 373 258 l 814 258 b 838 249 823 258 831 255 b 847 225 844 242 847 234 l 847 33 b 838 10 847 24 844 16 b 814 0 831 3 823 0 l 107 0 b 83 10 98 0 90 3 b 74 33 77 16 74 24 l 74 983 b 83 1007 74 993 77 1000 b 107 1017 90 1013 98 1017 l 814 1017 b 838 1007 823 1017 831 1013 b 847 983 844 1000 847 993 l 847 794 b 838 771 847 785 844 777 b 814 761 831 764 823 761 l 382 761 b 358 751 373 761 365 758 b 349 728 352 745 349 737 m 160 1208 b 170 1261 160 1227 163 1244 b 199 1304 177 1278 187 1292 b 243 1333 212 1316 226 1326 b 297 1343 260 1340 278 1343 b 393 1304 336 1343 368 1330 b 431 1208 418 1278 431 1246 b 393 1112 431 1169 418 1137 b 297 1074 368 1086 336 1074 b 243 1084 278 1074 260 1077 b 199 1113 226 1091 212 1100 b 170 1155 187 1125 177 1139 b 160 1208 163 1171 160 1189 m 471 1208 b 481 1261 471 1227 474 1244 b 510 1304 488 1278 498 1292 b 553 1333 522 1316 536 1326 b 607 1343 569 1340 588 1343 b 703 1304 645 1343 677 1330 b 742 1208 729 1278 742 1246 b 703 1112 742 1169 729 1137 b 607 1074 677 1086 645 1074 b 510 1112 568 1074 536 1086 b 471 1208 484 1137 471 1169 "},"ì":{"ha":472,"x_min":0,"x_max":0,"o":"m 119 0 b 95 10 109 0 101 3 b 86 33 89 16 86 24 l 86 982 b 95 1006 86 991 89 999 b 119 1015 101 1012 109 1015 l 329 1015 b 353 1006 338 1015 346 1012 b 363 982 359 999 363 991 l 363 33 b 353 10 363 24 359 16 b 329 0 346 3 338 0 m 149 1063 b 117 1069 139 1063 129 1065 b 89 1083 106 1073 96 1078 l -111 1232 b -107 1265 -127 1245 -125 1256 l 93 1351 b 121 1353 101 1355 111 1356 b 144 1338 131 1350 139 1345 l 338 1089 b 342 1070 343 1081 345 1075 b 325 1063 340 1065 334 1063 "},"í":{"ha":472,"x_min":0,"x_max":0,"o":"m 119 0 b 95 10 109 0 101 3 b 86 33 89 16 86 24 l 86 982 b 95 1006 86 991 89 999 b 119 1015 101 1012 109 1015 l 329 1015 b 353 1006 338 1015 346 1012 b 363 982 359 999 363 991 l 363 33 b 353 10 363 24 359 16 b 329 0 346 3 338 0 m 544 1265 b 549 1232 563 1256 564 1245 l 350 1083 b 322 1069 343 1078 333 1073 b 290 1063 310 1065 300 1063 l 114 1063 b 96 1070 105 1063 99 1065 b 101 1089 93 1075 95 1081 l 293 1338 b 317 1353 299 1345 306 1350 b 344 1351 327 1356 336 1355 "},"î":{"ha":472,"x_min":0,"x_max":0,"o":"m 119 0 b 95 10 109 0 101 3 b 86 33 89 16 86 24 l 86 982 b 95 1006 86 991 89 999 b 119 1015 101 1012 109 1015 l 329 1015 b 353 1006 338 1015 346 1012 b 363 982 359 999 363 991 l 363 33 b 353 10 363 24 359 16 b 329 0 346 3 338 0 m 286 1351 b 316 1344 295 1351 305 1349 b 340 1325 327 1339 335 1332 l 533 1086 b 538 1067 539 1079 541 1072 b 521 1060 536 1062 530 1060 l 322 1060 b 292 1067 313 1060 303 1062 b 268 1086 282 1072 274 1079 l 243 1115 b 222 1126 238 1123 231 1126 b 201 1114 214 1125 207 1121 l 179 1085 b 156 1066 174 1077 166 1071 b 126 1058 145 1061 136 1058 l -74 1058 b -91 1066 -83 1058 -89 1061 b -86 1085 -93 1071 -92 1077 l 104 1325 b 128 1344 110 1332 118 1339 b 158 1351 139 1349 149 1351 "},"ï":{"ha":472,"x_min":0,"x_max":0,"o":"m 119 0 b 95 10 109 0 101 3 b 86 33 89 16 86 24 l 86 982 b 95 1006 86 991 89 999 b 119 1015 101 1012 109 1015 l 329 1015 b 353 1006 338 1015 346 1012 b 363 982 359 999 363 991 l 363 33 b 353 10 363 24 359 16 b 329 0 346 3 338 0 m -68 1208 b -58 1261 -68 1227 -65 1244 b -28 1304 -51 1278 -41 1292 b 15 1333 -16 1316 -1 1326 b 69 1343 32 1340 50 1343 b 165 1304 108 1343 140 1330 b 203 1208 190 1278 203 1246 b 165 1112 203 1169 190 1137 b 69 1074 140 1086 108 1074 b 15 1084 50 1074 32 1077 b -28 1113 -1 1091 -16 1100 b -58 1155 -41 1125 -51 1139 b -68 1208 -65 1171 -68 1189 m 243 1208 b 253 1261 243 1227 247 1244 b 282 1304 260 1278 270 1292 b 325 1333 294 1316 308 1326 b 379 1343 342 1340 360 1343 b 475 1304 417 1343 449 1330 b 514 1208 501 1278 514 1246 b 475 1112 514 1169 501 1137 b 379 1074 449 1086 417 1074 b 282 1112 340 1074 308 1086 b 243 1208 256 1137 243 1169 "},"ð":{"ha":1133,"x_min":0,"x_max":0,"o":"m 121 343 b 111 367 121 353 118 361 b 88 376 105 373 97 376 l 53 376 b 28 386 43 376 34 380 b 19 410 22 393 19 400 l 19 597 b 28 622 19 607 22 616 b 53 631 34 628 43 631 l 88 631 b 111 640 97 631 105 634 b 121 664 118 647 121 655 l 121 983 b 130 1008 121 994 124 1002 b 154 1017 136 1014 144 1017 l 532 1017 b 889 889 677 1017 796 974 b 1003 724 939 843 977 788 b 1042 508 1029 660 1042 588 b 1008 309 1042 436 1031 370 b 913 150 986 248 954 195 b 903 141 909 146 906 143 b 896 135 900 139 898 137 l 889 128 l 882 121 b 874 115 880 119 877 117 b 863 107 870 112 866 110 b 713 27 818 72 768 45 b 532 0 657 9 597 0 l 154 0 b 130 10 144 0 136 3 b 121 33 124 16 121 24 m 429 376 b 405 367 419 376 411 373 b 396 343 399 361 396 353 l 396 289 b 405 265 396 280 399 272 b 429 256 411 259 419 256 l 532 256 b 614 265 559 256 586 259 b 689 302 642 272 667 284 b 744 378 711 320 729 346 b 765 507 758 411 765 454 b 744 635 765 560 758 603 b 688 712 729 668 711 694 b 613 749 666 730 640 742 b 532 758 585 755 558 758 l 429 758 b 405 749 419 758 411 755 b 396 725 399 743 396 735 l 396 664 b 405 640 396 655 399 647 b 429 631 411 634 419 631 l 521 631 b 544 622 530 631 538 628 b 554 597 551 616 554 607 l 554 410 b 544 386 554 400 551 393 b 521 376 538 380 530 376 "},"ñ":{"ha":1164,"x_min":0,"x_max":0,"o":"m 258 1100 b 238 1115 249 1102 242 1107 b 235 1140 233 1124 232 1132 b 260 1208 241 1163 250 1185 b 297 1272 270 1231 282 1253 b 350 1320 312 1292 330 1308 b 422 1340 370 1333 394 1339 b 505 1322 455 1341 482 1335 b 566 1284 528 1308 548 1296 b 616 1265 584 1272 601 1266 b 665 1299 631 1263 648 1275 b 688 1315 671 1306 678 1311 b 714 1315 697 1318 706 1318 l 828 1274 b 848 1256 837 1270 844 1264 b 850 1229 852 1247 853 1238 b 819 1160 842 1205 831 1182 b 775 1103 806 1139 792 1119 b 718 1063 758 1086 739 1073 b 647 1051 697 1053 673 1050 b 579 1074 621 1053 599 1061 b 525 1110 560 1088 542 1100 b 478 1126 508 1121 493 1126 b 431 1088 463 1125 447 1113 b 408 1070 425 1080 418 1074 b 381 1067 399 1066 390 1065 m 1031 33 b 1021 10 1031 24 1027 16 b 997 0 1014 3 1006 0 l 792 0 b 763 8 782 0 773 3 b 739 28 752 14 744 20 l 376 538 b 359 547 371 545 365 548 b 350 531 353 545 350 540 l 350 33 b 340 10 350 24 347 16 b 317 0 334 3 326 0 l 110 0 b 86 10 100 0 93 3 b 76 33 80 16 76 24 l 76 983 b 86 1007 76 993 80 1000 b 110 1017 93 1013 100 1017 l 318 1017 b 347 1009 327 1017 337 1014 b 371 990 357 1004 365 998 l 732 481 b 749 471 738 473 743 470 b 758 486 755 472 758 477 l 758 983 b 768 1007 758 993 762 1000 b 792 1017 775 1013 782 1017 l 997 1017 b 1021 1007 1006 1017 1014 1013 b 1031 983 1027 1000 1031 993 "},"ò":{"ha":1150,"x_min":0,"x_max":0,"o":"m 31 508 b 72 713 31 581 44 649 b 185 880 100 776 138 832 b 351 993 232 928 288 965 b 556 1035 415 1021 483 1035 b 760 993 628 1035 696 1021 b 927 880 824 965 879 928 b 1040 713 975 832 1013 776 b 1082 508 1068 649 1082 581 b 1040 304 1082 436 1068 368 b 927 137 1013 240 975 184 b 760 24 879 89 824 51 b 556 -18 696 -4 628 -18 b 351 24 483 -18 415 -4 b 185 137 288 51 232 89 b 72 304 138 184 100 240 b 31 508 44 368 31 436 m 306 508 b 325 408 306 473 312 440 b 378 325 338 377 356 349 b 458 267 401 301 428 282 b 556 246 489 253 521 246 b 653 267 590 246 622 253 b 733 325 683 282 710 301 b 788 408 756 349 775 377 b 807 508 800 440 807 473 b 788 608 807 543 800 576 b 733 691 775 640 756 667 b 653 748 710 715 683 734 b 556 769 622 762 590 769 b 458 748 521 769 489 762 b 378 691 428 734 401 715 b 325 608 356 667 338 640 b 306 508 312 576 306 543 m 535 1063 b 503 1069 525 1063 515 1065 b 475 1083 492 1073 482 1078 l 275 1232 b 279 1265 259 1245 261 1256 l 479 1351 b 507 1353 488 1355 497 1356 b 531 1338 517 1350 525 1345 l 724 1089 b 728 1070 729 1081 731 1075 b 711 1063 726 1065 720 1063 "},"ó":{"ha":1150,"x_min":0,"x_max":0,"o":"m 31 508 b 72 713 31 581 44 649 b 185 880 100 776 138 832 b 351 993 232 928 288 965 b 556 1035 415 1021 483 1035 b 760 993 628 1035 696 1021 b 927 880 824 965 879 928 b 1040 713 975 832 1013 776 b 1082 508 1068 649 1082 581 b 1040 304 1082 436 1068 368 b 927 137 1013 240 975 184 b 760 24 879 89 824 51 b 556 -18 696 -4 628 -18 b 351 24 483 -18 415 -4 b 185 137 288 51 232 89 b 72 304 138 184 100 240 b 31 508 44 368 31 436 m 306 508 b 325 408 306 473 312 440 b 378 325 338 377 356 349 b 458 267 401 301 428 282 b 556 246 489 253 521 246 b 653 267 590 246 622 253 b 733 325 683 282 710 301 b 788 408 756 349 775 377 b 807 508 800 440 807 473 b 788 608 807 543 800 576 b 733 691 775 640 756 667 b 653 748 710 715 683 734 b 556 769 622 762 590 769 b 458 748 521 769 489 762 b 378 691 428 734 401 715 b 325 608 356 667 338 640 b 306 508 312 576 306 543 m 828 1265 b 832 1232 846 1256 848 1245 l 633 1083 b 605 1069 626 1078 616 1073 b 574 1063 593 1065 583 1063 l 397 1063 b 379 1070 388 1063 382 1065 b 385 1089 376 1075 378 1081 l 576 1338 b 600 1353 582 1345 590 1350 b 628 1351 610 1356 619 1355 "},"ô":{"ha":1150,"x_min":0,"x_max":0,"o":"m 31 508 b 72 713 31 581 44 649 b 185 880 100 776 138 832 b 351 993 232 928 288 965 b 556 1035 415 1021 483 1035 b 760 993 628 1035 696 1021 b 927 880 824 965 879 928 b 1040 713 975 832 1013 776 b 1082 508 1068 649 1082 581 b 1040 304 1082 436 1068 368 b 927 137 1013 240 975 184 b 760 24 879 89 824 51 b 556 -18 696 -4 628 -18 b 351 24 483 -18 415 -4 b 185 137 288 51 232 89 b 72 304 138 184 100 240 b 31 508 44 368 31 436 m 306 508 b 325 408 306 473 312 440 b 378 325 338 377 356 349 b 458 267 401 301 428 282 b 556 246 489 253 521 246 b 653 267 590 246 622 253 b 733 325 683 282 710 301 b 788 408 756 349 775 377 b 807 508 800 440 807 473 b 788 608 807 543 800 576 b 733 691 775 640 756 667 b 653 748 710 715 683 734 b 556 769 622 762 590 769 b 458 748 521 769 489 762 b 378 691 428 734 401 715 b 325 608 356 667 338 640 b 306 508 312 576 306 543 m 617 1351 b 647 1344 626 1351 636 1349 b 671 1325 657 1339 665 1332 l 864 1086 b 869 1067 869 1079 871 1072 b 851 1060 866 1062 861 1060 l 653 1060 b 623 1067 644 1060 634 1062 b 599 1086 612 1072 604 1079 l 574 1115 b 553 1126 568 1123 561 1126 b 532 1114 544 1125 538 1121 l 510 1085 b 486 1066 504 1077 496 1071 b 457 1058 476 1061 466 1058 l 257 1058 b 240 1066 248 1058 242 1061 b 244 1085 237 1071 239 1077 l 435 1325 b 459 1344 440 1332 448 1339 b 489 1351 470 1349 480 1351 "},"õ":{"ha":1150,"x_min":0,"x_max":0,"o":"m 31 508 b 72 713 31 581 44 649 b 185 880 100 776 138 832 b 351 993 232 928 288 965 b 556 1035 415 1021 483 1035 b 760 993 628 1035 696 1021 b 927 880 824 965 879 928 b 1040 713 975 832 1013 776 b 1082 508 1068 649 1082 581 b 1040 304 1082 436 1068 368 b 927 137 1013 240 975 184 b 760 24 879 89 824 51 b 556 -18 696 -4 628 -18 b 351 24 483 -18 415 -4 b 185 137 288 51 232 89 b 72 304 138 184 100 240 b 31 508 44 368 31 436 m 306 508 b 325 408 306 473 312 440 b 378 325 338 377 356 349 b 458 267 401 301 428 282 b 556 246 489 253 521 246 b 653 267 590 246 622 253 b 733 325 683 282 710 301 b 788 408 756 349 775 377 b 807 508 800 440 807 473 b 788 608 807 543 800 576 b 733 691 775 640 756 667 b 653 748 710 715 683 734 b 556 769 622 762 590 769 b 458 748 521 769 489 762 b 378 691 428 734 401 715 b 325 608 356 667 338 640 b 306 508 312 576 306 543 m 258 1100 b 238 1115 249 1102 242 1107 b 235 1140 233 1124 232 1132 b 260 1208 241 1163 250 1185 b 297 1272 270 1231 282 1253 b 350 1320 312 1292 330 1308 b 422 1340 370 1333 394 1339 b 505 1322 455 1341 482 1335 b 566 1284 528 1308 548 1296 b 616 1265 584 1272 601 1266 b 665 1299 631 1263 648 1275 b 688 1315 671 1306 678 1311 b 714 1315 697 1318 706 1318 l 828 1274 b 848 1256 837 1270 844 1264 b 850 1229 852 1247 853 1238 b 819 1160 842 1205 831 1182 b 775 1103 806 1139 792 1119 b 718 1063 758 1086 739 1073 b 647 1051 697 1053 673 1050 b 579 1074 621 1053 599 1061 b 525 1110 560 1088 542 1100 b 478 1126 508 1121 493 1126 b 431 1088 463 1125 447 1113 b 408 1070 425 1080 418 1074 b 381 1067 399 1066 390 1065 "},"ö":{"ha":1150,"x_min":0,"x_max":0,"o":"m 31 508 b 72 713 31 581 44 649 b 185 880 100 776 138 832 b 351 993 232 928 288 965 b 556 1035 415 1021 483 1035 b 760 993 628 1035 696 1021 b 927 880 824 965 879 928 b 1040 713 975 832 1013 776 b 1082 508 1068 649 1082 581 b 1040 304 1082 436 1068 368 b 927 137 1013 240 975 184 b 760 24 879 89 824 51 b 556 -18 696 -4 628 -18 b 351 24 483 -18 415 -4 b 185 137 288 51 232 89 b 72 304 138 184 100 240 b 31 508 44 368 31 436 m 306 508 b 325 408 306 473 312 440 b 378 325 338 377 356 349 b 458 267 401 301 428 282 b 556 246 489 253 521 246 b 653 267 590 246 622 253 b 733 325 683 282 710 301 b 788 408 756 349 775 377 b 807 508 800 440 807 473 b 788 608 807 543 800 576 b 733 691 775 640 756 667 b 653 748 710 715 683 734 b 556 769 622 762 590 769 b 458 748 521 769 489 762 b 378 691 428 734 401 715 b 325 608 356 667 338 640 b 306 508 312 576 306 543 m 264 1208 b 274 1261 264 1227 267 1244 b 303 1304 281 1278 291 1292 b 347 1333 316 1316 331 1326 b 401 1343 364 1340 382 1343 b 497 1304 440 1343 472 1330 b 535 1208 522 1278 535 1246 b 497 1112 535 1169 522 1137 b 401 1074 472 1086 440 1074 b 347 1084 382 1074 364 1077 b 303 1113 331 1091 316 1100 b 274 1155 291 1125 281 1139 b 264 1208 267 1171 264 1189 m 575 1208 b 585 1261 575 1227 578 1244 b 614 1304 592 1278 602 1292 b 657 1333 626 1316 640 1326 b 711 1343 674 1340 692 1343 b 807 1304 749 1343 781 1330 b 846 1208 833 1278 846 1246 b 807 1112 846 1169 833 1137 b 711 1074 781 1086 749 1074 b 614 1112 672 1074 640 1086 b 575 1208 588 1137 575 1169 "},"÷":{"ha":850,"x_min":0,"x_max":0,"o":"m 65 388 b 42 397 56 388 48 391 b 32 421 35 404 32 412 l 32 610 b 42 634 32 620 35 628 b 65 643 48 640 56 643 l 743 643 b 767 634 753 643 761 640 b 776 610 773 628 776 620 l 776 421 b 767 397 776 412 773 404 b 743 388 761 391 753 388 m 404 682 b 350 693 385 682 367 686 b 306 723 333 700 319 710 b 277 767 294 735 284 750 b 267 821 270 784 267 802 b 306 919 267 860 280 892 b 404 958 333 945 365 958 b 502 919 443 958 476 945 b 542 821 528 892 542 860 b 531 767 542 802 538 784 b 502 723 524 750 515 735 b 458 693 490 710 475 700 b 404 682 442 686 424 682 m 404 75 b 306 115 365 75 333 88 b 267 213 280 141 267 174 b 306 309 267 250 280 283 b 404 349 333 335 365 349 b 502 309 443 349 476 335 b 542 213 528 283 542 250 b 502 115 542 174 528 141 b 404 75 476 88 443 75 "},"ø":{"ha":1175,"x_min":0,"x_max":0,"o":"m 75 78 b 63 99 68 83 64 91 b 72 124 63 108 66 116 l 113 172 b 123 199 119 180 122 188 b 115 225 123 209 121 218 b 55 358 89 267 69 311 b 33 508 41 406 33 456 b 75 713 33 581 47 649 b 188 880 103 776 140 832 b 354 993 235 928 290 965 b 558 1035 418 1021 486 1035 b 785 983 638 1035 713 1018 b 812 980 793 980 802 978 b 836 993 822 981 830 986 l 874 1036 b 897 1048 880 1044 888 1047 b 921 1039 905 1048 913 1045 l 1040 933 b 1052 910 1048 927 1052 919 b 1043 886 1053 902 1050 894 l 1006 843 b 995 817 999 836 996 827 b 1001 790 995 808 997 799 b 1063 657 1028 749 1049 704 b 1085 508 1078 610 1085 560 b 1043 304 1085 436 1071 368 b 930 137 1015 240 978 184 b 763 24 882 89 826 51 b 558 -18 699 -4 631 -18 b 442 -5 519 -18 480 -14 b 335 32 405 4 369 16 b 308 35 326 36 317 37 b 283 21 298 33 290 28 l 243 -24 b 220 -35 237 -31 229 -35 b 196 -26 211 -36 203 -33 m 315 446 b 328 430 317 437 322 431 b 349 439 335 428 342 431 l 610 733 b 617 754 616 741 619 748 b 600 767 615 761 609 765 b 579 769 593 769 586 769 l 558 769 b 461 748 524 769 492 762 b 381 691 431 734 404 715 b 328 608 359 667 341 640 b 308 508 315 576 308 543 b 315 446 308 490 311 469 m 803 568 b 790 584 801 577 797 583 b 771 575 784 585 777 582 l 511 282 b 504 262 505 275 502 268 b 521 250 506 256 512 252 b 558 246 533 247 545 246 b 656 267 593 246 625 253 b 736 325 686 282 713 301 b 790 408 759 349 777 377 b 810 508 803 440 810 473 b 803 568 810 527 807 547 "},"ù":{"ha":1094,"x_min":0,"x_max":0,"o":"m 75 982 b 85 1006 75 991 78 999 b 108 1015 91 1012 99 1015 l 318 1015 b 342 1006 327 1015 335 1012 b 351 982 348 999 351 991 l 351 419 b 369 330 351 383 357 353 b 412 274 380 306 395 288 b 467 246 429 261 447 251 b 519 238 486 240 504 238 b 572 246 535 238 553 240 b 626 274 592 251 610 261 b 669 330 643 288 657 306 b 686 419 680 353 686 383 l 686 982 b 696 1006 686 991 689 999 b 719 1015 702 1012 710 1015 l 929 1015 b 953 1006 938 1015 946 1012 b 963 982 959 999 963 991 l 963 419 b 931 240 963 354 952 294 b 842 103 910 187 881 141 b 701 15 803 65 756 35 b 519 -17 647 -6 586 -17 b 338 15 453 -17 392 -6 b 197 103 283 35 236 65 b 107 240 158 141 128 187 b 75 419 86 294 75 354 l 75 982 m 504 1063 b 473 1069 495 1063 484 1065 b 444 1083 461 1073 452 1078 l 244 1232 b 249 1265 229 1245 230 1256 l 449 1351 b 476 1353 457 1355 466 1356 b 500 1338 487 1350 494 1345 l 693 1089 b 698 1070 699 1081 700 1075 b 681 1063 696 1065 690 1063 "},"ú":{"ha":1094,"x_min":0,"x_max":0,"o":"m 75 982 b 85 1006 75 991 78 999 b 108 1015 91 1012 99 1015 l 318 1015 b 342 1006 327 1015 335 1012 b 351 982 348 999 351 991 l 351 419 b 369 330 351 383 357 353 b 412 274 380 306 395 288 b 467 246 429 261 447 251 b 519 238 486 240 504 238 b 572 246 535 238 553 240 b 626 274 592 251 610 261 b 669 330 643 288 657 306 b 686 419 680 353 686 383 l 686 982 b 696 1006 686 991 689 999 b 719 1015 702 1012 710 1015 l 929 1015 b 953 1006 938 1015 946 1012 b 963 982 959 999 963 991 l 963 419 b 931 240 963 354 952 294 b 842 103 910 187 881 141 b 701 15 803 65 756 35 b 519 -17 647 -6 586 -17 b 338 15 453 -17 392 -6 b 197 103 283 35 236 65 b 107 240 158 141 128 187 b 75 419 86 294 75 354 l 75 982 m 778 1265 b 782 1232 796 1256 798 1245 l 583 1083 b 555 1069 576 1078 566 1073 b 524 1063 543 1065 533 1063 l 347 1063 b 329 1070 338 1063 332 1065 b 335 1089 326 1075 328 1081 l 526 1338 b 550 1353 532 1345 540 1350 b 578 1351 560 1356 569 1355 "},"û":{"ha":1094,"x_min":0,"x_max":0,"o":"m 75 982 b 85 1006 75 991 78 999 b 108 1015 91 1012 99 1015 l 318 1015 b 342 1006 327 1015 335 1012 b 351 982 348 999 351 991 l 351 419 b 369 330 351 383 357 353 b 412 274 380 306 395 288 b 467 246 429 261 447 251 b 519 238 486 240 504 238 b 572 246 535 238 553 240 b 626 274 592 251 610 261 b 669 330 643 288 657 306 b 686 419 680 353 686 383 l 686 982 b 696 1006 686 991 689 999 b 719 1015 702 1012 710 1015 l 929 1015 b 953 1006 938 1015 946 1012 b 963 982 959 999 963 991 l 963 419 b 931 240 963 354 952 294 b 842 103 910 187 881 141 b 701 15 803 65 756 35 b 519 -17 647 -6 586 -17 b 338 15 453 -17 392 -6 b 197 103 283 35 236 65 b 107 240 158 141 128 187 b 75 419 86 294 75 354 l 75 982 m 581 1351 b 610 1344 590 1351 600 1349 b 635 1325 621 1339 629 1332 l 828 1086 b 833 1067 833 1079 835 1072 b 815 1060 830 1062 825 1060 l 617 1060 b 587 1067 607 1060 597 1062 b 563 1086 576 1072 568 1079 l 538 1115 b 517 1126 532 1123 525 1126 b 496 1114 508 1125 501 1121 l 474 1085 b 450 1066 468 1077 460 1071 b 421 1058 440 1061 430 1058 l 221 1058 b 203 1066 212 1058 206 1061 b 208 1085 201 1071 203 1077 l 399 1325 b 423 1344 404 1332 412 1339 b 453 1351 434 1349 444 1351 "},"ü":{"ha":1094,"x_min":0,"x_max":0,"o":"m 75 982 b 85 1006 75 991 78 999 b 108 1015 91 1012 99 1015 l 318 1015 b 342 1006 327 1015 335 1012 b 351 982 348 999 351 991 l 351 419 b 369 330 351 383 357 353 b 412 274 380 306 395 288 b 467 246 429 261 447 251 b 519 238 486 240 504 238 b 572 246 535 238 553 240 b 626 274 592 251 610 261 b 669 330 643 288 657 306 b 686 419 680 353 686 383 l 686 982 b 696 1006 686 991 689 999 b 719 1015 702 1012 710 1015 l 929 1015 b 953 1006 938 1015 946 1012 b 963 982 959 999 963 991 l 963 419 b 931 240 963 354 952 294 b 842 103 910 187 881 141 b 701 15 803 65 756 35 b 519 -17 647 -6 586 -17 b 338 15 453 -17 392 -6 b 197 103 283 35 236 65 b 107 240 158 141 128 187 b 75 419 86 294 75 354 l 75 982 m 226 1208 b 237 1261 226 1227 230 1244 b 266 1304 244 1278 253 1292 b 310 1333 278 1316 293 1326 b 364 1343 326 1340 344 1343 b 460 1304 403 1343 435 1330 b 497 1208 485 1278 497 1246 b 460 1112 497 1169 485 1137 b 364 1074 435 1086 403 1074 b 310 1084 344 1074 326 1077 b 266 1113 293 1091 278 1100 b 237 1155 253 1125 244 1139 b 226 1208 230 1171 226 1189 m 538 1208 b 548 1261 538 1227 541 1244 b 576 1304 555 1278 564 1292 b 619 1333 588 1316 603 1326 b 674 1343 636 1340 654 1343 b 769 1304 712 1343 744 1330 b 808 1208 795 1278 808 1246 b 769 1112 808 1169 795 1137 b 674 1074 744 1086 712 1074 b 576 1112 635 1074 602 1086 b 538 1208 550 1137 538 1169 "},"ý":{"ha":985,"x_min":0,"x_max":0,"o":"m 736 1265 b 740 1232 755 1256 756 1245 l 542 1083 b 513 1069 534 1078 525 1073 b 482 1063 502 1065 491 1063 l 306 1063 b 288 1070 296 1063 290 1065 b 293 1089 285 1075 287 1081 l 485 1338 b 508 1353 490 1345 498 1350 b 536 1351 519 1356 528 1355 m 625 414 b 613 383 620 406 616 395 b 607 351 609 371 607 361 l 607 33 b 597 10 607 24 604 16 b 574 0 591 3 583 0 l 364 0 b 340 10 355 0 347 3 b 331 33 334 16 331 24 l 331 350 b 326 383 331 359 329 370 b 314 413 322 395 319 405 b 144 693 258 508 202 601 b -29 976 86 785 28 879 b -32 1002 -34 985 -35 993 b -14 1015 -29 1011 -23 1015 l 233 1015 b 262 1007 243 1015 252 1013 b 283 986 272 1001 279 994 l 454 689 b 471 678 459 681 464 678 b 488 689 477 678 483 681 l 657 986 b 678 1007 662 994 669 1001 b 707 1015 688 1013 698 1015 l 957 1015 b 977 1006 966 1015 973 1012 b 972 976 981 999 980 989 "},"þ":{"ha":988,"x_min":0,"x_max":0,"o":"m 383 133 b 360 124 374 133 366 130 b 350 100 353 118 350 110 l 350 33 b 340 10 350 24 347 16 b 317 0 334 3 326 0 l 107 0 b 83 10 98 0 90 3 b 74 33 77 16 74 24 l 74 983 b 83 1008 74 994 77 1002 b 107 1017 90 1014 98 1017 l 317 1017 b 340 1008 326 1017 334 1014 b 350 983 347 1002 350 994 l 350 918 b 360 894 350 909 353 901 b 383 885 366 888 374 885 l 532 885 b 678 855 584 885 633 875 b 798 774 724 835 764 808 b 878 655 832 741 859 701 b 908 508 898 609 908 560 b 878 363 908 456 898 408 b 798 243 859 317 832 277 b 678 163 764 209 724 182 b 532 133 633 143 584 133 m 383 628 b 360 619 374 628 366 625 b 350 594 353 613 350 605 l 350 422 b 360 399 350 413 353 405 b 383 389 366 392 374 389 l 532 389 b 572 399 546 389 559 392 b 603 427 584 406 595 416 b 625 466 612 439 619 452 b 633 508 631 480 633 494 b 625 552 633 523 631 538 b 603 590 619 566 612 579 b 572 617 595 601 584 610 b 532 628 559 624 546 628 "},"ÿ":{"ha":985,"x_min":0,"x_max":0,"o":"m 183 1208 b 194 1261 183 1227 187 1244 b 223 1304 201 1278 210 1292 b 267 1333 235 1316 250 1326 b 321 1343 283 1340 301 1343 b 417 1304 360 1343 392 1330 b 454 1208 442 1278 454 1246 b 417 1112 454 1169 442 1137 b 321 1074 392 1086 360 1074 b 267 1084 301 1074 283 1077 b 223 1113 250 1091 235 1100 b 194 1155 210 1125 201 1139 b 183 1208 187 1171 183 1189 m 494 1208 b 505 1261 494 1227 498 1244 b 533 1304 512 1278 521 1292 b 576 1333 545 1316 560 1326 b 631 1343 593 1340 611 1343 b 726 1304 669 1343 700 1330 b 765 1208 752 1278 765 1246 b 726 1112 765 1169 752 1137 b 631 1074 700 1086 669 1074 b 533 1112 592 1074 559 1086 b 494 1208 507 1137 494 1169 m 625 414 b 613 383 620 406 616 395 b 607 351 609 371 607 361 l 607 33 b 597 10 607 24 604 16 b 574 0 591 3 583 0 l 364 0 b 340 10 355 0 347 3 b 331 33 334 16 331 24 l 331 350 b 326 383 331 359 329 370 b 314 413 322 395 319 405 b 144 693 258 508 202 601 b -29 976 86 785 28 879 b -32 1002 -34 985 -35 993 b -14 1015 -29 1011 -23 1015 l 233 1015 b 262 1007 243 1015 252 1013 b 283 986 272 1001 279 994 l 454 689 b 471 678 459 681 464 678 b 488 689 477 678 483 681 l 657 986 b 678 1007 662 994 669 1001 b 707 1015 688 1013 698 1015 l 957 1015 b 977 1006 966 1015 973 1012 b 972 976 981 999 980 989 "},"ı":{"ha":472,"x_min":0,"x_max":0,"o":"m 119 0 b 95 10 109 0 101 3 b 86 33 89 16 86 24 l 86 982 b 95 1006 86 991 89 999 b 119 1015 101 1012 109 1015 l 329 1015 b 353 1006 338 1015 346 1012 b 363 982 359 999 363 991 l 363 33 b 353 10 363 24 359 16 b 329 0 346 3 338 0 "},"Ł":{"ha":915,"x_min":0,"x_max":0,"o":"m 125 983 b 135 1008 125 994 128 1002 b 158 1017 141 1014 149 1017 l 367 1017 b 391 1008 377 1017 385 1014 b 400 983 397 1002 400 994 l 400 736 b 409 717 400 727 403 721 b 429 719 415 714 422 715 l 640 839 b 667 840 650 845 659 846 b 679 817 675 835 679 827 l 679 606 b 671 578 679 596 676 587 b 650 557 665 569 658 562 l 429 432 b 409 411 422 427 415 420 b 400 382 403 402 400 392 l 400 289 b 410 265 400 280 403 272 b 433 256 416 259 424 256 l 851 256 b 876 247 862 256 870 253 b 885 222 882 241 885 232 l 885 33 b 876 10 885 24 882 16 b 851 0 870 3 862 0 l 158 0 b 135 10 149 0 141 3 b 125 33 128 16 125 24 l 125 228 b 117 248 125 238 122 245 b 96 246 111 251 104 250 b 72 233 86 240 78 236 b 50 221 66 229 58 225 b 22 223 38 215 29 216 b 13 247 16 230 13 238 l 13 450 b 22 479 13 460 16 470 b 42 500 28 488 34 495 l 96 532 b 117 553 104 537 111 544 b 125 581 122 562 125 571 "},"ł":{"ha":915,"x_min":0,"x_max":0,"o":"m 125 983 b 135 1008 125 994 128 1002 b 158 1017 141 1014 149 1017 l 367 1017 b 391 1008 377 1017 385 1014 b 400 983 397 1002 400 994 l 400 736 b 409 717 400 727 403 721 b 429 719 415 714 422 715 l 640 839 b 667 840 650 845 659 846 b 679 817 675 835 679 827 l 679 606 b 671 578 679 596 676 587 b 650 557 665 569 658 562 l 429 432 b 409 411 422 427 415 420 b 400 382 403 402 400 392 l 400 289 b 410 265 400 280 403 272 b 433 256 416 259 424 256 l 851 256 b 876 247 862 256 870 253 b 885 222 882 241 885 232 l 885 33 b 876 10 885 24 882 16 b 851 0 870 3 862 0 l 158 0 b 135 10 149 0 141 3 b 125 33 128 16 125 24 l 125 228 b 117 248 125 238 122 245 b 96 246 111 251 104 250 b 72 233 86 240 78 236 b 50 221 66 229 58 225 b 22 223 38 215 29 216 b 13 247 16 230 13 238 l 13 450 b 22 479 13 460 16 470 b 42 500 28 488 34 495 l 96 532 b 117 553 104 537 111 544 b 125 581 122 562 125 571 "},"Œ":{"ha":1611,"x_min":0,"x_max":0,"o":"m 960 665 b 969 642 960 656 963 648 b 993 632 975 635 983 632 l 1369 632 b 1393 622 1379 632 1387 629 b 1403 599 1400 616 1403 608 l 1403 407 b 1393 383 1403 398 1400 390 b 1369 374 1387 377 1379 374 l 993 374 b 969 364 983 374 975 370 b 960 340 963 357 960 350 l 960 292 b 969 268 960 282 963 275 b 993 258 975 262 983 258 l 1425 258 b 1449 249 1434 258 1442 255 b 1458 225 1455 242 1458 234 l 1458 33 b 1449 10 1458 24 1455 16 b 1425 0 1442 3 1434 0 l 732 0 b 698 -2 722 0 710 -1 b 665 -7 685 -3 675 -5 b 567 -18 631 -14 598 -18 b 363 24 494 -18 426 -4 b 195 137 299 51 243 89 b 83 304 147 184 110 240 b 42 508 55 368 42 436 b 83 713 42 581 55 649 b 195 880 110 776 147 832 b 363 993 243 928 299 965 b 567 1035 426 1021 494 1035 b 617 1032 583 1035 600 1034 b 665 1025 633 1030 650 1028 b 698 1019 675 1023 685 1021 b 732 1017 710 1018 722 1017 l 1425 1017 b 1449 1007 1434 1017 1442 1013 b 1458 983 1455 1000 1458 993 l 1458 793 b 1449 769 1458 784 1455 776 b 1425 760 1442 763 1434 760 l 993 760 b 969 750 983 760 975 756 b 960 726 963 744 960 736 m 685 704 b 677 734 685 713 682 723 b 657 757 672 745 665 752 b 618 772 646 763 633 769 b 567 778 603 776 586 778 b 469 760 531 778 499 772 b 390 709 439 749 412 732 b 336 624 367 686 349 658 b 317 508 323 591 317 552 b 336 396 317 467 323 429 b 390 311 349 363 367 334 b 469 258 412 288 439 270 b 567 239 499 245 531 239 b 619 245 587 239 605 241 b 657 260 634 249 647 254 b 677 283 665 264 672 272 b 685 313 682 293 685 303 "},"œ":{"ha":1611,"x_min":0,"x_max":0,"o":"m 960 665 b 969 642 960 656 963 648 b 993 632 975 635 983 632 l 1369 632 b 1393 622 1379 632 1387 629 b 1403 599 1400 616 1403 608 l 1403 407 b 1393 383 1403 398 1400 390 b 1369 374 1387 377 1379 374 l 993 374 b 969 364 983 374 975 370 b 960 340 963 357 960 350 l 960 292 b 969 268 960 282 963 275 b 993 258 975 262 983 258 l 1425 258 b 1449 249 1434 258 1442 255 b 1458 225 1455 242 1458 234 l 1458 33 b 1449 10 1458 24 1455 16 b 1425 0 1442 3 1434 0 l 732 0 b 698 -2 722 0 710 -1 b 665 -7 685 -3 675 -5 b 567 -18 631 -14 598 -18 b 363 24 494 -18 426 -4 b 195 137 299 51 243 89 b 83 304 147 184 110 240 b 42 508 55 368 42 436 b 83 713 42 581 55 649 b 195 880 110 776 147 832 b 363 993 243 928 299 965 b 567 1035 426 1021 494 1035 b 617 1032 583 1035 600 1034 b 665 1025 633 1030 650 1028 b 698 1019 675 1023 685 1021 b 732 1017 710 1018 722 1017 l 1425 1017 b 1449 1007 1434 1017 1442 1013 b 1458 983 1455 1000 1458 993 l 1458 793 b 1449 769 1458 784 1455 776 b 1425 760 1442 763 1434 760 l 993 760 b 969 750 983 760 975 756 b 960 726 963 744 960 736 m 685 704 b 677 734 685 713 682 723 b 657 757 672 745 665 752 b 618 772 646 763 633 769 b 567 778 603 776 586 778 b 469 760 531 778 499 772 b 390 709 439 749 412 732 b 336 624 367 686 349 658 b 317 508 323 591 317 552 b 336 396 317 467 323 429 b 390 311 349 363 367 334 b 469 258 412 288 439 270 b 567 239 499 245 531 239 b 619 245 587 239 605 241 b 657 260 634 249 647 254 b 677 283 665 264 672 272 b 685 313 682 293 685 303 "},"Š":{"ha":944,"x_min":0,"x_max":0,"o":"m 190 349 b 339 272 240 316 290 291 b 476 244 388 254 434 244 b 569 262 517 244 548 250 b 601 314 591 273 601 291 b 588 342 601 326 597 335 b 551 360 578 349 566 355 b 497 371 535 364 518 368 b 435 382 477 374 456 377 b 363 395 414 386 391 390 b 279 417 336 400 308 408 b 194 454 250 427 222 439 b 118 511 166 469 140 488 b 65 594 96 534 78 562 b 44 707 51 626 44 663 b 82 865 44 771 57 824 b 177 965 107 907 139 940 b 306 1016 216 989 258 1006 b 443 1031 353 1026 399 1031 b 652 997 521 1031 591 1019 b 829 897 714 974 773 941 b 842 874 837 891 841 883 b 835 849 843 864 840 856 l 726 694 b 704 681 721 687 713 682 b 679 686 695 679 687 681 b 547 749 632 716 588 737 b 435 768 506 762 469 768 b 399 767 425 768 413 768 b 361 762 386 767 373 765 b 331 746 349 759 339 753 b 319 715 323 738 319 728 b 349 681 319 702 329 691 b 415 654 368 670 390 662 b 488 637 440 647 464 641 b 532 629 511 633 525 630 b 642 601 565 623 602 613 b 753 545 681 588 719 570 b 841 449 788 521 817 489 b 876 301 865 410 876 361 b 847 158 876 246 867 198 b 766 58 828 117 801 84 b 641 1 731 32 690 13 b 479 -18 592 -12 538 -18 b 344 -6 431 -18 386 -14 b 228 26 303 2 264 13 b 127 76 192 40 158 57 b 42 136 96 95 68 115 b 29 159 34 142 30 149 b 36 185 28 169 31 177 l 143 339 b 165 353 149 346 156 351 b 190 349 175 355 183 353 m 379 1058 b 349 1066 370 1058 360 1061 b 325 1085 339 1071 331 1077 l 132 1326 b 127 1344 126 1334 125 1340 b 144 1351 129 1349 135 1351 l 343 1351 b 373 1344 352 1351 362 1349 b 399 1326 384 1340 392 1334 l 422 1299 b 443 1288 428 1291 435 1288 b 464 1299 451 1288 458 1291 l 485 1326 b 509 1344 490 1334 498 1340 b 539 1351 520 1349 530 1351 l 739 1351 b 756 1344 748 1351 754 1349 b 751 1326 759 1340 757 1334 l 561 1085 b 537 1066 556 1077 547 1071 b 507 1058 526 1061 516 1058 "},"š":{"ha":944,"x_min":0,"x_max":0,"o":"m 190 349 b 339 272 240 316 290 291 b 476 244 388 254 434 244 b 569 262 517 244 548 250 b 601 314 591 273 601 291 b 588 342 601 326 597 335 b 551 360 578 349 566 355 b 497 371 535 364 518 368 b 435 382 477 374 456 377 b 363 395 414 386 391 390 b 279 417 336 400 308 408 b 194 454 250 427 222 439 b 118 511 166 469 140 488 b 65 594 96 534 78 562 b 44 707 51 626 44 663 b 82 865 44 771 57 824 b 177 965 107 907 139 940 b 306 1016 216 989 258 1006 b 443 1031 353 1026 399 1031 b 652 997 521 1031 591 1019 b 829 897 714 974 773 941 b 842 874 837 891 841 883 b 835 849 843 864 840 856 l 726 694 b 704 681 721 687 713 682 b 679 686 695 679 687 681 b 547 749 632 716 588 737 b 435 768 506 762 469 768 b 399 767 425 768 413 768 b 361 762 386 767 373 765 b 331 746 349 759 339 753 b 319 715 323 738 319 728 b 349 681 319 702 329 691 b 415 654 368 670 390 662 b 488 637 440 647 464 641 b 532 629 511 633 525 630 b 642 601 565 623 602 613 b 753 545 681 588 719 570 b 841 449 788 521 817 489 b 876 301 865 410 876 361 b 847 158 876 246 867 198 b 766 58 828 117 801 84 b 641 1 731 32 690 13 b 479 -18 592 -12 538 -18 b 344 -6 431 -18 386 -14 b 228 26 303 2 264 13 b 127 76 192 40 158 57 b 42 136 96 95 68 115 b 29 159 34 142 30 149 b 36 185 28 169 31 177 l 143 339 b 165 353 149 346 156 351 b 190 349 175 355 183 353 m 379 1058 b 349 1066 370 1058 360 1061 b 325 1085 339 1071 331 1077 l 132 1326 b 127 1344 126 1334 125 1340 b 144 1351 129 1349 135 1351 l 343 1351 b 373 1344 352 1351 362 1349 b 399 1326 384 1340 392 1334 l 422 1299 b 443 1288 428 1291 435 1288 b 464 1299 451 1288 458 1291 l 485 1326 b 509 1344 490 1334 498 1340 b 539 1351 520 1349 530 1351 l 739 1351 b 756 1344 748 1351 754 1349 b 751 1326 759 1340 757 1334 l 561 1085 b 537 1066 556 1077 547 1071 b 507 1058 526 1061 516 1058 "},"Ÿ":{"ha":985,"x_min":0,"x_max":0,"o":"m 183 1208 b 194 1261 183 1227 187 1244 b 223 1304 201 1278 210 1292 b 267 1333 235 1316 250 1326 b 321 1343 283 1340 301 1343 b 417 1304 360 1343 392 1330 b 454 1208 442 1278 454 1246 b 417 1112 454 1169 442 1137 b 321 1074 392 1086 360 1074 b 267 1084 301 1074 283 1077 b 223 1113 250 1091 235 1100 b 194 1155 210 1125 201 1139 b 183 1208 187 1171 183 1189 m 494 1208 b 505 1261 494 1227 498 1244 b 533 1304 512 1278 521 1292 b 576 1333 545 1316 560 1326 b 631 1343 593 1340 611 1343 b 726 1304 669 1343 700 1330 b 765 1208 752 1278 765 1246 b 726 1112 765 1169 752 1137 b 631 1074 700 1086 669 1074 b 533 1112 592 1074 559 1086 b 494 1208 507 1137 494 1169 m 625 414 b 613 383 620 406 616 395 b 607 351 609 371 607 361 l 607 33 b 597 10 607 24 604 16 b 574 0 591 3 583 0 l 364 0 b 340 10 355 0 347 3 b 331 33 334 16 331 24 l 331 350 b 326 383 331 359 329 370 b 314 413 322 395 319 405 b 144 693 258 508 202 601 b -29 976 86 785 28 879 b -32 1002 -34 985 -35 993 b -14 1015 -29 1011 -23 1015 l 233 1015 b 262 1007 243 1015 252 1013 b 283 986 272 1001 279 994 l 454 689 b 471 678 459 681 464 678 b 488 689 477 678 483 681 l 657 986 b 678 1007 662 994 669 1001 b 707 1015 688 1013 698 1015 l 957 1015 b 977 1006 966 1015 973 1012 b 972 976 981 999 980 989 "},"Ž":{"ha":985,"x_min":0,"x_max":0,"o":"m 407 1058 b 377 1066 398 1058 388 1061 b 353 1085 366 1071 358 1077 l 160 1326 b 155 1344 154 1334 153 1340 b 172 1351 157 1349 163 1351 l 371 1351 b 401 1344 380 1351 390 1349 b 426 1326 411 1340 420 1334 l 450 1299 b 471 1288 456 1291 463 1288 b 492 1299 479 1288 486 1291 l 513 1326 b 537 1344 518 1334 526 1340 b 567 1351 547 1349 557 1351 l 767 1351 b 784 1344 776 1351 782 1349 b 779 1326 786 1340 785 1334 l 589 1085 b 565 1066 583 1077 575 1071 b 535 1058 554 1061 544 1058 m 88 0 b 64 10 78 0 70 3 b 54 33 57 16 54 24 l 54 189 b 61 219 54 198 56 208 b 76 247 66 231 71 240 l 501 724 b 507 747 507 731 509 739 b 489 760 505 756 499 760 l 88 760 b 64 769 78 760 70 763 b 54 793 57 776 54 784 l 54 983 b 64 1007 54 993 57 1000 b 88 1017 70 1013 78 1017 l 874 1017 b 898 1007 884 1017 892 1013 b 907 983 904 1000 907 993 l 907 826 b 901 796 907 817 905 807 b 886 768 897 785 892 775 l 461 290 b 456 267 456 283 454 275 b 472 256 457 259 463 256 l 874 256 b 898 246 884 256 892 252 b 907 222 904 239 907 231 l 907 33 b 898 10 907 24 904 16 b 874 0 892 3 884 0 "},"ž":{"ha":985,"x_min":0,"x_max":0,"o":"m 407 1058 b 377 1066 398 1058 388 1061 b 353 1085 366 1071 358 1077 l 160 1326 b 155 1344 154 1334 153 1340 b 172 1351 157 1349 163 1351 l 371 1351 b 401 1344 380 1351 390 1349 b 426 1326 411 1340 420 1334 l 450 1299 b 471 1288 456 1291 463 1288 b 492 1299 479 1288 486 1291 l 513 1326 b 537 1344 518 1334 526 1340 b 567 1351 547 1349 557 1351 l 767 1351 b 784 1344 776 1351 782 1349 b 779 1326 786 1340 785 1334 l 589 1085 b 565 1066 583 1077 575 1071 b 535 1058 554 1061 544 1058 m 88 0 b 64 10 78 0 70 3 b 54 33 57 16 54 24 l 54 189 b 61 219 54 198 56 208 b 76 247 66 231 71 240 l 501 724 b 507 747 507 731 509 739 b 489 760 505 756 499 760 l 88 760 b 64 769 78 760 70 763 b 54 793 57 776 54 784 l 54 983 b 64 1007 54 993 57 1000 b 88 1017 70 1013 78 1017 l 874 1017 b 898 1007 884 1017 892 1013 b 907 983 904 1000 907 993 l 907 826 b 901 796 907 817 905 807 b 886 768 897 785 892 775 l 461 290 b 456 267 456 283 454 275 b 472 256 457 259 463 256 l 874 256 b 898 246 884 256 892 252 b 907 222 904 239 907 231 l 907 33 b 898 10 907 24 904 16 b 874 0 892 3 884 0 "},"ˆ":{"ha":599,"x_min":0,"x_max":0,"o":"m 346 1254 b 376 1247 355 1254 365 1252 b 400 1228 386 1241 394 1235 l 593 989 b 598 970 599 981 600 975 b 581 963 596 965 590 963 l 382 963 b 352 970 373 963 363 965 b 328 989 341 975 333 981 l 303 1018 b 282 1028 297 1025 290 1029 b 261 1017 274 1028 267 1024 l 239 988 b 215 969 233 980 225 974 b 186 961 205 964 195 961 l -14 961 b -31 969 -23 961 -29 964 b -26 988 -34 974 -32 980 l 164 1228 b 188 1247 169 1235 178 1241 b 218 1254 199 1252 209 1254 "},"ˇ":{"ha":600,"x_min":0,"x_max":0,"o":"m 218 961 b 188 969 209 961 199 964 b 164 988 178 974 169 980 l -29 1229 b -34 1247 -35 1237 -36 1243 b -17 1254 -32 1252 -26 1254 l 182 1254 b 212 1247 191 1254 201 1252 b 238 1229 222 1243 231 1237 l 261 1201 b 282 1190 267 1194 274 1190 b 303 1201 290 1190 297 1194 l 324 1229 b 348 1247 329 1237 337 1243 b 378 1254 359 1252 369 1254 l 578 1254 b 595 1247 587 1254 593 1252 b 590 1229 597 1243 596 1237 l 400 988 b 376 969 394 980 386 974 b 346 961 365 964 355 961 "},"˘":{"ha":594,"x_min":0,"x_max":0,"o":"m 586 1219 b 506 1029 581 1138 554 1075 b 299 961 457 984 388 961 b 93 1032 210 961 141 985 b 11 1219 45 1079 18 1142 b 19 1243 10 1229 13 1237 b 43 1253 26 1250 34 1253 l 188 1253 b 212 1243 197 1253 205 1250 b 226 1221 219 1237 224 1229 b 252 1181 231 1204 240 1191 b 299 1165 265 1170 280 1165 b 347 1181 318 1165 334 1171 b 372 1221 359 1192 368 1205 b 386 1243 375 1229 380 1237 b 410 1253 393 1250 400 1253 l 554 1253 b 578 1243 563 1253 571 1250 b 586 1219 584 1237 587 1229 "},"˙":{"ha":293,"x_min":0,"x_max":0,"o":"m 14 1111 b 47 1207 14 1149 25 1181 b 138 1246 68 1233 99 1246 b 193 1235 157 1246 175 1242 b 240 1207 211 1228 226 1219 b 272 1164 253 1195 264 1181 b 283 1111 279 1147 283 1130 b 246 1015 283 1072 271 1040 b 150 976 221 989 189 976 b 53 1015 111 976 79 989 b 14 1111 27 1040 14 1072 "},"˚":{"ha":386,"x_min":0,"x_max":0,"o":"m 193 878 b 121 892 167 878 143 883 b 63 932 99 902 79 915 b 23 991 46 949 33 968 b 8 1063 13 1014 8 1038 b 23 1134 8 1088 13 1111 b 63 1193 33 1157 46 1176 b 121 1233 79 1210 99 1223 b 193 1247 143 1242 167 1247 b 265 1233 218 1247 242 1242 b 324 1193 287 1223 307 1210 b 363 1134 340 1176 353 1157 b 378 1063 373 1111 378 1088 b 363 991 378 1038 373 1014 b 324 932 353 968 340 949 b 265 892 307 915 287 902 b 193 878 242 883 218 878 m 133 1061 b 151 1019 133 1044 139 1030 b 193 1001 162 1007 176 1001 b 235 1019 210 1001 224 1007 b 253 1061 247 1030 253 1044 b 235 1103 253 1078 247 1092 b 193 1121 224 1115 210 1121 b 151 1103 176 1121 162 1115 b 133 1061 139 1092 133 1078 "},"˛":{"ha":386,"x_min":0,"x_max":0,"o":"m 4 -62 b 28 7 6 -40 14 -17 b 85 64 43 31 62 50 b 177 100 117 82 148 94 b 250 110 206 106 231 109 b 277 101 260 111 269 108 b 292 78 285 95 290 87 l 301 38 b 297 15 303 28 302 21 b 275 3 293 9 285 5 b 234 -9 256 1 243 -3 b 218 -21 225 -15 220 -19 b 208 -40 212 -28 208 -35 b 214 -56 208 -46 210 -51 b 226 -67 218 -60 222 -64 b 239 -72 231 -69 235 -71 b 276 -78 252 -77 264 -79 b 307 -75 287 -78 298 -77 b 333 -76 316 -72 325 -72 b 349 -93 341 -79 346 -85 l 385 -196 b 385 -224 388 -205 389 -214 b 367 -243 382 -233 376 -239 b 304 -260 351 -250 330 -255 b 215 -264 278 -266 249 -267 b 157 -256 201 -263 182 -260 b 83 -230 132 -252 107 -243 b 22 -170 59 -216 39 -197 b 4 -62 6 -144 0 -108 "},"˜":{"ha":657,"x_min":0,"x_max":0,"o":"m 40 1003 b 19 1018 31 1005 24 1010 b 17 1043 15 1026 14 1035 b 42 1111 23 1065 31 1088 b 79 1175 52 1134 64 1156 b 132 1223 94 1194 112 1210 b 204 1243 152 1235 176 1242 b 287 1224 237 1244 264 1238 b 348 1187 309 1211 330 1198 b 398 1167 366 1175 383 1169 b 447 1201 413 1166 430 1177 b 469 1217 453 1209 460 1214 b 496 1218 479 1221 488 1221 l 610 1176 b 630 1158 619 1173 626 1167 b 632 1132 634 1150 635 1141 b 601 1063 624 1108 613 1085 b 557 1006 588 1041 574 1022 b 500 966 540 989 521 976 b 429 954 479 956 455 952 b 361 977 403 956 381 964 b 307 1013 342 991 324 1003 b 260 1028 290 1024 275 1029 b 213 990 245 1028 229 1015 b 190 973 207 983 200 977 b 163 969 181 969 172 968 "}}}
